SplineFontDB: 2.0
FontName: ArundinaSansMono-BoldOblique
FullName: Arundina Sans Mono Bold Oblique
FamilyName: Arundina Sans Mono
Weight: Bold
Copyright: Copyright (c) 2003 by Bitstream, Inc. All Rights Reserved.\nCopyright (c) 2007 by Software Industry Promotion Agency (Public Organization). All Rights Reserved.
Version: 1.20
ItalicAngle: -12
UnderlinePosition: -436
UnderlineWidth: 288
Ascent: 1638
Descent: 410
Order2: 1
XUID: [1021 375 425136265 14147668]
FSType: 4
OS2Version: 2
OS2_WeightWidthSlopeOnly: 0
OS2_UseTypoMetrics: 1
CreationTime: 1050374940
ModificationTime: 1195292540
PfmFamily: 49
TTFWeight: 700
TTFWidth: 5
LineGap: 25
VLineGap: 0
Panose: 2 11 3 0 2 2 2 2 2 4
OS2TypoAscent: 0
OS2TypoAOffset: 1
OS2TypoDescent: -410
OS2TypoDOffset: 1
OS2TypoLinegap: 0
OS2WinAscent: -412
OS2WinAOffset: 1
OS2WinDescent: 96
OS2WinDOffset: 1
HheadAscent: -412
HheadAOffset: 1
HheadDescent: -96
HheadDOffset: 1
OS2SubXSize: 1434
OS2SubYSize: 1331
OS2SubXOff: 0
OS2SubYOff: 287
OS2SupXSize: 1434
OS2SupYSize: 1331
OS2SupXOff: 0
OS2SupYOff: 977
OS2StrikeYSize: 102
OS2StrikeYPos: 512
OS2FamilyClass: 1285
OS2Vendor: 'Bits'
Lookup: 4 0 0 "'frac' Diagonal Fractions in Latin lookup 0"  {"'frac' Diagonal Fractions in Latin lookup 0 subtable"  } ['frac' ('latn' <'dflt' > ) ]
Lookup: 6 0 0 "'liga' Standard Ligatures in Latin lookup 1"  {"'liga' Standard Ligatures in Latin lookup 1 subtable"  } ['liga' ('latn' <'dflt' > ) ]
Lookup: 6 0 0 "'liga' Standard Ligatures in Latin lookup 2"  {"'liga' Standard Ligatures in Latin lookup 2 subtable"  } ['liga' ('latn' <'dflt' > ) ]
Lookup: 6 0 0 "'liga' Standard Ligatures in Latin lookup 3"  {"'liga' Standard Ligatures in Latin lookup 3 subtable"  } ['liga' ('latn' <'dflt' > ) ]
Lookup: 6 0 0 "'liga' Standard Ligatures in Latin lookup 4"  {"'liga' Standard Ligatures in Latin lookup 4 subtable"  } ['liga' ('latn' <'dflt' > ) ]

StartChar: .notdef
Encoding: 65536 -1 0
Width: 1234
VWidth: 3393
Flags: W
HStem: -363 114<167 961> 1331 114<503 1297>
Fore
411 1445 m 1,0,-1
 1437 1445 l 1,1,-1
 1053 -363 l 1,2,-1
 27 -363 l 1,3,-1
 411 1445 l 1,0,-1
961 -249 m 1,4,-1
 1297 1331 l 1,5,-1
 503 1331 l 1,6,-1
 167 -249 l 1,7,-1
 961 -249 l 1,4,-1
EndSplineSet
EndChar
StartChar: exclam
Encoding: 33 33 4
Width: 1234
VWidth: 3393
Flags: W
HStem: 0 282<394 605> 1473 20G<627.061 896>
VStem: 340 556<0 1493>
Fore
658 282 m 1,0,-1
 605 0 l 1,1,-1
 340 0 l 1,2,-1
 394 282 l 1,3,-1
 658 282 l 1,0,-1
896 1493 m 1,4,-1
 771 838 l 1,5,-1
 664 482 l 1,6,-1
 469 482 l 1,7,-1
 502 838 l 1,8,-1
 631 1493 l 1,9,-1
 896 1493 l 1,4,-1
EndSplineSet
EndChar
StartChar: quotedbl
Encoding: 34 34 5
Width: 1234
VWidth: 3393
Flags: W
HStem: 1473 20G<230 489 744 1001>
VStem: 230 259<940 1493> 744 257<940 1493>
Fore
1001 940 m 1,0,-1
 744 940 l 1,1,-1
 744 1493 l 1,2,-1
 1001 1493 l 1,3,-1
 1001 940 l 1,0,-1
489 940 m 1,4,-1
 230 940 l 1,5,-1
 230 1493 l 1,6,-1
 489 1493 l 1,7,-1
 489 940 l 1,4,-1
EndSplineSet
EndChar
StartChar: numbersign
Encoding: 35 35 6
Width: 1234
VWidth: 3393
Flags: W
HStem: 0 21G<104 331.094 529 759.04> 373 214<13 200 476 625 903 1089> 882 215<139 326 605 754 1029 1215>
Fore
550 882 m 1,0,-1
 476 587 l 1,1,-1
 679 587 l 1,2,-1
 754 882 l 1,3,-1
 550 882 l 1,0,-1
605 1097 m 1,4,-1
 807 1097 l 1,5,-1
 903 1473 l 1,6,-1
 1123 1473 l 1,7,-1
 1029 1097 l 1,8,-1
 1269 1097 l 1,9,-1
 1215 882 l 1,10,-1
 974 882 l 1,11,-1
 903 587 l 1,12,-1
 1143 587 l 1,13,-1
 1089 373 l 1,14,-1
 848 373 l 1,15,-1
 754 0 l 1,16,-1
 529 0 l 1,17,-1
 625 373 l 1,18,-1
 421 373 l 1,19,-1
 326 0 l 1,20,-1
 104 0 l 1,21,-1
 200 373 l 1,22,-1
 -41 373 l 1,23,-1
 13 587 l 1,24,-1
 255 587 l 1,25,-1
 326 882 l 1,26,-1
 85 882 l 1,27,-1
 139 1097 l 1,28,-1
 379 1097 l 1,29,-1
 476 1473 l 1,30,-1
 696 1473 l 1,31,-1
 605 1097 l 1,4,-1
EndSplineSet
EndChar
StartChar: dollar
Encoding: 36 36 7
Width: 1234
VWidth: 3393
Flags: W
HStem: 0 224<271.234 401> 1538 20G<701.949 848>
VStem: 200 257<850.308 1045.44> 771 258<289.676 493.388>
Fore
587 227 m 1,0,1
 673 237 673 237 722 285 c 128,-1,2
 771 333 771 333 771 401 c 0,3,4
 771 499 771 499 648 534 c 1,5,-1
 587 227 l 1,0,1
615 1100 m 1,6,7
 543 1092 543 1092 500 1046.5 c 128,-1,8
 457 1001 457 1001 457 933 c 0,9,10
 457 848 457 848 560 822 c 1,11,-1
 615 1100 l 1,6,7
343 -302 m 1,12,-1
 401 0 l 1,13,14
 234 3 234 3 41 91 c 1,15,-1
 91 353 l 1,16,17
 181 295 181 295 268.5 261 c 128,-1,18
 356 227 356 227 444 224 c 1,19,-1
 512 570 l 1,20,21
 200 645 200 645 200 900 c 0,22,23
 200 1072 200 1072 326 1195 c 0,24,25
 457 1317 457 1317 658 1321 c 1,26,-1
 706 1558 l 1,27,-1
 848 1558 l 1,28,-1
 800 1321 l 1,29,30
 872 1317 872 1317 943 1303 c 128,-1,31
 1014 1289 1014 1289 1092 1263 c 1,32,-1
 1042 1014 l 1,33,34
 984 1052 984 1052 911 1074.5 c 128,-1,35
 838 1097 838 1097 761 1104 c 1,36,-1
 696 784 l 1,37,38
 1029 696 1029 696 1029 437 c 0,39,40
 1029 255 1029 255 896 136 c 0,41,42
 771 17 771 17 543 0 c 1,43,-1
 486 -302 l 1,44,-1
 343 -302 l 1,12,-1
EndSplineSet
EndChar
StartChar: percent
Encoding: 37 37 8
Width: 1234
VWidth: 3393
Flags: W
HStem: 0 184<801.409 996.592> 457 184<801.316 996.746> 794 184<253.044 450.294> 1249 183<253.044 448.412>
VStem: 33 181<1013.04 1211.33> 489 184<1014.49 1210.61> 580 184<219.003 421.179> 1039 182<219.641 418.693>
Fore
33 1114 m 256,0,1
 33 1249 33 1249 126 1341 c 256,2,3
 217 1432 217 1432 353 1432 c 0,4,5
 486 1432 486 1432 580 1341 c 0,6,7
 673 1246 673 1246 673 1114 c 0,8,9
 673 984 673 984 580 886 c 0,10,11
 486 794 486 794 353 794 c 0,12,13
 217 794 217 794 126 886 c 256,14,15
 33 978 33 978 33 1114 c 256,0,1
353 1249 m 0,16,17
 292 1249 292 1249 255 1211 c 0,18,19
 214 1171 214 1171 214 1114 c 256,20,21
 214 1056 214 1056 255 1014 c 0,22,23
 292 978 292 978 353 978 c 256,24,25
 414 978 414 978 447 1014 c 0,26,27
 489 1056 489 1056 489 1114 c 256,28,29
 489 1171 489 1171 447 1211 c 0,30,31
 411 1249 411 1249 353 1249 c 0,16,17
1130 981 m 1,32,-1
 1171 882 l 1,33,-1
 123 466 l 1,34,-1
 85 560 l 1,35,-1
 1130 981 l 1,32,-1
580 320 m 256,36,37
 580 454 580 454 673 547 c 0,38,39
 774 641 774 641 900 641 c 256,40,41
 1024 641 1024 641 1127 547 c 0,42,43
 1221 444 1221 444 1221 320 c 256,44,45
 1221 194 1221 194 1127 91 c 0,46,47
 1032 0 1032 0 900 0 c 0,48,49
 771 0 771 0 673 91 c 0,50,51
 580 184 580 184 580 320 c 256,36,37
900 457 m 256,52,53
 842 457 842 457 800 418 c 0,54,55
 764 373 764 373 764 320 c 256,56,57
 764 265 764 265 800 220 c 1,58,59
 845 184 845 184 900 184 c 256,60,61
 953 184 953 184 998 220 c 1,62,63
 1039 268 1039 268 1039 320 c 256,64,65
 1039 370 1039 370 998 418 c 0,66,67
 958 457 958 457 900 457 c 256,52,53
EndSplineSet
EndChar
StartChar: ampersand
Encoding: 38 38 9
Width: 1234
VWidth: 3393
Flags: W
HStem: -30 237<343.454 620.791> 1296 225<621.942 960.982>
VStem: -33 285<299.622 567.747> 298 289<996.358 1259.16> 981 234<504.418 747>
Fore
739 71 m 1,0,1
 567 -30 567 -30 386 -30 c 0,2,3
 197 -30 197 -30 81 78 c 0,4,5
 -33 184 -33 184 -33 360 c 0,6,7
 -33 522 -33 522 64.5 664.5 c 128,-1,8
 162 807 162 807 350 913 c 1,9,10
 298 1032 298 1032 298 1120 c 0,11,12
 298 1299 298 1299 434 1412 c 0,13,14
 570 1521 570 1521 797 1521 c 0,15,16
 940 1521 940 1521 1065 1480 c 1,17,-1
 1017 1221 l 1,18,19
 900 1296 900 1296 771 1296 c 0,20,21
 587 1296 587 1296 587 1157 c 0,22,23
 587 1089 587 1089 664 920 c 2,24,-1
 886 441 l 1,25,26
 971 557 971 557 981 747 c 1,27,-1
 1215 747 l 1,28,29
 1195 428 1195 428 978 249 c 1,30,-1
 1092 0 l 1,31,-1
 774 0 l 1,32,-1
 739 71 l 1,0,1
437 732 m 1,33,34
 252 625 252 625 252 437 c 0,35,36
 252 346 252 346 315 275 c 0,37,38
 383 207 383 207 476 207 c 256,39,40
 567 207 567 207 655 262 c 1,41,-1
 437 732 l 1,33,34
EndSplineSet
EndChar
StartChar: quotesingle
Encoding: 39 39 10
Width: 1234
VWidth: 3393
Flags: W
HStem: 1473 20G<489 744>
VStem: 489 255<940 1493>
Fore
744 940 m 1,0,-1
 489 940 l 1,1,-1
 489 1493 l 1,2,-1
 744 1493 l 1,3,-1
 744 940 l 1,0,-1
EndSplineSet
EndChar
StartChar: parenleft
Encoding: 40 40 11
Width: 1234
VWidth: 3393
Flags: W
VStem: 340 275<63.694 699.98>
Fore
1079 1554 m 1,0,1
 615 930 615 930 615 346 c 0,2,3
 615 204 615 204 641.5 51.5 c 128,-1,4
 668 -101 668 -101 726 -272 c 1,5,-1
 502 -272 l 1,6,7
 418 -98 418 -98 379 66 c 128,-1,8
 340 230 340 230 340 394 c 0,9,10
 340 978 340 978 855 1554 c 1,11,-1
 1079 1554 l 1,0,1
EndSplineSet
EndChar
StartChar: parenright
Encoding: 41 41 12
Width: 1234
VWidth: 3393
Flags: W
VStem: 580 275<586.752 1232.79>
Fore
113 -272 m 1,0,1
 580 356 580 356 580 940 c 0,2,3
 580 1225 580 1225 469 1554 c 1,4,-1
 693 1554 l 1,5,6
 855 1215 855 1215 855 893 c 0,7,8
 855 312 855 312 340 -272 c 1,9,-1
 113 -272 l 1,0,1
EndSplineSet
EndChar
StartChar: asterisk
Encoding: 42 42 13
Width: 1234
VWidth: 3393
Flags: W
HStem: 1501 20G<529 703>
VStem: 529 174<570 913 1178 1521>
Fore
780 1046 m 1,0,-1
 1110 872 l 1,1,-1
 1032 729 l 1,2,-1
 703 913 l 1,3,-1
 703 570 l 1,4,-1
 529 570 l 1,5,-1
 529 913 l 1,6,-1
 197 729 l 1,7,-1
 123 872 l 1,8,-1
 454 1046 l 1,9,-1
 123 1218 l 1,10,-1
 197 1360 l 1,11,-1
 529 1178 l 1,12,-1
 529 1521 l 1,13,-1
 703 1521 l 1,14,-1
 703 1178 l 1,15,-1
 1032 1360 l 1,16,-1
 1110 1218 l 1,17,-1
 780 1046 l 1,0,-1
EndSplineSet
EndChar
StartChar: plus
Encoding: 43 43 14
Width: 1234
VWidth: 3393
Flags: W
HStem: 525 239<65 499 736 1168>
VStem: 499 237<91 525 764 1195>
Fore
736 764 m 1,0,-1
 1168 764 l 1,1,-1
 1168 525 l 1,2,-1
 736 525 l 1,3,-1
 736 91 l 1,4,-1
 499 91 l 1,5,-1
 499 525 l 1,6,-1
 65 525 l 1,7,-1
 65 764 l 1,8,-1
 499 764 l 1,9,-1
 499 1195 l 1,10,-1
 736 1195 l 1,11,-1
 736 764 l 1,0,-1
EndSplineSet
EndChar
StartChar: comma
Encoding: 44 44 15
Width: 1234
VWidth: 3393
Flags: W
HStem: -288 654<424 751>
VStem: 210 541<-288 366>
Fore
751 366 m 1,0,-1
 696 94 l 1,1,-1
 424 -288 l 1,2,-1
 210 -288 l 1,3,-1
 379 94 l 1,4,-1
 434 366 l 1,5,-1
 751 366 l 1,0,-1
EndSplineSet
EndChar
StartChar: hyphen
Encoding: 45 45 16
Width: 1234
VWidth: 3393
Flags: W
HStem: 444 292<298 872>
VStem: 244 686<444 736>
Fore
930 736 m 1,0,-1
 872 444 l 1,1,-1
 244 444 l 1,2,-1
 298 736 l 1,3,-1
 930 736 l 1,0,-1
EndSplineSet
EndChar
StartChar: period
Encoding: 46 46 17
Width: 1234
VWidth: 3393
Flags: W
HStem: 0 366<418 683>
VStem: 350 404<0 366>
Fore
754 366 m 1,0,-1
 683 0 l 1,1,-1
 350 0 l 1,2,-1
 418 366 l 1,3,-1
 754 366 l 1,0,-1
EndSplineSet
EndChar
StartChar: slash
Encoding: 47 47 18
Width: 1234
VWidth: 3393
Flags: W
HStem: 1473 20G<841.881 1075>
Fore
1075 1493 m 1,0,-1
 220 -191 l 1,1,-1
 0 -191 l 1,2,-1
 852 1493 l 1,3,-1
 1075 1493 l 1,0,-1
EndSplineSet
EndChar
StartChar: zero
Encoding: 48 48 19
Width: 1234
VWidth: 3393
Flags: W
HStem: -30 250<428.127 632.165> 621 251<526.191 704.594> 1273 248<597.389 804.15>
VStem: 91 292<262.552 774.107> 489 255<659.191 833.81> 848 295<724.965 1230.92>
Fore
489 747 m 256,0,1
 489 797 489 797 525 835 c 256,2,3
 563 872 563 872 615 872 c 0,4,5
 661 872 661 872 706 835 c 0,6,7
 744 797 744 797 744 747 c 256,8,9
 744 696 744 696 706 658 c 0,10,11
 661 621 661 621 615 621 c 0,12,13
 563 621 563 621 525 658 c 256,14,15
 489 696 489 696 489 747 c 256,0,1
383 441 m 0,16,17
 383 220 383 220 522 220 c 0,18,19
 655 220 655 220 729 424 c 0,20,21
 757 502 757 502 777 581.5 c 128,-1,22
 797 661 797 661 815 751 c 0,23,24
 848 916 848 916 848 1052 c 0,25,26
 848 1273 848 1273 713 1273 c 0,27,28
 573 1273 573 1273 502 1069 c 0,29,30
 476 994 476 994 453.5 913 c 128,-1,31
 431 832 431 832 414 744 c 0,32,33
 383 570 383 570 383 441 c 0,16,17
1143 1072 m 0,34,35
 1143 862 1143 862 1092 638 c 256,36,37
 1042 414 1042 414 958 262 c 0,38,39
 886 126 886 126 764 48 c 0,40,41
 638 -30 638 -30 499 -30 c 0,42,43
 305 -30 305 -30 197 88 c 0,44,45
 91 207 91 207 91 421 c 0,46,47
 91 625 91 625 139 852 c 0,48,49
 166 964 166 964 200 1058.5 c 128,-1,50
 234 1153 234 1153 275 1231 c 0,51,52
 350 1370 350 1370 469 1445 c 256,53,54
 587 1521 587 1521 732 1521 c 0,55,56
 930 1521 930 1521 1036 1402 c 0,57,58
 1143 1289 1143 1289 1143 1072 c 0,34,35
EndSplineSet
EndChar
StartChar: one
Encoding: 49 49 20
Width: 1234
VWidth: 3393
Flags: W
HStem: 0 262<94 424 713 971> 1473 20G<576.451 949>
VStem: 45 976<0 262>
Fore
424 262 m 1,0,-1
 615 1231 l 1,1,-1
 292 1153 l 1,2,-1
 343 1422 l 1,3,-1
 668 1493 l 1,4,-1
 949 1493 l 1,5,-1
 713 262 l 1,6,-1
 1021 262 l 1,7,-1
 971 0 l 1,8,-1
 45 0 l 1,9,-1
 94 262 l 1,10,-1
 424 262 l 1,0,-1
EndSplineSet
EndChar
StartChar: two
Encoding: 50 50 21
Width: 1234
VWidth: 3393
Flags: W
HStem: 0 262<353 920> 1289 232<403.96 788.037>
VStem: 845 292<1017.36 1237.74>
Fore
971 262 m 1,0,-1
 920 0 l 1,1,-1
 -30 0 l 1,2,-1
 20 252 l 1,3,-1
 298 502 l 2,4,5
 326 525 326 525 360 556 c 128,-1,6
 394 587 394 587 441 628 c 0,7,8
 845 984 845 984 845 1137 c 0,9,10
 845 1208 845 1208 788.5 1248.5 c 128,-1,11
 732 1289 732 1289 635 1289 c 0,12,13
 469 1289 469 1289 224 1171 c 1,14,-1
 275 1438 l 1,15,16
 495 1521 495 1521 703 1521 c 0,17,18
 896 1521 896 1521 1014 1425 c 0,19,20
 1137 1334 1137 1334 1137 1181 c 0,21,22
 1137 930 1137 930 683 543 c 2,23,-1
 641 509 l 1,24,-1
 353 262 l 1,25,-1
 971 262 l 1,0,-1
EndSplineSet
EndChar
StartChar: three
Encoding: 51 51 22
Width: 1234
VWidth: 3393
Flags: W
HStem: -30 250<226.304 637.437> 668 262<408 676.862> 1273 248<444.998 789>
VStem: 751 281<325.618 600.198> 845 275<1014.07 1222.89>
Fore
356 668 m 1,0,-1
 408 930 l 1,1,-1
 567 930 l 2,2,3
 693 930 693 930 767 984 c 0,4,5
 845 1042 845 1042 845 1127 c 0,6,7
 845 1195 845 1195 787 1234 c 128,-1,8
 729 1273 729 1273 625 1273 c 0,9,10
 540 1273 540 1273 441.5 1250.5 c 128,-1,11
 343 1228 343 1228 230 1188 c 1,12,-1
 285 1460 l 1,13,14
 495 1521 495 1521 673 1521 c 0,15,16
 878 1521 878 1521 998 1425 c 0,17,18
 1120 1331 1120 1331 1120 1168 c 0,19,20
 1120 1029 1120 1029 1024 930 c 0,21,22
 936 835 936 835 764 804 c 1,23,24
 1032 732 1032 732 1032 476 c 0,25,26
 1032 240 1032 240 865 109 c 0,27,28
 699 -30 699 -30 421 -30 c 0,29,30
 320 -30 320 -30 205.5 -11.5 c 128,-1,31
 91 7 91 7 -30 45 c 1,32,-1
 23 315 l 1,33,34
 224 220 224 220 434 220 c 0,35,36
 751 220 751 220 751 489 c 0,37,38
 751 573 751 573 686 618 c 0,39,40
 621 668 621 668 515 668 c 2,41,-1
 356 668 l 1,0,-1
EndSplineSet
EndChar
StartChar: four
Encoding: 52 52 23
Width: 1234
VWidth: 3393
Flags: W
HStem: 0 21G<550 835.777> 323 254<288 615 943 1059> 1473 20G<793.39 1120>
Fore
288 577 m 1,0,-1
 661 577 l 1,1,-1
 774 1153 l 1,2,-1
 288 577 l 1,0,-1
1120 1493 m 1,3,-1
 943 577 l 1,4,-1
 1107 577 l 1,5,-1
 1059 323 l 1,6,-1
 893 323 l 1,7,-1
 832 0 l 1,8,-1
 550 0 l 1,9,-1
 615 323 l 1,10,-1
 17 323 l 1,11,-1
 75 608 l 1,12,-1
 810 1493 l 1,13,-1
 1120 1493 l 1,3,-1
EndSplineSet
EndChar
StartChar: five
Encoding: 53 53 24
Width: 1234
VWidth: 3393
Flags: W
HStem: -30 250<203.408 611.814> 736 245<477.021 674.853> 1234 259<529 1104>
VStem: 764 288<358.654 648.921>
Fore
1153 1493 m 1,0,-1
 1104 1234 l 1,1,-1
 529 1234 l 1,2,-1
 476 958 l 1,3,4
 537 981 537 981 621 981 c 0,5,6
 822 981 822 981 936 865 c 256,7,8
 1052 751 1052 751 1052 553 c 0,9,10
 1052 282 1052 282 875 126 c 0,11,12
 689 -30 689 -30 386 -30 c 0,13,14
 292 -30 292 -30 196.5 -13.5 c 128,-1,15
 101 3 101 3 7 33 c 1,16,-1
 58 302 l 1,17,18
 197 220 197 220 394 220 c 0,19,20
 567 220 567 220 664 298 c 256,21,22
 764 376 764 376 764 512 c 0,23,24
 764 618 764 618 694.5 677 c 128,-1,25
 625 736 625 736 502 736 c 0,26,27
 336 736 336 736 181 658 c 1,28,-1
 340 1493 l 1,29,-1
 1153 1493 l 1,0,-1
EndSplineSet
EndChar
StartChar: six
Encoding: 54 54 25
Width: 1234
VWidth: 3393
Flags: W
HStem: -33 240<440.04 676.41> 751 237<542.857 749.216> 1283 238<667.392 1037.49>
VStem: 94 289<261.206 598.112> 804 288<358.325 695.628>
Fore
804 557 m 0,0,1
 804 645 804 645 758.5 698 c 128,-1,2
 713 751 713 751 635 751 c 0,3,4
 529 751 529 751 457 648 c 0,5,6
 383 550 383 550 383 401 c 0,7,8
 383 312 383 312 427.5 259.5 c 128,-1,9
 472 207 472 207 550 207 c 0,10,11
 658 207 658 207 729 308 c 0,12,13
 804 404 804 404 804 557 c 0,0,1
1120 1191 m 1,14,15
 991 1283 991 1283 848 1283 c 0,16,17
 689 1283 689 1283 584 1174 c 128,-1,18
 479 1065 479 1065 431 855 c 1,19,20
 550 988 550 988 732 988 c 0,21,22
 896 988 896 988 998 875 c 0,23,24
 1092 767 1092 767 1092 570 c 0,25,26
 1092 312 1092 312 940 139 c 0,27,28
 784 -33 784 -33 553 -33 c 0,29,30
 94 -33 94 -33 94 469 c 0,31,32
 94 686 94 686 156 893 c 0,33,34
 217 1092 217 1092 326 1249 c 0,35,36
 525 1521 525 1521 890 1521 c 0,37,38
 1017 1521 1017 1521 1171 1460 c 1,39,-1
 1120 1191 l 1,14,15
EndSplineSet
EndChar
StartChar: seven
Encoding: 55 55 26
Width: 1234
VWidth: 3393
Flags: W
HStem: 0 21G<109 439.773> 1234 259<262 845>
Fore
1225 1493 m 1,0,-1
 1185 1286 l 1,1,-1
 428 0 l 1,2,-1
 109 0 l 1,3,-1
 845 1234 l 1,4,-1
 210 1234 l 1,5,-1
 262 1493 l 1,6,-1
 1225 1493 l 1,0,-1
EndSplineSet
EndChar
StartChar: eight
Encoding: 56 56 27
Width: 1234
VWidth: 3393
Flags: W
HStem: -30 240<387.896 672.613> 668 235<530.506 719.658> 1286 235<570.927 830.279>
VStem: 65 261<271.905 557.844> 224 262<949.751 1202.78> 780 262<320.972 607.978> 878 259<985.815 1237.58>
Fore
780 479 m 0,0,1
 780 567 780 567 726.5 617.5 c 128,-1,2
 673 668 673 668 580 668 c 0,3,4
 469 668 469 668 398 593 c 256,5,6
 326 519 326 519 326 401 c 0,7,8
 326 312 326 312 379 262 c 0,9,10
 437 210 437 210 529 210 c 0,11,12
 638 210 638 210 709 285 c 0,13,14
 780 366 780 366 780 479 c 0,0,1
434 800 m 1,15,16
 224 852 224 852 224 1079 c 0,17,18
 224 1259 224 1259 370 1392 c 0,19,20
 512 1521 512 1521 732 1521 c 0,21,22
 916 1521 916 1521 1024 1422 c 0,23,24
 1137 1327 1137 1327 1137 1163 c 0,25,26
 1137 1011 1137 1011 1049 913 c 0,27,28
 964 815 964 815 810 787 c 1,29,30
 920 757 920 757 981 673.5 c 128,-1,31
 1042 590 1042 590 1042 466 c 0,32,33
 1042 249 1042 249 893 109 c 256,34,35
 744 -30 744 -30 505 -30 c 0,36,37
 292 -30 292 -30 181 71 c 0,38,39
 65 166 65 166 65 350 c 0,40,41
 65 525 65 525 162 638 c 0,42,43
 258 761 258 761 434 800 c 1,15,16
486 1069 m 0,44,45
 486 1001 486 1001 529 949 c 0,46,47
 577 903 577 903 648 903 c 0,48,49
 751 903 751 903 815 964 c 0,50,51
 878 1029 878 1029 878 1117 c 0,52,53
 878 1195 878 1195 832.5 1240.5 c 128,-1,54
 787 1286 787 1286 703 1286 c 0,55,56
 611 1286 611 1286 547 1221 c 0,57,58
 486 1160 486 1160 486 1069 c 0,44,45
EndSplineSet
EndChar
StartChar: nine
Encoding: 57 57 28
Width: 1234
VWidth: 3393
Flags: W
HStem: -30 237<179.728 559.495> 502 237<474.856 683.396> 1283 238<548.777 785.929>
VStem: 136 288<790.779 1135.14> 842 288<885.597 1226.43>
Fore
104 298 m 1,0,1
 227 207 227 207 379 207 c 0,2,3
 699 207 699 207 797 635 c 1,4,5
 676 502 676 502 495 502 c 0,6,7
 330 502 330 502 230 615 c 0,8,9
 136 722 136 722 136 920 c 0,10,11
 136 1178 136 1178 288 1350 c 0,12,13
 437 1521 437 1521 676 1521 c 0,14,15
 1130 1521 1130 1521 1130 1017 c 0,16,17
 1130 804 1130 804 1069 593 c 0,18,19
 1007 394 1007 394 900 237 c 0,20,21
 706 -30 706 -30 340 -30 c 0,22,23
 207 -30 207 -30 55 30 c 1,24,-1
 104 298 l 1,0,1
424 930 m 0,25,26
 424 842 424 842 468 790.5 c 128,-1,27
 512 739 512 739 590 739 c 0,28,29
 696 739 696 739 771 842 c 0,30,31
 842 940 842 940 842 1085 c 0,32,33
 842 1175 842 1175 798 1229 c 128,-1,34
 754 1283 754 1283 676 1283 c 0,35,36
 567 1283 567 1283 495 1181 c 256,37,38
 424 1079 424 1079 424 930 c 0,25,26
EndSplineSet
EndChar
StartChar: colon
Encoding: 58 58 29
Width: 1234
VWidth: 3393
Flags: W
HStem: 0 366<376 641> 699 366<509 774>
VStem: 305 540<0 1065>
Fore
845 1065 m 1,0,-1
 774 699 l 1,1,-1
 437 699 l 1,2,-1
 509 1065 l 1,3,-1
 845 1065 l 1,0,-1
709 366 m 1,4,-1
 641 0 l 1,5,-1
 305 0 l 1,6,-1
 376 366 l 1,7,-1
 709 366 l 1,4,-1
EndSplineSet
EndChar
StartChar: semicolon
Encoding: 59 59 30
Width: 1234
VWidth: 3393
Flags: W
HStem: 699 366<509 774>
VStem: 169 676<-288 1065>
Fore
709 366 m 1,0,-1
 655 94 l 1,1,-1
 386 -288 l 1,2,-1
 169 -288 l 1,3,-1
 323 94 l 1,4,-1
 376 366 l 1,5,-1
 709 366 l 1,0,-1
845 1065 m 1,6,-1
 774 699 l 1,7,-1
 437 699 l 1,8,-1
 509 1065 l 1,9,-1
 845 1065 l 1,6,-1
EndSplineSet
EndChar
StartChar: less
Encoding: 60 60 31
Width: 1234
VWidth: 3393
Flags: W
Fore
350 641 m 1,0,-1
 1147 360 l 1,1,-1
 1147 109 l 1,2,-1
 88 525 l 1,3,-1
 88 761 l 1,4,-1
 1147 1178 l 1,5,-1
 1147 926 l 1,6,-1
 350 641 l 1,0,-1
EndSplineSet
EndChar
StartChar: equal
Encoding: 61 61 32
Width: 1234
VWidth: 3393
Flags: W
HStem: 295 239<88 1147> 754 234<88 1147>
Fore
1147 534 m 1,0,-1
 1147 295 l 1,1,-1
 88 295 l 1,2,-1
 88 534 l 1,3,-1
 1147 534 l 1,0,-1
1147 988 m 1,4,-1
 1147 754 l 1,5,-1
 88 754 l 1,6,-1
 88 988 l 1,7,-1
 1147 988 l 1,4,-1
EndSplineSet
EndChar
StartChar: greater
Encoding: 62 62 33
Width: 1234
VWidth: 3393
Flags: W
Fore
88 1178 m 1,0,-1
 1147 761 l 1,1,-1
 1147 525 l 1,2,-1
 88 109 l 1,3,-1
 88 360 l 1,4,-1
 882 641 l 1,5,-1
 88 926 l 1,6,-1
 88 1178 l 1,0,-1
EndSplineSet
EndChar
StartChar: question
Encoding: 63 63 34
Width: 1234
VWidth: 3393
Flags: W
HStem: 0 282<346 557> 1286 235<515.027 835.664>
Fore
615 282 m 1,0,-1
 557 0 l 1,1,-1
 292 0 l 1,2,-1
 346 282 l 1,3,-1
 615 282 l 1,0,-1
370 401 m 1,4,-1
 401 557 l 2,5,6
 414 651 414 651 462 722 c 0,7,8
 512 800 512 800 597 872 c 2,9,-1
 706 968 l 1,10,-1
 713 974 l 2,11,12
 858 1100 858 1100 858 1168 c 0,13,14
 858 1286 858 1286 716 1286 c 0,15,16
 547 1286 547 1286 305 1140 c 1,17,-1
 360 1408 l 1,18,19
 563 1521 563 1521 780 1521 c 0,20,21
 946 1521 946 1521 1042 1438 c 0,22,23
 1143 1357 1143 1357 1143 1221 c 0,24,25
 1143 1127 1143 1127 1092 1046 c 0,26,27
 1042 958 1042 958 926 862 c 2,28,-1
 822 777 l 1,29,-1
 815 771 l 2,30,31
 689 664 689 664 658 525 c 2,32,-1
 635 401 l 1,33,-1
 370 401 l 1,4,-1
EndSplineSet
EndChar
StartChar: at
Encoding: 64 64 35
Width: 1234
VWidth: 3393
Flags: W
HStem: -320 187<417.334 823.76> 116 186<612.466 822.336> 787 187<690.195 928.881> 1208 191<606.042 958.406>
VStem: -13 194<126.459 680.342> 370 200<348.255 654.452> 1032 199<949.59 1136.16>
Fore
722 302 m 0,0,1
 828 302 828 302 900 394 c 256,2,3
 971 486 971 486 971 621 c 0,4,5
 971 699 971 699 930.5 743 c 128,-1,6
 890 787 890 787 819 787 c 0,7,8
 719 787 719 787 641 696 c 0,9,10
 570 605 570 605 570 479 c 0,11,12
 570 394 570 394 610.5 348 c 128,-1,13
 651 302 651 302 722 302 c 0,0,1
872 136 m 1,14,-1
 890 217 l 1,15,16
 797 116 797 116 673 116 c 0,17,18
 529 116 529 116 451 204 c 0,19,20
 370 292 370 292 370 444 c 0,21,22
 370 664 370 664 499 822 c 0,23,24
 628 974 628 974 810 974 c 0,25,26
 958 974 958 974 1014 878 c 1,27,28
 1024 916 1024 916 1028 948.5 c 128,-1,29
 1032 981 1032 981 1032 1007 c 0,30,31
 1032 1100 1032 1100 971 1154 c 128,-1,32
 910 1208 910 1208 804 1208 c 0,33,34
 679 1208 679 1208 566.5 1143.5 c 128,-1,35
 454 1079 454 1079 366 961 c 0,36,37
 275 838 275 838 228 690.5 c 128,-1,38
 181 543 181 543 181 386 c 0,39,40
 181 146 181 146 295 7 c 0,41,42
 418 -133 418 -133 615 -133 c 0,43,44
 771 -133 771 -133 936 -33 c 1,45,-1
 1001 -210 l 1,46,47
 794 -320 794 -320 608 -320 c 0,48,49
 323 -320 323 -320 152 -129 c 0,50,51
 -13 61 -13 61 -13 386 c 0,52,53
 -13 722 -13 722 159 1004 c 0,54,55
 268 1188 268 1188 441 1292 c 256,56,57
 615 1399 615 1399 800 1399 c 256,58,59
 988 1399 988 1399 1114 1292 c 0,60,61
 1231 1191 1231 1191 1231 1021 c 0,62,63
 1231 971 1231 971 1215 893 c 2,64,-1
 1069 136 l 1,65,-1
 872 136 l 1,14,-1
EndSplineSet
EndChar
StartChar: A
Encoding: 65 65 36
Width: 1234
VWidth: 3393
Flags: W
HStem: 0 21G<-113 195.811 763.297 1056> 370 245<454 736> 1473 20G<573.677 944.514>
Fore
454 615 m 1,0,-1
 736 615 l 1,1,-1
 719 1221 l 1,2,-1
 454 615 l 1,0,-1
943 1493 m 1,3,-1
 1056 0 l 1,4,-1
 764 0 l 1,5,-1
 751 370 l 1,6,-1
 350 370 l 1,7,-1
 187 0 l 1,8,-1
 -113 0 l 1,9,-1
 583 1493 l 1,10,-1
 943 1493 l 1,3,-1
EndSplineSet
EndChar
StartChar: B
Encoding: 66 66 37
Width: 1234
VWidth: 3393
Flags: W
HStem: 0 237<312 700.872> 679 234<441 755.75> 1263 233<509 842.298>
VStem: 810 297<341.607 627.49> 882 299<985.142 1228.18>
Fore
312 237 m 1,0,-1
 509 237 l 2,1,2
 810 237 810 237 810 509 c 0,3,4
 810 679 810 679 593 679 c 2,5,-1
 398 679 l 1,6,-1
 312 237 l 1,0,-1
441 913 m 1,7,-1
 641 913 l 2,8,9
 882 913 882 913 882 1130 c 0,10,11
 882 1263 882 1263 709 1263 c 2,12,-1
 509 1263 l 1,13,-1
 441 913 l 1,7,-1
754 1496 m 2,14,15
 1181 1496 1181 1496 1181 1168 c 0,16,17
 1181 1004 1181 1004 1086 905.5 c 128,-1,18
 991 807 991 807 815 787 c 1,19,20
 953 774 953 774 1030 696 c 128,-1,21
 1107 618 1107 618 1107 486 c 0,22,23
 1107 376 1107 376 1069.5 283.5 c 128,-1,24
 1032 191 1032 191 961 126 c 0,25,26
 893 61 893 61 771 30 c 0,27,28
 658 0 658 0 462 0 c 2,29,-1
 -20 0 l 1,30,-1
 272 1496 l 1,31,-1
 754 1496 l 2,14,15
EndSplineSet
EndChar
StartChar: C
Encoding: 67 67 38
Width: 1234
VWidth: 3393
Flags: W
HStem: -30 260<529.061 845.17> 1120 21G<1106.5 1160.9> 1259 262<725.39 1053.15>
VStem: 133 298<332.823 732.904>
Fore
946 45 m 1,0,1
 787 -30 787 -30 625 -30 c 0,2,3
 383 -30 383 -30 258 107 c 128,-1,4
 133 244 133 244 133 505 c 0,5,6
 133 621 133 621 147.5 731.5 c 128,-1,7
 162 842 162 842 200 946 c 0,8,9
 272 1157 272 1157 394 1296 c 0,10,11
 492 1408 492 1408 621.5 1464.5 c 128,-1,12
 751 1521 751 1521 903 1521 c 0,13,14
 1065 1521 1065 1521 1221 1448 c 1,15,-1
 1157 1120 l 1,16,17
 1056 1259 1056 1259 872 1259 c 0,18,19
 794 1259 794 1259 717.5 1209.5 c 128,-1,20
 641 1160 641 1160 583 1075 c 0,21,22
 515 968 515 968 472 819 c 0,23,24
 431 673 431 673 431 534 c 0,25,26
 431 383 431 383 494 306.5 c 128,-1,27
 557 230 557 230 676 230 c 0,28,29
 757 230 757 230 836.5 264 c 128,-1,30
 916 298 916 298 1011 370 c 1,31,-1
 946 45 l 1,0,1
EndSplineSet
EndChar
StartChar: D
Encoding: 68 68 39
Width: 1234
VWidth: 3393
Flags: W
HStem: 0 265<340 622> 1228 265<525 761.497>
VStem: 862 306<872.25 1132.99>
Fore
340 265 m 1,0,-1
 434 265 l 2,1,2
 655 265 655 265 744 441 c 0,3,4
 797 543 797 543 828 696 c 0,5,6
 845 771 845 771 853.5 837 c 128,-1,7
 862 903 862 903 862 968 c 0,8,9
 862 1228 862 1228 608 1228 c 2,10,-1
 525 1228 l 1,11,-1
 340 265 l 1,0,-1
597 1493 m 2,12,13
 1168 1493 1168 1493 1168 1001 c 0,14,15
 1168 913 1168 913 1152.5 814.5 c 128,-1,16
 1137 716 1137 716 1110 605 c 0,17,18
 1072 451 1072 451 1021.5 345.5 c 128,-1,19
 971 240 971 240 900 172 c 0,20,21
 800 81 800 81 673 41 c 0,22,23
 547 0 547 0 323 0 c 2,24,-1
 -7 0 l 1,25,-1
 282 1493 l 1,26,-1
 597 1493 l 2,12,13
EndSplineSet
EndChar
StartChar: E
Encoding: 69 69 40
Width: 1234
VWidth: 3393
Flags: W
HStem: 0 262<376 961> 651 262<502 1029> 1234 259<563 1198>
Fore
30 0 m 1,0,-1
 320 1493 l 1,1,-1
 1249 1493 l 1,2,-1
 1198 1234 l 1,3,-1
 563 1234 l 1,4,-1
 502 913 l 1,5,-1
 1075 913 l 1,6,-1
 1029 651 l 1,7,-1
 451 651 l 1,8,-1
 376 262 l 1,9,-1
 1011 262 l 1,10,-1
 961 0 l 1,11,-1
 30 0 l 1,0,-1
EndSplineSet
EndChar
StartChar: F
Encoding: 70 70 41
Width: 1234
VWidth: 3393
Flags: W
HStem: 0 21G<48 346.871> 651 262<519 1049> 1234 259<583 1218>
Fore
583 1234 m 1,0,-1
 519 913 l 1,1,-1
 1100 913 l 1,2,-1
 1049 651 l 1,3,-1
 469 651 l 1,4,-1
 343 0 l 1,5,-1
 48 0 l 1,6,-1
 340 1493 l 1,7,-1
 1269 1493 l 1,8,-1
 1218 1234 l 1,9,-1
 583 1234 l 1,0,-1
EndSplineSet
EndChar
StartChar: G
Encoding: 71 71 42
Width: 1234
VWidth: 3393
Flags: W
HStem: -30 260<503.078 769.287> 557 247<673 828> 1120 21G<1075.5 1131.15> 1259 262<695.339 1023.85>
VStem: 101 303<336.448 729.638>
Fore
991 94 m 1,0,1
 848 -30 848 -30 611 -30 c 256,2,3
 373 -30 373 -30 234 116 c 0,4,5
 101 265 101 265 101 525 c 0,6,7
 101 744 101 744 172 949 c 0,8,9
 252 1160 252 1160 366 1296 c 0,10,11
 570 1521 570 1521 878 1521 c 0,12,13
 1039 1521 1039 1521 1195 1448 c 1,14,-1
 1127 1120 l 1,15,16
 1024 1259 1024 1259 858 1259 c 0,17,18
 713 1259 713 1259 605 1143 c 0,19,20
 519 1042 519 1042 469 893 c 0,21,22
 437 794 437 794 420.5 702.5 c 128,-1,23
 404 611 404 611 404 534 c 0,24,25
 404 386 404 386 466.5 308 c 128,-1,26
 529 230 529 230 648 230 c 0,27,28
 719 230 719 230 771 265 c 1,29,-1
 828 557 l 1,30,-1
 621 557 l 1,31,-1
 673 804 l 1,32,-1
 1130 804 l 1,33,-1
 991 94 l 1,0,1
EndSplineSet
EndChar
StartChar: H
Encoding: 72 72 43
Width: 1234
VWidth: 3393
Flags: W
HStem: 0 21G<-7 291.916 655 952.938> 664 262<469 784> 1473 20G<278.129 580 942.19 1243>
Fore
580 1493 m 1,0,-1
 469 926 l 1,1,-1
 838 926 l 1,2,-1
 946 1493 l 1,3,-1
 1243 1493 l 1,4,-1
 949 0 l 1,5,-1
 655 0 l 1,6,-1
 784 664 l 1,7,-1
 418 664 l 1,8,-1
 288 0 l 1,9,-1
 -7 0 l 1,10,-1
 282 1493 l 1,11,-1
 580 1493 l 1,0,-1
EndSplineSet
EndChar
StartChar: I
Encoding: 73 73 44
Width: 1234
VWidth: 3393
Flags: W
HStem: 0 262<78 376 673 916> 1234 259<320 563 858 1157>
Fore
320 1493 m 1,0,-1
 1208 1493 l 1,1,-1
 1157 1234 l 1,2,-1
 858 1234 l 1,3,-1
 673 262 l 1,4,-1
 968 262 l 1,5,-1
 916 0 l 1,6,-1
 27 0 l 1,7,-1
 78 262 l 1,8,-1
 376 262 l 1,9,-1
 563 1234 l 1,10,-1
 265 1234 l 1,11,-1
 320 1493 l 1,0,-1
EndSplineSet
EndChar
StartChar: J
Encoding: 74 74 45
Width: 1234
VWidth: 3393
Flags: W
HStem: -30 260<220.046 564.693> 1234 259<499 807>
Fore
45 421 m 1,0,1
 204 230 204 230 404 230 c 0,2,3
 522 230 522 230 577 285 c 0,4,5
 635 343 635 343 658 479 c 2,6,-1
 807 1234 l 1,7,-1
 447 1234 l 1,8,-1
 499 1493 l 1,9,-1
 1153 1493 l 1,10,-1
 953 479 l 2,11,12
 923 312 923 312 882 224 c 0,13,14
 842 139 842 139 774 81 c 0,15,16
 631 -30 631 -30 411 -30 c 256,17,18
 191 -30 191 -30 -20 78 c 1,19,-1
 45 421 l 1,0,1
EndSplineSet
EndChar
StartChar: K
Encoding: 75 75 46
Width: 1234
VWidth: 3393
Flags: W
HStem: 0 21G<-17 278.785 789.452 1104> 1473 20G<268.129 567 1000.75 1370>
Fore
567 1493 m 1,0,-1
 457 936 l 1,1,-1
 1021 1493 l 1,2,-1
 1370 1493 l 1,3,-1
 764 890 l 1,4,-1
 1104 0 l 1,5,-1
 797 0 l 1,6,-1
 543 673 l 1,7,-1
 370 502 l 1,8,-1
 275 0 l 1,9,-1
 -17 0 l 1,10,-1
 272 1493 l 1,11,-1
 567 1493 l 1,0,-1
EndSplineSet
EndChar
StartChar: L
Encoding: 76 76 47
Width: 1234
VWidth: 3393
Flags: W
HStem: 0 262<428 1007> 1473 20G<366.129 664>
VStem: 81 978<0 262>
Fore
370 1493 m 1,0,-1
 664 1493 l 1,1,-1
 428 262 l 1,2,-1
 1059 262 l 1,3,-1
 1007 0 l 1,4,-1
 81 0 l 1,5,-1
 370 1493 l 1,0,-1
EndSplineSet
EndChar
StartChar: M
Encoding: 77 77 48
Width: 1234
VWidth: 3393
Flags: W
HStem: 0 21G<-58 200.856 751 1004.9> 1473 20G<226.142 584.588 920.992 1292>
Fore
583 1493 m 1,0,-1
 635 838 l 1,1,-1
 930 1493 l 1,2,-1
 1292 1493 l 1,3,-1
 1001 0 l 1,4,-1
 751 0 l 1,5,-1
 988 1198 l 1,6,-1
 693 543 l 1,7,-1
 476 543 l 1,8,-1
 428 1198 l 1,9,-1
 197 0 l 1,10,-1
 -58 0 l 1,11,-1
 230 1493 l 1,12,-1
 583 1493 l 1,0,-1
EndSplineSet
EndChar
StartChar: N
Encoding: 78 78 49
Width: 1234
VWidth: 3393
Flags: W
HStem: 0 21G<-23 240.871 671.779 971.858> 1473 20G<261.142 573.945 994.055 1256>
Fore
570 1493 m 1,0,-1
 784 408 l 1,1,-1
 998 1493 l 1,2,-1
 1256 1493 l 1,3,-1
 968 0 l 1,4,-1
 676 0 l 1,5,-1
 447 1085 l 1,6,-1
 237 0 l 1,7,-1
 -23 0 l 1,8,-1
 265 1493 l 1,9,-1
 570 1493 l 1,0,-1
EndSplineSet
EndChar
StartChar: O
Encoding: 79 79 50
Width: 1234
VWidth: 3393
Flags: W
HStem: -30 264<419.612 645.526> 1263 258<586.568 813.851>
VStem: 61 305<286.195 802.429> 868 303<783.969 1208.03>
Fore
868 1021 m 0,0,1
 868 1263 868 1263 709 1263 c 0,2,3
 583 1263 583 1263 512 1120 c 0,4,5
 489 1082 489 1082 468 1017.5 c 128,-1,6
 447 953 447 953 424 862 c 0,7,8
 366 625 366 625 366 472 c 0,9,10
 366 234 366 234 525 234 c 0,11,12
 645 234 645 234 722 373 c 0,13,14
 771 462 771 462 810 631 c 0,15,16
 868 868 868 868 868 1021 c 0,0,1
61 466 m 0,17,18
 61 664 61 664 113 872 c 0,19,20
 136 974 136 974 170 1063.5 c 128,-1,21
 204 1153 204 1153 249 1231 c 0,22,23
 326 1374 326 1374 449.5 1447.5 c 128,-1,24
 573 1521 573 1521 729 1521 c 0,25,26
 946 1521 946 1521 1058.5 1395 c 128,-1,27
 1171 1269 1171 1269 1171 1032 c 0,28,29
 1171 930 1171 930 1160.5 828 c 128,-1,30
 1150 726 1150 726 1123 621 c 0,31,32
 1072 418 1072 418 991 265 c 0,33,34
 913 123 913 123 787 46.5 c 128,-1,35
 661 -30 661 -30 505 -30 c 0,36,37
 285 -30 285 -30 173 95 c 128,-1,38
 61 220 61 220 61 466 c 0,17,18
EndSplineSet
EndChar
StartChar: P
Encoding: 80 80 51
Width: 1234
VWidth: 3393
Flags: W
HStem: 0 21G<17 315.893> 560 247<469 798.312> 1246 247<553 850.265>
VStem: 903 308<910.86 1201.55>
Fore
469 807 m 1,0,-1
 615 807 l 2,1,2
 903 807 903 807 903 1079 c 0,3,4
 903 1168 903 1168 852 1208 c 0,5,6
 797 1246 797 1246 676 1246 c 2,7,-1
 553 1246 l 1,8,-1
 469 807 l 1,0,-1
726 1493 m 2,9,10
 964 1493 964 1493 1087.5 1403.5 c 128,-1,11
 1211 1314 1211 1314 1211 1137 c 0,12,13
 1211 1029 1211 1029 1175 910 c 0,14,15
 1137 797 1137 797 1079 732 c 0,16,17
 1004 641 1004 641 886 600 c 0,18,19
 771 560 771 560 583 560 c 2,20,-1
 421 560 l 1,21,-1
 312 0 l 1,22,-1
 17 0 l 1,23,-1
 308 1493 l 1,24,-1
 726 1493 l 2,9,10
EndSplineSet
EndChar
StartChar: Q
Encoding: 81 81 52
Width: 1234
VWidth: 3393
Flags: W
HStem: 1263 258<586.392 813.314>
VStem: 61 305<288.543 803.39> 868 303<789.609 1207.93>
Fore
509 -30 m 2,0,1
 288 -30 288 -30 174.5 95 c 128,-1,2
 61 220 61 220 61 462 c 0,3,4
 61 658 61 658 109 868 c 0,5,6
 159 1079 159 1079 244 1228 c 0,7,8
 323 1370 323 1370 448 1445.5 c 128,-1,9
 573 1521 573 1521 729 1521 c 0,10,11
 943 1521 943 1521 1056 1399 c 0,12,13
 1171 1279 1171 1279 1171 1049 c 0,14,15
 1171 943 1171 943 1160.5 837.5 c 128,-1,16
 1150 732 1150 732 1123 628 c 0,17,18
 1079 421 1079 421 991 262 c 0,19,20
 920 129 920 129 777 41 c 1,21,-1
 926 -146 l 1,22,-1
 713 -282 l 1,23,-1
 537 -30 l 1,24,-1
 509 -30 l 2,0,1
868 1021 m 0,25,26
 868 1263 868 1263 709 1263 c 0,27,28
 583 1263 583 1263 512 1120 c 0,29,30
 489 1082 489 1082 468 1017.5 c 128,-1,31
 447 953 447 953 424 862 c 0,32,33
 366 625 366 625 366 472 c 0,34,35
 366 234 366 234 525 234 c 0,36,37
 645 234 645 234 722 373 c 0,38,39
 771 462 771 462 810 631 c 0,40,41
 868 868 868 868 868 1021 c 0,25,26
EndSplineSet
EndChar
StartChar: R
Encoding: 82 82 53
Width: 1234
VWidth: 3393
Flags: W
HStem: 0 21G<7 305.932 801.468 1110> 590 248<469 623.301> 1246 247<547 824.74>
VStem: 865 303<932.101 1203.81>
Fore
787 706 m 1,0,1
 852 696 852 696 882 661 c 0,2,3
 920 625 920 625 943 537 c 2,4,-1
 1110 0 l 1,5,-1
 807 0 l 1,6,-1
 703 376 l 2,7,8
 699 383 699 383 693 404 c 0,9,10
 641 590 641 590 537 590 c 2,11,-1
 418 590 l 1,12,-1
 302 0 l 1,13,-1
 7 0 l 1,14,-1
 298 1493 l 1,15,-1
 709 1493 l 2,16,17
 943 1493 943 1493 1055.5 1407 c 128,-1,18
 1168 1321 1168 1321 1168 1137 c 0,19,20
 1168 949 1168 949 1069.5 837.5 c 128,-1,21
 971 726 971 726 787 706 c 1,0,1
469 838 m 1,22,-1
 590 838 l 2,23,24
 865 838 865 838 865 1092 c 0,25,26
 865 1246 865 1246 683 1246 c 2,27,-1
 547 1246 l 1,28,-1
 469 838 l 1,22,-1
EndSplineSet
EndChar
StartChar: S
Encoding: 83 83 54
Width: 1234
VWidth: 3393
Flags: W
HStem: -30 244<266.769 666.737> 1279 242<569.43 978.399>
VStem: 191 285<998.195 1190.75> 764 301<304.713 551.736>
Fore
505 664 m 1,0,1
 308 751 308 751 252 822 c 0,2,3
 191 893 191 893 191 1021 c 0,4,5
 191 1246 191 1246 353 1382 c 0,6,7
 431 1453 431 1453 536 1487 c 128,-1,8
 641 1521 641 1521 771 1521 c 0,9,10
 978 1521 978 1521 1160 1438 c 1,11,-1
 1104 1153 l 1,12,13
 968 1279 968 1279 744 1279 c 0,14,15
 625 1279 625 1279 550 1221 c 256,16,17
 476 1163 476 1163 476 1079 c 0,18,19
 476 998 476 998 658 910 c 1,20,-1
 664 910 l 1,21,-1
 784 858 l 2,22,23
 930 790 930 790 997.5 699 c 128,-1,24
 1065 608 1065 608 1065 476 c 0,25,26
 1065 249 1065 249 903 109 c 0,27,28
 744 -30 744 -30 469 -30 c 0,29,30
 249 -30 249 -30 3 75 c 1,31,-1
 65 379 l 1,32,33
 162 302 162 302 266 258 c 128,-1,34
 370 214 370 214 479 214 c 0,35,36
 615 214 615 214 689.5 273.5 c 128,-1,37
 764 333 764 333 764 431 c 0,38,39
 764 560 764 560 625 615 c 2,40,-1
 505 664 l 1,0,1
EndSplineSet
EndChar
StartChar: T
Encoding: 84 84 55
Width: 1234
VWidth: 3393
Flags: W
HStem: 0 21G<326 621.89> 1234 259<230 563 858 1239>
Fore
326 0 m 1,0,-1
 563 1234 l 1,1,-1
 181 1234 l 1,2,-1
 230 1493 l 1,3,-1
 1289 1493 l 1,4,-1
 1239 1234 l 1,5,-1
 858 1234 l 1,6,-1
 618 0 l 1,7,-1
 326 0 l 1,0,-1
EndSplineSet
EndChar
StartChar: U
Encoding: 85 85 56
Width: 1234
VWidth: 3393
Flags: W
HStem: -30 260<389.483 664.552> 1473 20G<248.085 547 974.095 1273>
Fore
252 1493 m 1,0,-1
 547 1493 l 1,1,-1
 350 479 l 2,2,3
 350 476 350 476 346 472 c 1,4,5
 343 447 343 447 341.5 430.5 c 128,-1,6
 340 414 340 414 340 404 c 0,7,8
 340 323 340 323 385.5 276.5 c 128,-1,9
 431 230 431 230 515 230 c 0,10,11
 729 230 729 230 780 479 c 2,12,-1
 978 1493 l 1,13,-1
 1273 1493 l 1,14,-1
 1089 553 l 2,15,16
 1052 363 1052 363 1014 278 c 0,17,18
 974 187 974 187 910 123 c 0,19,20
 751 -30 751 -30 502 -30 c 0,21,22
 278 -30 278 -30 161.5 69.5 c 128,-1,23
 45 169 45 169 45 353 c 0,24,25
 45 394 45 394 50 444.5 c 128,-1,26
 55 495 55 495 68 553 c 2,27,-1
 252 1493 l 1,0,-1
EndSplineSet
EndChar
StartChar: V
Encoding: 86 86 57
Width: 1234
VWidth: 3393
Flags: W
HStem: 0 21G<267.143 691.627> 1473 20G<204 495.383 1015.94 1327>
VStem: 268 251<0 240>
Fore
1024 1493 m 1,0,-1
 1327 1493 l 1,1,-1
 683 0 l 1,2,-1
 268 0 l 1,3,-1
 204 1493 l 1,4,-1
 495 1493 l 1,5,-1
 519 240 l 1,6,-1
 1024 1493 l 1,0,-1
EndSplineSet
EndChar
StartChar: W
Encoding: 87 87 58
Width: 1234
VWidth: 3393
Flags: W
HStem: 0 21G<41 316.163 640.668 916.162> 1473 20G<141.634 398 1104.52 1370>
VStem: 143 255<1317.89 1493> 628 172<671.39 784> 641 169<0 398>
Fore
398 1493 m 1,0,-1
 288 398 l 1,1,-1
 560 1107 l 1,2,-1
 800 1107 l 1,3,-1
 810 398 l 1,4,-1
 1110 1493 l 1,5,-1
 1370 1493 l 1,6,-1
 910 0 l 1,7,-1
 641 0 l 1,8,-1
 628 784 l 1,9,-1
 308 0 l 1,10,-1
 41 0 l 1,11,-1
 143 1493 l 1,12,-1
 398 1493 l 1,0,-1
EndSplineSet
EndChar
StartChar: X
Encoding: 88 88 59
Width: 1234
VWidth: 3393
Flags: W
HStem: 0 21G<-143 196.586 772.188 1072> 1473 20G<184 484.026 1005.38 1344>
Fore
780 0 m 1,0,-1
 580 512 l 1,1,-1
 181 0 l 1,2,-1
 -143 0 l 1,3,-1
 472 784 l 1,4,-1
 184 1493 l 1,5,-1
 476 1493 l 1,6,-1
 661 1032 l 1,7,-1
 1021 1493 l 1,8,-1
 1344 1493 l 1,9,-1
 771 757 l 1,10,-1
 1072 0 l 1,11,-1
 780 0 l 1,0,-1
EndSplineSet
EndChar
StartChar: Y
Encoding: 89 89 60
Width: 1234
VWidth: 3393
Flags: W
HStem: 0 21G<320 614.918> 1473 20G<146 442.802 1026.22 1360>
Fore
437 1493 m 1,0,-1
 625 845 l 1,1,-1
 1039 1493 l 1,2,-1
 1360 1493 l 1,3,-1
 726 587 l 1,4,-1
 611 0 l 1,5,-1
 320 0 l 1,6,-1
 431 587 l 1,7,-1
 146 1493 l 1,8,-1
 437 1493 l 1,0,-1
EndSplineSet
EndChar
StartChar: Z
Encoding: 90 90 61
Width: 1234
VWidth: 3393
Flags: W
HStem: 0 262<366 1014> 1234 259<282 872>
Fore
1292 1493 m 1,0,-1
 1243 1249 l 1,1,-1
 366 262 l 1,2,-1
 1065 262 l 1,3,-1
 1014 0 l 1,4,-1
 -33 0 l 1,5,-1
 13 244 l 1,6,-1
 872 1234 l 1,7,-1
 230 1234 l 1,8,-1
 282 1493 l 1,9,-1
 1292 1493 l 1,0,-1
EndSplineSet
EndChar
StartChar: bracketleft
Encoding: 91 91 62
Width: 1234
VWidth: 3393
Flags: W
HStem: -272 191<525 732> 1367 191<807 1049>
VStem: 224 865<-272 1558>
Fore
1089 1558 m 1,0,-1
 1049 1367 l 1,1,-1
 807 1367 l 1,2,-1
 525 -81 l 1,3,-1
 771 -81 l 1,4,-1
 732 -272 l 1,5,-1
 224 -272 l 1,6,-1
 580 1558 l 1,7,-1
 1089 1558 l 1,0,-1
EndSplineSet
EndChar
StartChar: backslash
Encoding: 92 92 63
Width: 1234
VWidth: 3393
Flags: W
HStem: 1473 20G<340 545.387>
VStem: 340 404<-191 1493> 540 204<-191 1480.89>
Fore
744 -191 m 1,0,-1
 540 -191 l 1,1,-1
 340 1493 l 1,2,-1
 543 1493 l 1,3,-1
 744 -191 l 1,0,-1
EndSplineSet
EndChar
StartChar: bracketright
Encoding: 93 93 64
Width: 1234
VWidth: 3393
Flags: W
HStem: -272 191<143 386> 1367 191<462 664>
VStem: 104 867<-272 1558>
Fore
104 -272 m 1,0,-1
 143 -81 l 1,1,-1
 386 -81 l 1,2,-1
 664 1367 l 1,3,-1
 424 1367 l 1,4,-1
 462 1558 l 1,5,-1
 971 1558 l 1,6,-1
 615 -272 l 1,7,-1
 104 -272 l 1,0,-1
EndSplineSet
EndChar
StartChar: asciicircum
Encoding: 94 94 65
Width: 1234
VWidth: 3393
Flags: W
HStem: 936 557<495 1178>
Fore
1178 936 m 1,0,-1
 936 936 l 1,1,-1
 618 1239 l 1,2,-1
 298 936 l 1,3,-1
 58 936 l 1,4,-1
 495 1493 l 1,5,-1
 739 1493 l 1,6,-1
 1178 936 l 1,0,-1
EndSplineSet
EndChar
StartChar: underscore
Encoding: 95 95 66
Width: 1234
VWidth: 3393
Flags: W
HStem: -482 190<0 1234>
Fore
1234 -482 m 1,0,-1
 0 -482 l 1,1,-1
 0 -292 l 1,2,-1
 1234 -292 l 1,3,-1
 1234 -482 l 1,0,-1
EndSplineSet
EndChar
StartChar: grave
Encoding: 96 96 67
Width: 1234
VWidth: 3393
Flags: W
HStem: 1263 376<370 865>
VStem: 370 495<1263 1639>
Fore
865 1263 m 1,0,-1
 664 1263 l 1,1,-1
 370 1639 l 1,2,-1
 655 1639 l 1,3,-1
 865 1263 l 1,0,-1
EndSplineSet
EndChar
StartChar: a
Encoding: 97 97 68
Width: 1234
VWidth: 3393
Flags: W
HStem: -30 202<300 582.713> 529 207<457.179 804> 933 214<444.474 821.266>
VStem: 48 305<213.355 443.105>
Fore
693 529 m 1,0,1
 353 529 353 529 353 320 c 0,2,3
 353 255 353 255 393.5 213.5 c 128,-1,4
 434 172 434 172 495 172 c 0,5,6
 615 172 615 172 694.5 264 c 128,-1,7
 774 356 774 356 804 529 c 1,8,-1
 693 529 l 1,0,1
991 0 m 1,9,-1
 703 0 l 1,10,-1
 726 126 l 1,11,12
 593 -30 593 -30 376 -30 c 0,13,14
 224 -30 224 -30 136 58 c 256,15,16
 48 146 48 146 48 295 c 0,17,18
 48 512 48 512 202 624 c 128,-1,19
 356 736 356 736 651 736 c 2,20,-1
 845 736 l 1,21,-1
 852 787 l 1,22,23
 855 794 855 794 855 815 c 0,24,25
 855 933 855 933 655 933 c 0,26,27
 573 933 573 933 469.5 905.5 c 128,-1,28
 366 878 366 878 249 822 c 1,29,-1
 295 1069 l 1,30,31
 515 1147 515 1147 703 1147 c 0,32,33
 1143 1147 1143 1147 1143 848 c 0,34,35
 1143 777 1143 777 1117 641 c 2,36,-1
 991 0 l 1,9,-1
EndSplineSet
Substitution2: "Single Substitution lookup 22 subtable" uni0E38
Substitution2: "Single Substitution lookup 22 subtable" uni0E38
EndChar
StartChar: b
Encoding: 98 98 69
Width: 1234
VWidth: 3393
Flags: W
HStem: -30 240<494.125 713.406> 910 237<676.655 919.5> 1538 20G<346.123 645>
VStem: 872 296<456.422 854.594>
Fore
600 210 m 0,0,1
 709 210 709 210 790 350 c 0,2,3
 872 492 872 492 872 696 c 0,4,5
 872 797 872 797 831 853.5 c 128,-1,6
 790 910 790 910 713 910 c 0,7,8
 597 910 597 910 515 771 c 0,9,10
 434 628 434 628 434 431 c 0,11,12
 434 326 434 326 478 268 c 128,-1,13
 522 210 522 210 600 210 c 0,0,1
340 0 m 1,14,-1
 48 0 l 1,15,-1
 350 1558 l 1,16,-1
 645 1558 l 1,17,-1
 525 953 l 1,18,19
 587 1052 587 1052 670.5 1099.5 c 128,-1,20
 754 1147 754 1147 848 1147 c 0,21,22
 991 1147 991 1147 1079 1039 c 0,23,24
 1168 923 1168 923 1168 739 c 0,25,26
 1168 608 1168 608 1137.5 479 c 128,-1,27
 1107 350 1107 350 1049 244 c 0,28,29
 981 116 981 116 875 45 c 0,30,31
 764 -30 764 -30 655 -30 c 0,32,33
 543 -30 543 -30 470.5 32 c 128,-1,34
 398 94 398 94 379 207 c 1,35,-1
 340 0 l 1,14,-1
EndSplineSet
Substitution2: "Single Substitution lookup 22 subtable" uni0E39
Substitution2: "Single Substitution lookup 22 subtable" uni0E39
EndChar
StartChar: c
Encoding: 99 99 70
Width: 1234
VWidth: 3393
Flags: W
HStem: -30 240<534.362 893.74> 910 237<650.046 1009.91>
VStem: 149 298<297.32 688.8>
Fore
958 38 m 1,0,1
 800 -30 800 -30 635 -30 c 0,2,3
 411 -30 411 -30 278 94 c 0,4,5
 149 224 149 224 149 434 c 0,6,7
 149 754 149 754 333 949 c 0,8,9
 519 1147 519 1147 815 1147 c 0,10,11
 1011 1147 1011 1147 1157 1065 c 1,12,-1
 1107 797 l 1,13,14
 984 910 984 910 832 910 c 0,15,16
 661 910 661 910 553 787 c 0,17,18
 447 661 447 661 447 466 c 0,19,20
 447 210 447 210 693 210 c 0,21,22
 832 210 832 210 1014 312 c 1,23,-1
 958 38 l 1,0,1
EndSplineSet
Substitution2: "Single Substitution lookup 22 subtable" uni0E3A
Substitution2: "Single Substitution lookup 22 subtable" uni0E3A
EndChar
StartChar: d
Encoding: 100 100 71
Width: 1234
VWidth: 3393
Flags: W
HStem: -30 240<308.5 550.096> 910 240<520.551 739.955> 1538 20G<977.093 1273>
VStem: 65 298<266.15 661.269>
Fore
635 910 m 0,0,1
 522 910 522 910 441 767 c 0,2,3
 363 628 363 628 363 424 c 0,4,5
 363 323 363 323 403.5 266.5 c 128,-1,6
 444 210 444 210 519 210 c 0,7,8
 635 210 635 210 716 350 c 0,9,10
 800 492 800 492 800 686 c 0,11,12
 800 790 800 790 756.5 850 c 128,-1,13
 713 910 713 910 635 910 c 0,0,1
981 1558 m 1,14,-1
 1273 1558 l 1,15,-1
 971 0 l 1,16,-1
 679 0 l 1,17,-1
 709 166 l 1,18,19
 573 -30 573 -30 383 -30 c 0,20,21
 234 -30 234 -30 152 81 c 0,22,23
 65 191 65 191 65 379 c 0,24,25
 65 509 65 509 95.5 638 c 128,-1,26
 126 767 126 767 184 875 c 0,27,28
 258 1007 258 1007 360 1075 c 0,29,30
 457 1150 457 1150 580 1150 c 0,31,32
 693 1150 693 1150 765.5 1085.5 c 128,-1,33
 838 1021 838 1021 855 913 c 1,34,-1
 981 1558 l 1,14,-1
EndSplineSet
EndChar
StartChar: e
Encoding: 101 101 72
Width: 1234
VWidth: 3393
Flags: W
HStem: -30 234<438.178 859.901> 466 220<411 875> 920 230<540.099 825.612>
Fore
994 55 m 1,0,1
 794 -30 794 -30 583 -30 c 0,2,3
 333 -30 333 -30 204 88.5 c 128,-1,4
 75 207 75 207 75 437 c 0,5,6
 75 505 75 505 86.5 573 c 128,-1,7
 98 641 98 641 119 709 c 0,8,9
 166 848 166 848 244 940 c 0,10,11
 418 1150 418 1150 696 1150 c 0,12,13
 903 1150 903 1150 1032 1032 c 0,14,15
 1157 906 1157 906 1157 713 c 0,16,17
 1157 664 1157 664 1150 607 c 128,-1,18
 1143 550 1143 550 1130 466 c 1,19,-1
 370 466 l 1,20,21
 366 447 366 447 364.5 434 c 128,-1,22
 363 421 363 421 363 404 c 0,23,24
 363 204 363 204 628 204 c 0,25,26
 736 204 736 204 842.5 234.5 c 128,-1,27
 949 265 949 265 1046 326 c 1,28,-1
 994 55 l 1,0,1
875 686 m 1,29,30
 882 699 882 699 882 712.5 c 128,-1,31
 882 726 882 726 882 736 c 0,32,33
 882 825 882 825 831 872.5 c 128,-1,34
 780 920 780 920 693 920 c 0,35,36
 492 920 492 920 411 686 c 1,37,-1
 875 686 l 1,29,30
EndSplineSet
EndChar
StartChar: f
Encoding: 102 102 73
Width: 1234
VWidth: 3393
Flags: W
HStem: 0 21G<330 628.839> 896 224<275 505 842 1143> 1334 224<903.854 1225>
Fore
842 1120 m 1,0,-1
 1185 1120 l 1,1,-1
 1143 896 l 1,2,-1
 797 896 l 1,3,-1
 625 0 l 1,4,-1
 330 0 l 1,5,-1
 505 896 l 1,6,-1
 230 896 l 1,7,-1
 275 1120 l 1,8,-1
 547 1120 l 1,9,-1
 563 1198 l 2,10,11
 605 1408 605 1408 699 1483 c 0,12,13
 787 1558 787 1558 1029 1558 c 2,14,-1
 1269 1558 l 1,15,-1
 1225 1334 l 1,16,-1
 998 1334 l 2,17,18
 930 1334 930 1334 903 1302 c 0,19,20
 875 1279 875 1279 858 1198 c 2,21,-1
 842 1120 l 1,0,-1
EndSplineSet
EndChar
StartChar: g
Encoding: 103 103 74
Width: 1234
VWidth: 3393
Flags: W
HStem: -424 233<215.528 571.991> 17 232<331.5 590.079> 910 243<530.193 753.72>
VStem: 68 298<302.148 687.119>
Fore
519 249 m 0,0,1
 638 249 638 249 719 379 c 0,2,3
 804 509 804 509 804 699 c 0,4,5
 804 797 804 797 763 853.5 c 128,-1,6
 722 910 722 910 648 910 c 0,7,8
 540 910 540 910 451 777 c 0,9,10
 366 638 366 638 366 457 c 0,11,12
 366 356 366 356 406.5 302.5 c 128,-1,13
 447 249 447 249 519 249 c 0,0,1
988 85 m 1,14,15
 936 -191 936 -191 797 -308 c 0,16,17
 661 -424 661 -424 386 -424 c 0,18,19
 288 -424 288 -424 196 -409 c 128,-1,20
 104 -394 104 -394 17 -366 c 1,21,-1
 71 -101 l 1,22,23
 227 -191 227 -191 401 -191 c 0,24,25
 645 -191 645 -191 689 51 c 2,26,-1
 716 184 l 1,27,28
 608 17 608 17 411 17 c 0,29,30
 252 17 252 17 159 119 c 0,31,32
 68 227 68 227 68 404 c 0,33,34
 68 547 68 547 109 683 c 0,35,36
 156 832 156 832 224 933 c 0,37,38
 298 1039 298 1039 398 1092 c 0,39,40
 495 1153 495 1153 605 1153 c 0,41,42
 709 1153 709 1153 775.5 1097.5 c 128,-1,43
 842 1042 842 1042 862 940 c 1,44,-1
 900 1120 l 1,45,-1
 1191 1120 l 1,46,-1
 988 85 l 1,14,15
EndSplineSet
EndChar
StartChar: h
Encoding: 104 104 75
Width: 1234
VWidth: 3393
Flags: W
HStem: 0 21G<58 356.899 668 964.923> 910 237<681.105 919.5> 1538 20G<359.085 655>
Fore
961 0 m 1,0,-1
 668 0 l 1,1,-1
 800 683 l 2,2,3
 810 739 810 739 810 787 c 0,4,5
 810 910 810 910 699 910 c 0,6,7
 525 910 525 910 476 631 c 2,8,-1
 353 0 l 1,9,-1
 58 0 l 1,10,-1
 363 1558 l 1,11,-1
 655 1558 l 1,12,-1
 537 953 l 1,13,14
 583 1046 583 1046 668.5 1096.5 c 128,-1,15
 754 1147 754 1147 855 1147 c 0,16,17
 984 1147 984 1147 1052 1079 c 128,-1,18
 1120 1011 1120 1011 1120 882 c 0,19,20
 1120 852 1120 852 1117 814.5 c 128,-1,21
 1114 777 1114 777 1104 729 c 2,22,-1
 961 0 l 1,0,-1
EndSplineSet
EndChar
StartChar: i
Encoding: 105 105 76
Width: 1234
VWidth: 3393
Flags: W
HStem: 0 224<58 421 716 1039> 896 224<308 553> 1324 21G<635 933.965>
Fore
890 1120 m 1,0,-1
 716 224 l 1,1,-1
 1079 224 l 1,2,-1
 1039 0 l 1,3,-1
 13 0 l 1,4,-1
 58 224 l 1,5,-1
 421 224 l 1,6,-1
 553 896 l 1,7,-1
 265 896 l 1,8,-1
 308 1120 l 1,9,-1
 890 1120 l 1,0,-1
998 1667 m 1,10,-1
 930 1324 l 1,11,-1
 635 1324 l 1,12,-1
 703 1667 l 1,13,-1
 998 1667 l 1,10,-1
EndSplineSet
EndChar
StartChar: j
Encoding: 106 106 77
Width: 1234
VWidth: 3393
Flags: W
HStem: -424 224<-17 352.008> 896 224<353 608> 1324 21G<693 987.79>
Fore
732 45 m 1,0,1
 703 -133 703 -133 668 -197 c 0,2,3
 638 -268 638 -268 593 -312 c 0,4,5
 537 -370 537 -370 451 -398 c 0,6,7
 363 -424 363 -424 244 -424 c 2,8,-1
 -65 -424 l 1,9,-1
 -17 -200 l 1,10,-1
 214 -200 l 2,11,12
 308 -200 308 -200 363 -146 c 0,13,14
 418 -88 418 -88 441 45 c 2,15,-1
 608 896 l 1,16,-1
 308 896 l 1,17,-1
 353 1120 l 1,18,-1
 943 1120 l 1,19,-1
 732 45 l 1,0,1
693 1324 m 1,20,-1
 757 1667 l 1,21,-1
 1049 1667 l 1,22,-1
 984 1324 l 1,23,-1
 693 1324 l 1,20,-1
EndSplineSet
EndChar
StartChar: k
Encoding: 107 107 78
Width: 1234
VWidth: 3393
Flags: W
HStem: 0 21G<81 379.785 788.467 1107> 1100 20G<906.59 1299> 1538 20G<379.123 676>
Fore
676 1558 m 1,0,-1
 525 774 l 1,1,-1
 930 1120 l 1,2,-1
 1299 1120 l 1,3,-1
 794 703 l 1,4,-1
 1107 0 l 1,5,-1
 797 0 l 1,6,-1
 573 525 l 1,7,-1
 457 428 l 1,8,-1
 376 0 l 1,9,-1
 81 0 l 1,10,-1
 383 1558 l 1,11,-1
 676 1558 l 1,0,-1
EndSplineSet
EndChar
StartChar: l
Encoding: 108 108 79
Width: 1234
VWidth: 3393
Flags: W
HStem: 0 224<649.465 693 693 991> 1334 224<275 540>
Fore
625 366 m 1,0,1
 621 346 621 346 619.5 330.5 c 128,-1,2
 618 315 618 315 618 308 c 0,3,4
 618 262 618 262 648.5 243 c 128,-1,5
 679 224 679 224 757 224 c 2,6,-1
 1036 224 l 1,7,-1
 991 0 l 1,8,-1
 693 0 l 2,9,10
 489 0 489 0 404 58 c 0,11,12
 320 109 320 109 320 240 c 0,13,14
 320 268 320 268 325 300.5 c 128,-1,15
 330 333 330 333 336 379 c 2,16,-1
 540 1334 l 1,17,-1
 234 1334 l 1,18,-1
 275 1558 l 1,19,-1
 875 1558 l 1,20,-1
 625 366 l 1,0,1
EndSplineSet
EndChar
StartChar: m
Encoding: 109 109 80
Width: 1234
VWidth: 3393
Flags: W
HStem: 0 21G<-33 210.866 383 628.866 800 1045.87> 930 217<464.725 606.995 862.338 1028>
VStem: 961 247<822.572 989.5>
Fore
771 1007 m 1,0,1
 804 1072 804 1072 867 1109.5 c 128,-1,2
 930 1147 930 1147 1007 1147 c 0,3,4
 1100 1147 1100 1147 1154 1093 c 128,-1,5
 1208 1039 1208 1039 1208 940 c 0,6,7
 1208 893 1208 893 1203 845 c 128,-1,8
 1198 797 1198 797 1181 719 c 2,9,-1
 1042 0 l 1,10,-1
 800 0 l 1,11,-1
 940 719 l 2,12,13
 961 822 961 822 961 848 c 0,14,15
 961 930 961 930 890 930 c 0,16,17
 842 930 842 930 815 882 c 0,18,19
 784 842 784 842 764 719 c 2,20,-1
 625 0 l 1,21,-1
 383 0 l 1,22,-1
 525 719 l 2,23,24
 543 815 543 815 543 848 c 0,25,26
 543 930 543 930 472 930 c 0,27,28
 424 930 424 930 398 886 c 0,29,30
 383 862 383 862 369.5 821 c 128,-1,31
 356 780 356 780 346 719 c 2,32,-1
 207 0 l 1,33,-1
 -33 0 l 1,34,-1
 184 1120 l 1,35,-1
 398 1120 l 1,36,-1
 376 1004 l 1,37,38
 462 1147 462 1147 608 1147 c 0,39,40
 676 1147 676 1147 720 1109.5 c 128,-1,41
 764 1072 764 1072 771 1007 c 1,0,1
EndSplineSet
EndChar
StartChar: n
Encoding: 110 110 81
Width: 1234
VWidth: 3393
Flags: W
HStem: 0 21G<58 356.899 668 964.923> 910 237<679.179 919.5>
Fore
961 0 m 1,0,-1
 668 0 l 1,1,-1
 800 683 l 2,2,3
 810 739 810 739 810 787 c 0,4,5
 810 910 810 910 699 910 c 0,6,7
 618 910 618 910 560 837 c 128,-1,8
 502 764 502 764 476 631 c 2,9,-1
 353 0 l 1,10,-1
 58 0 l 1,11,-1
 275 1120 l 1,12,-1
 570 1120 l 1,13,-1
 537 953 l 1,14,15
 583 1046 583 1046 668.5 1096.5 c 128,-1,16
 754 1147 754 1147 855 1147 c 0,17,18
 984 1147 984 1147 1052 1079 c 128,-1,19
 1120 1011 1120 1011 1120 882 c 0,20,21
 1120 852 1120 852 1117 814.5 c 128,-1,22
 1114 777 1114 777 1104 729 c 2,23,-1
 961 0 l 1,0,-1
EndSplineSet
EndChar
StartChar: o
Encoding: 111 111 82
Width: 1234
VWidth: 3393
Flags: W
HStem: -30 237<445.45 687.873> 913 237<547.986 795.745>
VStem: 88 295<272.482 697.397> 852 295<428.574 855.947>
Fore
852 686 m 0,0,1
 852 913 852 913 673 913 c 0,2,3
 553 913 553 913 466 777 c 0,4,5
 383 641 383 641 383 434 c 0,6,7
 383 326 383 326 431 266.5 c 128,-1,8
 479 207 479 207 563 207 c 0,9,10
 686 207 686 207 767 343 c 0,11,12
 852 486 852 486 852 686 c 0,0,1
88 428 m 0,13,14
 88 751 88 751 255 949 c 0,15,16
 424 1150 424 1150 689 1150 c 0,17,18
 903 1150 903 1150 1024 1029 c 0,19,20
 1147 913 1147 913 1147 696 c 0,21,22
 1147 376 1147 376 981 169 c 0,23,24
 810 -30 810 -30 547 -30 c 0,25,26
 333 -30 333 -30 210 91 c 256,27,28
 88 214 88 214 88 428 c 0,13,14
EndSplineSet
EndChar
StartChar: p
Encoding: 112 112 83
Width: 1234
VWidth: 3393
Flags: W
HStem: -428 21G<-38 261.811> -30 240<494.638 714.74> 910 237<686.679 925>
VStem: 875 296<459.316 853.619>
Fore
258 -428 m 1,0,-1
 -38 -428 l 1,1,-1
 265 1120 l 1,2,-1
 557 1120 l 1,3,-1
 525 953 l 1,4,5
 668 1147 668 1147 852 1147 c 0,6,7
 998 1147 998 1147 1085 1039 c 0,8,9
 1171 930 1171 930 1171 739 c 0,10,11
 1171 611 1171 611 1140.5 482 c 128,-1,12
 1110 353 1110 353 1052 244 c 0,13,14
 981 116 981 116 878 45 c 0,15,16
 767 -30 767 -30 655 -30 c 256,17,18
 543 -30 543 -30 472 32 c 128,-1,19
 401 94 401 94 379 207 c 1,20,-1
 258 -428 l 1,0,-1
605 210 m 0,21,22
 713 210 713 210 794 353 c 256,23,24
 875 495 875 495 875 696 c 0,25,26
 875 797 875 797 834.5 853.5 c 128,-1,27
 794 910 794 910 719 910 c 0,28,29
 608 910 608 910 519 771 c 0,30,31
 437 628 437 628 437 431 c 0,32,33
 437 326 437 326 481 268 c 128,-1,34
 525 210 525 210 605 210 c 0,21,22
EndSplineSet
EndChar
StartChar: q
Encoding: 113 113 84
Width: 1234
VWidth: 3393
Flags: W
HStem: -428 21G<593 889.902> -30 240<313 553.826> 910 240<520.489 741.959>
VStem: 68 295<266.041 661.269>
Fore
893 1120 m 1,0,-1
 1188 1120 l 1,1,-1
 886 -428 l 1,2,-1
 593 -428 l 1,3,-1
 709 166 l 1,4,5
 645 71 645 71 563.5 20.5 c 128,-1,6
 482 -30 482 -30 386 -30 c 0,7,8
 240 -30 240 -30 152 81 c 0,9,10
 68 187 68 187 68 379 c 0,11,12
 68 509 68 509 98.5 638 c 128,-1,13
 129 767 129 767 187 875 c 0,14,15
 258 1004 258 1004 360 1075 c 0,16,17
 466 1150 466 1150 580 1150 c 0,18,19
 693 1150 693 1150 765.5 1087 c 128,-1,20
 838 1024 838 1024 855 913 c 1,21,-1
 893 1120 l 1,0,-1
635 910 m 0,22,23
 522 910 522 910 441 767 c 0,24,25
 363 628 363 628 363 424 c 0,26,27
 363 326 363 326 403.5 268 c 128,-1,28
 444 210 444 210 519 210 c 0,29,30
 635 210 635 210 716 350 c 0,31,32
 800 492 800 492 800 686 c 0,33,34
 800 790 800 790 756.5 850 c 128,-1,35
 713 910 713 910 635 910 c 0,22,23
EndSplineSet
EndChar
StartChar: r
Encoding: 114 114 85
Width: 1234
VWidth: 3393
Flags: W
HStem: 0 21G<152 451> 900 247<804.058 1117.64>
Fore
1175 815 m 1,0,1
 1079 900 1079 900 936 900 c 0,2,3
 767 900 767 900 679 810 c 256,4,5
 590 722 590 722 550 515 c 2,6,-1
 447 0 l 1,7,-1
 152 0 l 1,8,-1
 373 1120 l 1,9,-1
 664 1120 l 1,10,-1
 631 946 l 1,11,12
 764 1147 764 1147 1011 1147 c 0,13,14
 1137 1147 1137 1147 1228 1092 c 1,15,-1
 1175 815 l 1,0,1
EndSplineSet
EndChar
StartChar: s
Encoding: 115 115 86
Width: 1234
VWidth: 3393
Flags: W
HStem: -30 214<302.433 684.853> 940 207<549.083 928.599>
Fore
1046 832 m 1,0,1
 890 940 890 940 703 940 c 0,2,3
 608 940 608 940 553.5 904 c 128,-1,4
 499 868 499 868 499 810 c 0,5,6
 499 764 499 764 537 736 c 0,7,8
 570 713 570 713 703 673 c 2,9,-1
 774 651 l 2,10,11
 903 615 903 615 962 545.5 c 128,-1,12
 1021 476 1021 476 1021 360 c 0,13,14
 1021 176 1021 176 882 75 c 0,15,16
 747 -30 747 -30 502 -30 c 0,17,18
 285 -30 285 -30 91 41 c 1,19,-1
 143 298 l 1,20,21
 230 240 230 240 324 212 c 128,-1,22
 418 184 418 184 509 184 c 0,23,24
 621 184 621 184 682.5 221 c 128,-1,25
 744 258 744 258 744 326 c 0,26,27
 744 373 744 373 713 398 c 0,28,29
 686 421 686 421 550 462 c 2,30,-1
 462 486 l 2,31,32
 224 553 224 553 224 774 c 0,33,34
 224 936 224 936 360 1046 c 0,35,36
 499 1147 499 1147 722 1147 c 0,37,38
 910 1147 910 1147 1097 1085 c 1,39,-1
 1046 832 l 1,0,1
EndSplineSet
EndChar
StartChar: t
Encoding: 116 116 87
Width: 1234
VWidth: 3393
Flags: W
HStem: 0 224<662.98 709 709 953> 896 224<207 451 787 1127>
Fore
787 1120 m 1,0,-1
 1171 1120 l 1,1,-1
 1127 896 l 1,2,-1
 744 896 l 1,3,-1
 641 366 l 2,4,5
 631 326 631 326 631 308 c 0,6,7
 631 262 631 262 662 243 c 128,-1,8
 693 224 693 224 771 224 c 2,9,-1
 998 224 l 1,10,-1
 953 0 l 1,11,-1
 709 0 l 2,12,13
 502 0 502 0 418 55 c 256,14,15
 333 109 333 109 333 240 c 0,16,17
 333 262 333 262 338 296 c 128,-1,18
 343 330 343 330 350 379 c 2,19,-1
 451 896 l 1,20,-1
 162 896 l 1,21,-1
 207 1120 l 1,22,-1
 495 1120 l 1,23,-1
 557 1438 l 1,24,-1
 848 1438 l 1,25,-1
 787 1120 l 1,0,-1
EndSplineSet
EndChar
StartChar: u
Encoding: 117 117 88
Width: 1234
VWidth: 3393
Flags: W
HStem: -30 240<308.5 545.588> 1100 20G<261.104 557 871.165 1168>
Fore
265 1120 m 1,0,-1
 557 1120 l 1,1,-1
 428 437 l 2,2,3
 418 383 418 383 418 333 c 0,4,5
 418 210 418 210 529 210 c 0,6,7
 696 210 696 210 754 489 c 2,8,-1
 875 1120 l 1,9,-1
 1168 1120 l 1,10,-1
 949 0 l 1,11,-1
 655 0 l 1,12,-1
 689 166 l 1,13,14
 641 71 641 71 560 23 c 0,15,16
 476 -30 476 -30 373 -30 c 0,17,18
 244 -30 244 -30 174 41.5 c 128,-1,19
 104 113 104 113 104 244 c 0,20,21
 104 272 104 272 110 307.5 c 128,-1,22
 116 343 116 343 123 391 c 2,23,-1
 265 1120 l 1,0,-1
EndSplineSet
EndChar
StartChar: v
Encoding: 118 118 89
Width: 1234
VWidth: 3393
Flags: W
HStem: 0 21G<309.5 692.786> 1100 20G<172 455.886 917.159 1231>
Fore
683 0 m 1,0,-1
 312 0 l 1,1,-1
 172 1120 l 1,2,-1
 454 1120 l 1,3,-1
 537 240 l 1,4,-1
 926 1120 l 1,5,-1
 1231 1120 l 1,6,-1
 683 0 l 1,0,-1
EndSplineSet
EndChar
StartChar: w
Encoding: 119 119 90
Width: 1234
VWidth: 3393
Flags: W
HStem: 0 21G<91 378.068 627.322 917.446> 1100 20G<93.9464 336 1068.22 1327>
VStem: 91 211<262 417.046> 94 242<964.954 1120> 608 153<590 828>
Fore
336 1120 m 1,0,-1
 302 262 l 1,1,-1
 529 828 l 1,2,-1
 761 828 l 1,3,-1
 784 262 l 1,4,-1
 1075 1120 l 1,5,-1
 1327 1120 l 1,6,-1
 910 0 l 1,7,-1
 628 0 l 1,8,-1
 608 590 l 1,9,-1
 370 0 l 1,10,-1
 91 0 l 1,11,-1
 94 1120 l 1,12,-1
 336 1120 l 1,0,-1
EndSplineSet
EndChar
StartChar: x
Encoding: 120 120 91
Width: 1234
VWidth: 3393
Flags: W
HStem: 0 21G<-75 274.966 719.506 1029> 1100 20G<181 488.43 879.038 1228>
Fore
751 567 m 1,0,-1
 1029 0 l 1,1,-1
 729 0 l 1,2,-1
 560 356 l 1,3,-1
 258 0 l 1,4,-1
 -75 0 l 1,5,-1
 437 593 l 1,6,-1
 181 1120 l 1,7,-1
 479 1120 l 1,8,-1
 628 804 l 1,9,-1
 896 1120 l 1,10,-1
 1228 1120 l 1,11,-1
 751 567 l 1,0,-1
EndSplineSet
EndChar
StartChar: y
Encoding: 121 121 92
Width: 1234
VWidth: 3393
Flags: W
HStem: -424 224<-45 208.397> 1100 20G<143 440.72 938.07 1259>
Fore
553 -123 m 1,0,1
 495 -220 495 -220 448 -281.5 c 128,-1,2
 401 -343 401 -343 356 -370 c 0,3,4
 278 -424 278 -424 149 -424 c 2,5,-1
 -91 -424 l 1,6,-1
 -45 -200 l 1,7,-1
 71 -200 l 2,8,9
 159 -200 159 -200 210 -169 c 0,10,11
 258 -143 258 -143 320 -30 c 2,12,-1
 360 45 l 1,13,-1
 143 1120 l 1,14,-1
 437 1120 l 1,15,-1
 567 421 l 1,16,-1
 949 1120 l 1,17,-1
 1259 1120 l 1,18,-1
 553 -123 l 1,0,1
EndSplineSet
EndChar
StartChar: z
Encoding: 122 122 93
Width: 1234
VWidth: 3393
Flags: W
HStem: 0 220<437 971> 903 217<292 800>
Fore
1188 1120 m 1,0,-1
 1143 893 l 1,1,-1
 437 220 l 1,2,-1
 1014 220 l 1,3,-1
 971 0 l 1,4,-1
 48 0 l 1,5,-1
 94 230 l 1,6,-1
 800 903 l 1,7,-1
 252 903 l 1,8,-1
 292 1120 l 1,9,-1
 1188 1120 l 1,0,-1
EndSplineSet
EndChar
StartChar: braceleft
Encoding: 123 123 94
Width: 1234
VWidth: 3393
Flags: W
HStem: -336 193<646.074 842> 515 194<169 358.575> 1367 191<904.359 1175>
Fore
842 -336 m 1,0,-1
 696 -336 l 2,1,2
 502 -336 502 -336 414 -278 c 0,3,4
 330 -224 330 -224 330 -101 c 0,5,6
 330 -75 330 -75 333 -49 c 128,-1,7
 336 -23 336 -23 350 33 c 2,8,-1
 391 252 l 2,9,10
 401 298 401 298 404.5 329 c 128,-1,11
 408 360 408 360 408 379 c 0,12,13
 408 457 408 457 360 486 c 0,14,15
 315 515 315 515 194 515 c 2,16,-1
 133 515 l 1,17,-1
 169 709 l 1,18,-1
 230 709 l 2,19,20
 373 709 373 709 437 764 c 0,21,22
 499 822 499 822 529 974 c 2,23,-1
 570 1188 l 2,24,25
 618 1418 618 1418 709 1486 c 0,26,27
 800 1558 800 1558 1062 1558 c 2,28,-1
 1211 1558 l 1,29,-1
 1175 1367 l 1,30,-1
 1052 1367 l 2,31,32
 946 1367 946 1367 903 1324 c 0,33,34
 882 1302 882 1302 863.5 1256.5 c 128,-1,35
 845 1211 845 1211 832 1140 c 2,36,-1
 794 930 l 2,37,38
 764 771 764 771 699 696 c 0,39,40
 638 631 638 631 505 615 c 1,41,42
 605 590 605 590 645.5 547.5 c 128,-1,43
 686 505 686 505 686 428 c 0,44,45
 686 376 686 376 668 292 c 2,46,-1
 628 85 l 2,47,48
 618 38 618 38 614.5 10.5 c 128,-1,49
 611 -17 611 -17 611 -33 c 0,50,51
 611 -91 611 -91 645 -117 c 128,-1,52
 679 -143 679 -143 761 -143 c 2,53,-1
 878 -143 l 1,54,-1
 842 -336 l 1,0,-1
EndSplineSet
EndChar
StartChar: bar
Encoding: 124 124 95
Width: 1234
VWidth: 3393
Flags: W
VStem: 502 227<-482 1568>
Fore
729 -482 m 1,0,-1
 502 -482 l 1,1,-1
 502 1568 l 1,2,-1
 729 1568 l 1,3,-1
 729 -482 l 1,0,-1
EndSplineSet
EndChar
StartChar: braceright
Encoding: 125 125 96
Width: 1234
VWidth: 3393
Flags: W
HStem: -336 193<7 273.703> 515 194<826.363 1014> 1367 191<340 534.926>
Fore
129 -143 m 2,0,1
 234 -143 234 -143 275 -101 c 0,2,3
 320 -58 320 -58 350 85 c 2,4,-1
 386 292 l 2,5,6
 418 451 418 451 482 525 c 0,7,8
 550 593 550 593 676 615 c 1,9,10
 580 631 580 631 537.5 672 c 128,-1,11
 495 713 495 713 495 790 c 0,12,13
 495 819 495 819 500 854.5 c 128,-1,14
 505 890 505 890 512 930 c 2,15,-1
 553 1140 l 2,16,17
 563 1188 563 1188 566.5 1215.5 c 128,-1,18
 570 1243 570 1243 570 1259 c 0,19,20
 570 1317 570 1317 536 1342 c 128,-1,21
 502 1367 502 1367 421 1367 c 2,22,-1
 302 1367 l 1,23,-1
 340 1558 l 1,24,-1
 486 1558 l 2,25,26
 689 1558 689 1558 774 1510 c 0,27,28
 855 1460 855 1460 855 1347 c 0,29,30
 855 1314 855 1314 835 1205 c 2,31,-1
 832 1188 l 1,32,-1
 790 974 l 2,33,34
 784 940 784 940 780.5 911 c 128,-1,35
 777 882 777 882 777 862 c 0,36,37
 777 780 777 780 825 744 c 0,38,39
 868 709 868 709 988 709 c 2,40,-1
 1049 709 l 1,41,-1
 1014 515 l 1,42,-1
 949 515 l 2,43,44
 804 515 804 515 744 457 c 0,45,46
 679 401 679 401 648 252 c 2,47,-1
 608 33 l 2,48,49
 567 -187 567 -187 466 -262 c 256,50,51
 363 -336 363 -336 119 -336 c 2,52,-1
 -30 -336 l 1,53,-1
 7 -143 l 1,54,-1
 129 -143 l 2,0,1
EndSplineSet
EndChar
StartChar: asciitilde
Encoding: 126 126 97
Width: 1234
VWidth: 3393
Flags: W
HStem: 466 220<685.615 1012.64> 587 223<220.645 448.388>
Fore
1147 580 m 1,0,1
 1069 519 1069 519 997.5 492.5 c 128,-1,2
 926 466 926 466 848 466 c 0,3,4
 757 466 757 466 645 515 c 0,5,6
 635 522 635 522 628 523.5 c 128,-1,7
 621 525 621 525 615 529 c 0,8,9
 537 563 537 563 482 573 c 0,10,11
 437 587 437 587 379 587 c 0,12,13
 230 587 230 587 88 466 c 1,14,-1
 88 696 l 1,15,16
 166 757 166 757 239 783.5 c 128,-1,17
 312 810 312 810 398 810 c 0,18,19
 424 810 424 810 448 807 c 128,-1,20
 472 804 472 804 499 797 c 0,21,22
 550 787 550 787 621 757 c 0,23,24
 641 751 641 751 655 744 c 0,25,26
 777 686 777 686 865 686 c 0,27,28
 1001 686 1001 686 1147 810 c 1,29,-1
 1147 580 l 1,0,1
EndSplineSet
EndChar
StartChar: Adieresis
Encoding: 196 196 98
Width: 1234
VWidth: 3393
Flags: W
HStem: 0 21G<-113 195.811 763.297 1056> 370 245<454 736> 1473 20G<573.677 944.514> 1655 246<505 693 900 1089>
Fore
454 615 m 1,0,-1
 736 615 l 1,1,-1
 719 1221 l 1,2,-1
 454 615 l 1,0,-1
943 1493 m 1,3,-1
 1056 0 l 1,4,-1
 764 0 l 1,5,-1
 751 370 l 1,6,-1
 350 370 l 1,7,-1
 187 0 l 1,8,-1
 -113 0 l 1,9,-1
 583 1493 l 1,10,-1
 943 1493 l 1,3,-1
1137 1901 m 1,11,-1
 1089 1655 l 1,12,-1
 852 1655 l 1,13,-1
 900 1901 l 1,14,-1
 1137 1901 l 1,11,-1
739 1901 m 1,15,-1
 693 1655 l 1,16,-1
 454 1655 l 1,17,-1
 505 1901 l 1,18,-1
 739 1901 l 1,15,-1
EndSplineSet
EndChar
StartChar: Aring
Encoding: 197 197 99
Width: 1234
VWidth: 3393
Flags: W
HStem: 0 21G<-113 192.595 759.811 1056> 370 245<451 729> 1748 156<659.574 850.074>
VStem: 469 156<1542.56 1712.69> 761 295<0 360.667> 886 153<1523.04 1711.52>
Fore
625 1619 m 0,0,1
 625 1568 625 1568 661 1524 c 1,2,3
 706 1486 706 1486 754 1486 c 0,4,5
 804 1486 804 1486 848 1524 c 1,6,7
 886 1568 886 1568 886 1619 c 0,8,9
 886 1667 886 1667 848 1710 c 0,10,11
 810 1748 810 1748 754 1748 c 0,12,13
 699 1748 699 1748 661 1710 c 0,14,15
 625 1667 625 1667 625 1619 c 0,0,1
1056 0 m 1,16,-1
 761 0 l 1,17,-1
 739 370 l 1,18,-1
 343 370 l 1,19,-1
 184 0 l 1,20,-1
 -113 0 l 1,21,-1
 547 1422 l 1,22,23
 509 1460 509 1460 489 1512 c 128,-1,24
 469 1564 469 1564 469 1619 c 0,25,26
 469 1727 469 1727 553 1819 c 0,27,28
 635 1904 635 1904 754 1904 c 256,29,30
 872 1904 872 1904 953 1819 c 0,31,32
 1039 1735 1039 1735 1039 1619 c 0,33,34
 1039 1493 1039 1493 949 1412 c 1,35,-1
 1056 0 l 1,16,-1
451 615 m 1,36,-1
 729 615 l 1,37,-1
 709 1225 l 1,38,-1
 451 615 l 1,36,-1
EndSplineSet
EndChar
StartChar: Ccedilla
Encoding: 199 199 100
Width: 1234
VWidth: 3393
Flags: W
HStem: -401 146<293.672 581.947> -30 30<545.269 686> 1120 21G<1106.5 1160.9> 1259 262<725.39 1053.15>
VStem: 133 298<332.823 732.904> 600 157<-233.344 -41.0582>
Fore
946 45 m 1,0,1
 787 -30 787 -30 625 -30 c 0,2,3
 383 -30 383 -30 258 107 c 128,-1,4
 133 244 133 244 133 505 c 0,5,6
 133 621 133 621 147.5 731.5 c 128,-1,7
 162 842 162 842 200 946 c 0,8,9
 272 1157 272 1157 394 1296 c 0,10,11
 492 1408 492 1408 621.5 1464.5 c 128,-1,12
 751 1521 751 1521 903 1521 c 0,13,14
 1065 1521 1065 1521 1221 1448 c 1,15,-1
 1157 1120 l 1,16,17
 1056 1259 1056 1259 872 1259 c 0,18,19
 794 1259 794 1259 717.5 1209.5 c 128,-1,20
 641 1160 641 1160 583 1075 c 0,21,22
 515 968 515 968 472 819 c 0,23,24
 431 673 431 673 431 534 c 0,25,26
 431 383 431 383 494 306.5 c 128,-1,27
 557 230 557 230 676 230 c 0,28,29
 757 230 757 230 836.5 264 c 128,-1,30
 916 298 916 298 1011 370 c 1,31,-1
 946 45 l 1,0,1
686 0 m 1,32,33
 757 -98 757 -98 757 -184 c 0,34,35
 757 -282 757 -282 679 -343 c 0,36,37
 600 -401 600 -401 476 -401 c 0,38,39
 363 -401 363 -401 272 -376 c 1,40,-1
 298 -220 l 1,41,42
 394 -255 394 -255 457 -255 c 0,43,44
 600 -255 600 -255 600 -149 c 0,45,46
 600 -104 600 -104 543 0 c 1,47,-1
 686 0 l 1,32,33
EndSplineSet
EndChar
StartChar: Eacute
Encoding: 201 201 101
Width: 1234
VWidth: 3393
Flags: W
HStem: 0 262<376 961> 651 262<502 1029> 1234 259<563 1198>
Fore
30 0 m 1,0,-1
 320 1493 l 1,1,-1
 1249 1493 l 1,2,-1
 1198 1234 l 1,3,-1
 563 1234 l 1,4,-1
 502 913 l 1,5,-1
 1075 913 l 1,6,-1
 1029 651 l 1,7,-1
 451 651 l 1,8,-1
 376 262 l 1,9,-1
 1011 262 l 1,10,-1
 961 0 l 1,11,-1
 30 0 l 1,0,-1
1181 1901 m 1,12,-1
 862 1635 l 1,13,-1
 655 1635 l 1,14,-1
 900 1901 l 1,15,-1
 1181 1901 l 1,12,-1
EndSplineSet
EndChar
StartChar: Ntilde
Encoding: 209 209 102
Width: 1234
VWidth: 3393
Flags: W
HStem: 0 21G<-23 240.871 671.779 971.858> 1473 20G<261.142 573.945 994.055 1256> 1635 150<873.992 1008.57> 1758 146<592.185 718.331>
Fore
570 1493 m 1,0,-1
 784 408 l 1,1,-1
 998 1493 l 1,2,-1
 1256 1493 l 1,3,-1
 968 0 l 1,4,-1
 676 0 l 1,5,-1
 447 1085 l 1,6,-1
 237 0 l 1,7,-1
 -23 0 l 1,8,-1
 265 1493 l 1,9,-1
 570 1493 l 1,0,-1
732 1723 m 2,10,11
 709 1745 709 1745 692.5 1751.5 c 128,-1,12
 676 1758 676 1758 658 1758 c 0,13,14
 621 1758 621 1758 595.5 1725.5 c 128,-1,15
 570 1693 570 1693 560 1635 c 1,16,-1
 421 1635 l 1,17,18
 447 1765 447 1765 512 1834.5 c 128,-1,19
 577 1904 577 1904 676 1904 c 0,20,21
 739 1904 739 1904 810 1853 c 2,22,-1
 865 1813 l 2,23,24
 900 1785 900 1785 933 1785 c 0,25,26
 1014 1785 1014 1785 1036 1904 c 1,27,-1
 1171 1904 l 1,28,29
 1120 1635 1120 1635 923 1635 c 0,30,31
 886 1635 886 1635 854 1647 c 128,-1,32
 822 1659 822 1659 784 1687 c 2,33,-1
 732 1723 l 2,10,11
EndSplineSet
EndChar
StartChar: Odieresis
Encoding: 214 214 103
Width: 1234
VWidth: 3393
Flags: W
HStem: -30 264<419.612 645.526> 1263 258<586.568 813.851> 1655 246<505 693 900 1089>
VStem: 61 305<286.195 802.429> 868 303<783.969 1208.03>
Fore
868 1021 m 0,0,1
 868 1263 868 1263 709 1263 c 0,2,3
 583 1263 583 1263 512 1120 c 0,4,5
 489 1082 489 1082 468 1017.5 c 128,-1,6
 447 953 447 953 424 862 c 0,7,8
 366 625 366 625 366 472 c 0,9,10
 366 234 366 234 525 234 c 0,11,12
 645 234 645 234 722 373 c 0,13,14
 771 462 771 462 810 631 c 0,15,16
 868 868 868 868 868 1021 c 0,0,1
61 466 m 0,17,18
 61 664 61 664 113 872 c 0,19,20
 136 974 136 974 170 1063.5 c 128,-1,21
 204 1153 204 1153 249 1231 c 0,22,23
 326 1374 326 1374 449.5 1447.5 c 128,-1,24
 573 1521 573 1521 729 1521 c 0,25,26
 946 1521 946 1521 1058.5 1395 c 128,-1,27
 1171 1269 1171 1269 1171 1032 c 0,28,29
 1171 930 1171 930 1160.5 828 c 128,-1,30
 1150 726 1150 726 1123 621 c 0,31,32
 1072 418 1072 418 991 265 c 0,33,34
 913 123 913 123 787 46.5 c 128,-1,35
 661 -30 661 -30 505 -30 c 0,36,37
 285 -30 285 -30 173 95 c 128,-1,38
 61 220 61 220 61 466 c 0,17,18
1137 1901 m 1,39,-1
 1089 1655 l 1,40,-1
 852 1655 l 1,41,-1
 900 1901 l 1,42,-1
 1137 1901 l 1,39,-1
739 1901 m 1,43,-1
 693 1655 l 1,44,-1
 454 1655 l 1,45,-1
 505 1901 l 1,46,-1
 739 1901 l 1,43,-1
EndSplineSet
EndChar
StartChar: Udieresis
Encoding: 220 220 104
Width: 1234
VWidth: 3393
Flags: W
HStem: -30 260<389.483 664.552> 1473 20G<248.085 547 974.095 1273> 1655 246<509 696 906 1092>
Fore
252 1493 m 1,0,-1
 547 1493 l 1,1,-1
 350 479 l 2,2,3
 350 476 350 476 346 472 c 1,4,5
 343 447 343 447 341.5 430.5 c 128,-1,6
 340 414 340 414 340 404 c 0,7,8
 340 323 340 323 385.5 276.5 c 128,-1,9
 431 230 431 230 515 230 c 0,10,11
 729 230 729 230 780 479 c 2,12,-1
 978 1493 l 1,13,-1
 1273 1493 l 1,14,-1
 1089 553 l 2,15,16
 1052 363 1052 363 1014 278 c 0,17,18
 974 187 974 187 910 123 c 0,19,20
 751 -30 751 -30 502 -30 c 0,21,22
 278 -30 278 -30 161.5 69.5 c 128,-1,23
 45 169 45 169 45 353 c 0,24,25
 45 394 45 394 50 444.5 c 128,-1,26
 55 495 55 495 68 553 c 2,27,-1
 252 1493 l 1,0,-1
1140 1901 m 1,28,-1
 1092 1655 l 1,29,-1
 858 1655 l 1,30,-1
 906 1901 l 1,31,-1
 1140 1901 l 1,28,-1
747 1901 m 1,32,-1
 696 1655 l 1,33,-1
 462 1655 l 1,34,-1
 509 1901 l 1,35,-1
 747 1901 l 1,32,-1
EndSplineSet
EndChar
StartChar: aacute
Encoding: 225 225 105
Width: 1234
VWidth: 3393
Flags: W
HStem: -30 202<300 582.713> 529 207<457.179 804> 933 214<444.474 821.266>
VStem: 48 305<213.355 443.105>
Fore
693 529 m 1,0,1
 353 529 353 529 353 320 c 0,2,3
 353 255 353 255 393.5 213.5 c 128,-1,4
 434 172 434 172 495 172 c 0,5,6
 615 172 615 172 694.5 264 c 128,-1,7
 774 356 774 356 804 529 c 1,8,-1
 693 529 l 1,0,1
991 0 m 1,9,-1
 703 0 l 1,10,-1
 726 126 l 1,11,12
 593 -30 593 -30 376 -30 c 0,13,14
 224 -30 224 -30 136 58 c 256,15,16
 48 146 48 146 48 295 c 0,17,18
 48 512 48 512 202 624 c 128,-1,19
 356 736 356 736 651 736 c 2,20,-1
 845 736 l 1,21,-1
 852 787 l 1,22,23
 855 794 855 794 855 815 c 0,24,25
 855 933 855 933 655 933 c 0,26,27
 573 933 573 933 469.5 905.5 c 128,-1,28
 366 878 366 878 249 822 c 1,29,-1
 295 1069 l 1,30,31
 515 1147 515 1147 703 1147 c 0,32,33
 1143 1147 1143 1147 1143 848 c 0,34,35
 1143 777 1143 777 1117 641 c 2,36,-1
 991 0 l 1,9,-1
1243 1639 m 1,37,-1
 797 1263 l 1,38,-1
 600 1263 l 1,39,-1
 920 1639 l 1,40,-1
 1243 1639 l 1,37,-1
EndSplineSet
EndChar
StartChar: agrave
Encoding: 224 224 106
Width: 1234
VWidth: 3393
Flags: W
HStem: -30 202<300 582.713> 529 207<457.179 804> 933 214<444.474 821.266>
VStem: 48 305<213.355 443.105>
Fore
693 529 m 1,0,1
 353 529 353 529 353 320 c 0,2,3
 353 255 353 255 393.5 213.5 c 128,-1,4
 434 172 434 172 495 172 c 0,5,6
 615 172 615 172 694.5 264 c 128,-1,7
 774 356 774 356 804 529 c 1,8,-1
 693 529 l 1,0,1
991 0 m 1,9,-1
 703 0 l 1,10,-1
 726 126 l 1,11,12
 593 -30 593 -30 376 -30 c 0,13,14
 224 -30 224 -30 136 58 c 256,15,16
 48 146 48 146 48 295 c 0,17,18
 48 512 48 512 202 624 c 128,-1,19
 356 736 356 736 651 736 c 2,20,-1
 845 736 l 1,21,-1
 852 787 l 1,22,23
 855 794 855 794 855 815 c 0,24,25
 855 933 855 933 655 933 c 0,26,27
 573 933 573 933 469.5 905.5 c 128,-1,28
 366 878 366 878 249 822 c 1,29,-1
 295 1069 l 1,30,31
 515 1147 515 1147 703 1147 c 0,32,33
 1143 1147 1143 1147 1143 848 c 0,34,35
 1143 777 1143 777 1117 641 c 2,36,-1
 991 0 l 1,9,-1
896 1263 m 1,37,-1
 699 1263 l 1,38,-1
 404 1639 l 1,39,-1
 686 1639 l 1,40,-1
 896 1263 l 1,37,-1
EndSplineSet
EndChar
StartChar: acircumflex
Encoding: 226 226 107
Width: 1234
VWidth: 3393
Flags: W
HStem: -30 202<300 582.713> 529 207<457.179 804> 933 214<444.474 821.266>
VStem: 48 305<213.355 443.105>
Fore
693 529 m 1,0,1
 353 529 353 529 353 320 c 0,2,3
 353 255 353 255 393.5 213.5 c 128,-1,4
 434 172 434 172 495 172 c 0,5,6
 615 172 615 172 694.5 264 c 128,-1,7
 774 356 774 356 804 529 c 1,8,-1
 693 529 l 1,0,1
991 0 m 1,9,-1
 703 0 l 1,10,-1
 726 126 l 1,11,12
 593 -30 593 -30 376 -30 c 0,13,14
 224 -30 224 -30 136 58 c 256,15,16
 48 146 48 146 48 295 c 0,17,18
 48 512 48 512 202 624 c 128,-1,19
 356 736 356 736 651 736 c 2,20,-1
 845 736 l 1,21,-1
 852 787 l 1,22,23
 855 794 855 794 855 815 c 0,24,25
 855 933 855 933 655 933 c 0,26,27
 573 933 573 933 469.5 905.5 c 128,-1,28
 366 878 366 878 249 822 c 1,29,-1
 295 1069 l 1,30,31
 515 1147 515 1147 703 1147 c 0,32,33
 1143 1147 1143 1147 1143 848 c 0,34,35
 1143 777 1143 777 1117 641 c 2,36,-1
 991 0 l 1,9,-1
943 1639 m 1,37,-1
 1127 1263 l 1,38,-1
 949 1263 l 1,39,-1
 797 1490 l 1,40,-1
 557 1263 l 1,41,-1
 366 1263 l 1,42,-1
 699 1639 l 1,43,-1
 943 1639 l 1,37,-1
EndSplineSet
EndChar
StartChar: adieresis
Encoding: 228 228 108
Width: 1234
VWidth: 3393
Flags: W
HStem: -30 202<300 582.713> 529 207<457.179 804> 933 214<444.474 821.266> 1341 246<495 683 890 1079>
VStem: 48 305<213.355 443.105>
Fore
693 529 m 1,0,1
 353 529 353 529 353 320 c 0,2,3
 353 255 353 255 393.5 213.5 c 128,-1,4
 434 172 434 172 495 172 c 0,5,6
 615 172 615 172 694.5 264 c 128,-1,7
 774 356 774 356 804 529 c 1,8,-1
 693 529 l 1,0,1
991 0 m 1,9,-1
 703 0 l 1,10,-1
 726 126 l 1,11,12
 593 -30 593 -30 376 -30 c 0,13,14
 224 -30 224 -30 136 58 c 256,15,16
 48 146 48 146 48 295 c 0,17,18
 48 512 48 512 202 624 c 128,-1,19
 356 736 356 736 651 736 c 2,20,-1
 845 736 l 1,21,-1
 852 787 l 1,22,23
 855 794 855 794 855 815 c 0,24,25
 855 933 855 933 655 933 c 0,26,27
 573 933 573 933 469.5 905.5 c 128,-1,28
 366 878 366 878 249 822 c 1,29,-1
 295 1069 l 1,30,31
 515 1147 515 1147 703 1147 c 0,32,33
 1143 1147 1143 1147 1143 848 c 0,34,35
 1143 777 1143 777 1117 641 c 2,36,-1
 991 0 l 1,9,-1
1127 1587 m 1,37,-1
 1079 1341 l 1,38,-1
 842 1341 l 1,39,-1
 890 1587 l 1,40,-1
 1127 1587 l 1,37,-1
732 1587 m 1,41,-1
 683 1341 l 1,42,-1
 447 1341 l 1,43,-1
 495 1587 l 1,44,-1
 732 1587 l 1,41,-1
EndSplineSet
EndChar
StartChar: atilde
Encoding: 227 227 109
Width: 1234
VWidth: 3393
Flags: W
HStem: -30 202<300 582.713> 529 207<457.179 804> 933 214<444.474 821.266> 1311 152<882.641 992.479> 1438 158<573.846 704.381>
VStem: 48 305<213.355 443.105>
Fore
693 529 m 1,0,1
 353 529 353 529 353 320 c 0,2,3
 353 255 353 255 393.5 213.5 c 128,-1,4
 434 172 434 172 495 172 c 0,5,6
 615 172 615 172 694.5 264 c 128,-1,7
 774 356 774 356 804 529 c 1,8,-1
 693 529 l 1,0,1
991 0 m 1,9,-1
 703 0 l 1,10,-1
 726 126 l 1,11,12
 593 -30 593 -30 376 -30 c 0,13,14
 224 -30 224 -30 136 58 c 256,15,16
 48 146 48 146 48 295 c 0,17,18
 48 512 48 512 202 624 c 128,-1,19
 356 736 356 736 651 736 c 2,20,-1
 845 736 l 1,21,-1
 852 787 l 1,22,23
 855 794 855 794 855 815 c 0,24,25
 855 933 855 933 655 933 c 0,26,27
 573 933 573 933 469.5 905.5 c 128,-1,28
 366 878 366 878 249 822 c 1,29,-1
 295 1069 l 1,30,31
 515 1147 515 1147 703 1147 c 0,32,33
 1143 1147 1143 1147 1143 848 c 0,34,35
 1143 777 1143 777 1117 641 c 2,36,-1
 991 0 l 1,9,-1
722 1402 m 2,37,38
 719 1405 719 1405 716 1405 c 1,39,40
 679 1438 679 1438 645 1438 c 0,41,42
 567 1438 567 1438 547 1311 c 1,43,-1
 408 1311 l 1,44,45
 428 1438 428 1438 495 1516 c 256,46,47
 563 1596 563 1596 658 1596 c 0,48,49
 693 1596 693 1596 723.5 1583.5 c 128,-1,50
 754 1571 754 1571 800 1534 c 2,51,-1
 852 1493 l 2,52,53
 868 1480 868 1480 887 1471.5 c 128,-1,54
 906 1463 906 1463 920 1463 c 0,55,56
 1001 1463 1001 1463 1021 1592 c 1,57,-1
 1160 1592 l 1,58,59
 1114 1311 1114 1311 910 1311 c 0,60,61
 875 1311 875 1311 842.5 1322.5 c 128,-1,62
 810 1334 810 1334 771 1364 c 2,63,-1
 722 1402 l 2,37,38
EndSplineSet
EndChar
StartChar: aring
Encoding: 229 229 110
Width: 1234
VWidth: 3393
Flags: W
HStem: -30 202<300 582.713> 529 207<457.179 804> 933 214<444.474 821.266> 1249 156<687.346 870.839> 1667 156<687.346 870.624>
VStem: 48 305<213.355 443.105> 495 153<1440.8 1630.73> 910 155<1439.92 1630.12>
Fore
693 529 m 1,0,1
 353 529 353 529 353 320 c 0,2,3
 353 255 353 255 393.5 213.5 c 128,-1,4
 434 172 434 172 495 172 c 0,5,6
 615 172 615 172 694.5 264 c 128,-1,7
 774 356 774 356 804 529 c 1,8,-1
 693 529 l 1,0,1
991 0 m 1,9,-1
 703 0 l 1,10,-1
 726 126 l 1,11,12
 593 -30 593 -30 376 -30 c 0,13,14
 224 -30 224 -30 136 58 c 256,15,16
 48 146 48 146 48 295 c 0,17,18
 48 512 48 512 202 624 c 128,-1,19
 356 736 356 736 651 736 c 2,20,-1
 845 736 l 1,21,-1
 852 787 l 1,22,23
 855 794 855 794 855 815 c 0,24,25
 855 933 855 933 655 933 c 0,26,27
 573 933 573 933 469.5 905.5 c 128,-1,28
 366 878 366 878 249 822 c 1,29,-1
 295 1069 l 1,30,31
 515 1147 515 1147 703 1147 c 0,32,33
 1143 1147 1143 1147 1143 848 c 0,34,35
 1143 777 1143 777 1117 641 c 2,36,-1
 991 0 l 1,9,-1
495 1538 m 0,37,38
 495 1655 495 1655 577 1738 c 0,39,40
 661 1823 661 1823 780 1823 c 0,41,42
 896 1823 896 1823 981 1738 c 256,43,44
 1065 1652 1065 1652 1065 1538 c 0,45,46
 1065 1418 1065 1418 981 1334 c 256,47,48
 896 1249 896 1249 780 1249 c 0,49,50
 661 1249 661 1249 577 1334 c 0,51,52
 495 1415 495 1415 495 1538 c 0,37,38
648 1538 m 0,53,54
 648 1480 648 1480 686 1442 c 0,55,56
 729 1405 729 1405 780 1405 c 0,57,58
 835 1405 835 1405 872 1442 c 256,59,60
 910 1480 910 1480 910 1538 c 0,61,62
 910 1592 910 1592 872 1629 c 0,63,64
 828 1667 828 1667 780 1667 c 0,65,66
 729 1667 729 1667 686 1629 c 1,67,68
 648 1584 648 1584 648 1538 c 0,53,54
EndSplineSet
EndChar
StartChar: ccedilla
Encoding: 231 231 111
Width: 1234
VWidth: 3393
Flags: W
HStem: -401 146<317.657 606.555> -30 30<567.222 709> 910 237<650.046 1009.91>
VStem: 149 298<297.32 688.8> 625 155<-233.344 -41.0582>
Fore
958 38 m 1,0,1
 800 -30 800 -30 635 -30 c 0,2,3
 411 -30 411 -30 278 94 c 0,4,5
 149 224 149 224 149 434 c 0,6,7
 149 754 149 754 333 949 c 0,8,9
 519 1147 519 1147 815 1147 c 0,10,11
 1011 1147 1011 1147 1157 1065 c 1,12,-1
 1107 797 l 1,13,14
 984 910 984 910 832 910 c 0,15,16
 661 910 661 910 553 787 c 0,17,18
 447 661 447 661 447 466 c 0,19,20
 447 210 447 210 693 210 c 0,21,22
 832 210 832 210 1014 312 c 1,23,-1
 958 38 l 1,0,1
709 0 m 1,24,25
 780 -98 780 -98 780 -184 c 0,26,27
 780 -282 780 -282 703 -343 c 0,28,29
 625 -401 625 -401 499 -401 c 0,30,31
 386 -401 386 -401 295 -376 c 1,32,-1
 323 -220 l 1,33,34
 418 -255 418 -255 482 -255 c 0,35,36
 625 -255 625 -255 625 -149 c 0,37,38
 625 -104 625 -104 567 0 c 1,39,-1
 709 0 l 1,24,25
EndSplineSet
EndChar
StartChar: eacute
Encoding: 233 233 112
Width: 1234
VWidth: 3393
Flags: W
HStem: -30 234<438.178 859.901> 466 220<411 875> 920 230<540.099 825.612>
Fore
994 55 m 1,0,1
 794 -30 794 -30 583 -30 c 0,2,3
 333 -30 333 -30 204 88.5 c 128,-1,4
 75 207 75 207 75 437 c 0,5,6
 75 505 75 505 86.5 573 c 128,-1,7
 98 641 98 641 119 709 c 0,8,9
 166 848 166 848 244 940 c 0,10,11
 418 1150 418 1150 696 1150 c 0,12,13
 903 1150 903 1150 1032 1032 c 0,14,15
 1157 906 1157 906 1157 713 c 0,16,17
 1157 664 1157 664 1150 607 c 128,-1,18
 1143 550 1143 550 1130 466 c 1,19,-1
 370 466 l 1,20,21
 366 447 366 447 364.5 434 c 128,-1,22
 363 421 363 421 363 404 c 0,23,24
 363 204 363 204 628 204 c 0,25,26
 736 204 736 204 842.5 234.5 c 128,-1,27
 949 265 949 265 1046 326 c 1,28,-1
 994 55 l 1,0,1
875 686 m 1,29,30
 882 699 882 699 882 712.5 c 128,-1,31
 882 726 882 726 882 736 c 0,32,33
 882 825 882 825 831 872.5 c 128,-1,34
 780 920 780 920 693 920 c 0,35,36
 492 920 492 920 411 686 c 1,37,-1
 875 686 l 1,29,30
1208 1639 m 1,38,-1
 767 1263 l 1,39,-1
 570 1263 l 1,40,-1
 890 1639 l 1,41,-1
 1208 1639 l 1,38,-1
EndSplineSet
EndChar
StartChar: egrave
Encoding: 232 232 113
Width: 1234
VWidth: 3393
Flags: W
HStem: -30 234<438.178 859.901> 466 220<411 875> 920 230<540.099 825.612>
Fore
994 55 m 1,0,1
 794 -30 794 -30 583 -30 c 0,2,3
 333 -30 333 -30 204 88.5 c 128,-1,4
 75 207 75 207 75 437 c 0,5,6
 75 505 75 505 86.5 573 c 128,-1,7
 98 641 98 641 119 709 c 0,8,9
 166 848 166 848 244 940 c 0,10,11
 418 1150 418 1150 696 1150 c 0,12,13
 903 1150 903 1150 1032 1032 c 0,14,15
 1157 906 1157 906 1157 713 c 0,16,17
 1157 664 1157 664 1150 607 c 128,-1,18
 1143 550 1143 550 1130 466 c 1,19,-1
 370 466 l 1,20,21
 366 447 366 447 364.5 434 c 128,-1,22
 363 421 363 421 363 404 c 0,23,24
 363 204 363 204 628 204 c 0,25,26
 736 204 736 204 842.5 234.5 c 128,-1,27
 949 265 949 265 1046 326 c 1,28,-1
 994 55 l 1,0,1
875 686 m 1,29,30
 882 699 882 699 882 712.5 c 128,-1,31
 882 726 882 726 882 736 c 0,32,33
 882 825 882 825 831 872.5 c 128,-1,34
 780 920 780 920 693 920 c 0,35,36
 492 920 492 920 411 686 c 1,37,-1
 875 686 l 1,29,30
865 1263 m 1,38,-1
 664 1263 l 1,39,-1
 370 1639 l 1,40,-1
 655 1639 l 1,41,-1
 865 1263 l 1,38,-1
EndSplineSet
EndChar
StartChar: ecircumflex
Encoding: 234 234 114
Width: 1234
VWidth: 3393
Flags: W
HStem: -30 234<438.178 859.901> 466 220<411 875> 920 230<540.099 825.612>
Fore
994 55 m 1,0,1
 794 -30 794 -30 583 -30 c 0,2,3
 333 -30 333 -30 204 88.5 c 128,-1,4
 75 207 75 207 75 437 c 0,5,6
 75 505 75 505 86.5 573 c 128,-1,7
 98 641 98 641 119 709 c 0,8,9
 166 848 166 848 244 940 c 0,10,11
 418 1150 418 1150 696 1150 c 0,12,13
 903 1150 903 1150 1032 1032 c 0,14,15
 1157 906 1157 906 1157 713 c 0,16,17
 1157 664 1157 664 1150 607 c 128,-1,18
 1143 550 1143 550 1130 466 c 1,19,-1
 370 466 l 1,20,21
 366 447 366 447 364.5 434 c 128,-1,22
 363 421 363 421 363 404 c 0,23,24
 363 204 363 204 628 204 c 0,25,26
 736 204 736 204 842.5 234.5 c 128,-1,27
 949 265 949 265 1046 326 c 1,28,-1
 994 55 l 1,0,1
875 686 m 1,29,30
 882 699 882 699 882 712.5 c 128,-1,31
 882 726 882 726 882 736 c 0,32,33
 882 825 882 825 831 872.5 c 128,-1,34
 780 920 780 920 693 920 c 0,35,36
 492 920 492 920 411 686 c 1,37,-1
 875 686 l 1,29,30
913 1639 m 1,38,-1
 1097 1263 l 1,39,-1
 920 1263 l 1,40,-1
 767 1490 l 1,41,-1
 525 1263 l 1,42,-1
 336 1263 l 1,43,-1
 668 1639 l 1,44,-1
 913 1639 l 1,38,-1
EndSplineSet
EndChar
StartChar: edieresis
Encoding: 235 235 115
Width: 1234
VWidth: 3393
Flags: W
HStem: -30 234<438.178 859.901> 466 220<411 875> 920 230<540.099 825.612> 1341 246<466 651 858 1049>
Fore
994 55 m 1,0,1
 794 -30 794 -30 583 -30 c 0,2,3
 333 -30 333 -30 204 88.5 c 128,-1,4
 75 207 75 207 75 437 c 0,5,6
 75 505 75 505 86.5 573 c 128,-1,7
 98 641 98 641 119 709 c 0,8,9
 166 848 166 848 244 940 c 0,10,11
 418 1150 418 1150 696 1150 c 0,12,13
 903 1150 903 1150 1032 1032 c 0,14,15
 1157 906 1157 906 1157 713 c 0,16,17
 1157 664 1157 664 1150 607 c 128,-1,18
 1143 550 1143 550 1130 466 c 1,19,-1
 370 466 l 1,20,21
 366 447 366 447 364.5 434 c 128,-1,22
 363 421 363 421 363 404 c 0,23,24
 363 204 363 204 628 204 c 0,25,26
 736 204 736 204 842.5 234.5 c 128,-1,27
 949 265 949 265 1046 326 c 1,28,-1
 994 55 l 1,0,1
875 686 m 1,29,30
 882 699 882 699 882 712.5 c 128,-1,31
 882 726 882 726 882 736 c 0,32,33
 882 825 882 825 831 872.5 c 128,-1,34
 780 920 780 920 693 920 c 0,35,36
 492 920 492 920 411 686 c 1,37,-1
 875 686 l 1,29,30
1097 1587 m 1,38,-1
 1049 1341 l 1,39,-1
 810 1341 l 1,40,-1
 858 1587 l 1,41,-1
 1097 1587 l 1,38,-1
703 1587 m 1,42,-1
 651 1341 l 1,43,-1
 418 1341 l 1,44,-1
 466 1587 l 1,45,-1
 703 1587 l 1,42,-1
EndSplineSet
EndChar
StartChar: iacute
Encoding: 237 237 116
Width: 1234
VWidth: 3393
Flags: W
HStem: 0 224<58 421 716 1039> 896 224<308 553>
Fore
890 1120 m 1,0,-1
 716 224 l 1,1,-1
 1079 224 l 1,2,-1
 1039 0 l 1,3,-1
 13 0 l 1,4,-1
 58 224 l 1,5,-1
 421 224 l 1,6,-1
 553 896 l 1,7,-1
 265 896 l 1,8,-1
 308 1120 l 1,9,-1
 890 1120 l 1,0,-1
1163 1639 m 1,10,-1
 722 1263 l 1,11,-1
 525 1263 l 1,12,-1
 842 1639 l 1,13,-1
 1163 1639 l 1,10,-1
EndSplineSet
EndChar
StartChar: igrave
Encoding: 236 236 117
Width: 1234
VWidth: 3393
Flags: W
HStem: 0 224<58 421 716 1039> 896 224<308 553>
Fore
890 1120 m 1,0,-1
 716 224 l 1,1,-1
 1079 224 l 1,2,-1
 1039 0 l 1,3,-1
 13 0 l 1,4,-1
 58 224 l 1,5,-1
 421 224 l 1,6,-1
 553 896 l 1,7,-1
 265 896 l 1,8,-1
 308 1120 l 1,9,-1
 890 1120 l 1,0,-1
822 1263 m 1,10,-1
 621 1263 l 1,11,-1
 326 1639 l 1,12,-1
 611 1639 l 1,13,-1
 822 1263 l 1,10,-1
EndSplineSet
EndChar
StartChar: icircumflex
Encoding: 238 238 118
Width: 1234
VWidth: 3393
Flags: W
HStem: 0 224<58 421 716 1039> 896 224<308 553>
Fore
890 1120 m 1,0,-1
 716 224 l 1,1,-1
 1079 224 l 1,2,-1
 1039 0 l 1,3,-1
 13 0 l 1,4,-1
 58 224 l 1,5,-1
 421 224 l 1,6,-1
 553 896 l 1,7,-1
 265 896 l 1,8,-1
 308 1120 l 1,9,-1
 890 1120 l 1,0,-1
865 1639 m 1,10,-1
 1049 1263 l 1,11,-1
 875 1263 l 1,12,-1
 722 1490 l 1,13,-1
 482 1263 l 1,14,-1
 292 1263 l 1,15,-1
 625 1639 l 1,16,-1
 865 1639 l 1,10,-1
EndSplineSet
EndChar
StartChar: idieresis
Encoding: 239 239 119
Width: 1234
VWidth: 3393
Flags: W
HStem: 0 224<58 421 716 1039> 896 224<308 553> 1341 246<418 608 815 1004>
Fore
890 1120 m 1,0,-1
 716 224 l 1,1,-1
 1079 224 l 1,2,-1
 1039 0 l 1,3,-1
 13 0 l 1,4,-1
 58 224 l 1,5,-1
 421 224 l 1,6,-1
 553 896 l 1,7,-1
 265 896 l 1,8,-1
 308 1120 l 1,9,-1
 890 1120 l 1,0,-1
1052 1587 m 1,10,-1
 1004 1341 l 1,11,-1
 767 1341 l 1,12,-1
 815 1587 l 1,13,-1
 1052 1587 l 1,10,-1
655 1587 m 1,14,-1
 608 1341 l 1,15,-1
 370 1341 l 1,16,-1
 418 1587 l 1,17,-1
 655 1587 l 1,14,-1
EndSplineSet
EndChar
StartChar: ntilde
Encoding: 241 241 120
Width: 1234
VWidth: 3393
Flags: W
HStem: 0 21G<58 356.899 668 964.923> 910 237<679.179 919.5> 1311 152<850.749 961.527> 1438 158<542.577 674.08>
Fore
961 0 m 1,0,-1
 668 0 l 1,1,-1
 800 683 l 2,2,3
 810 739 810 739 810 787 c 0,4,5
 810 910 810 910 699 910 c 0,6,7
 618 910 618 910 560 837 c 128,-1,8
 502 764 502 764 476 631 c 2,9,-1
 353 0 l 1,10,-1
 58 0 l 1,11,-1
 275 1120 l 1,12,-1
 570 1120 l 1,13,-1
 537 953 l 1,14,15
 583 1046 583 1046 668.5 1096.5 c 128,-1,16
 754 1147 754 1147 855 1147 c 0,17,18
 984 1147 984 1147 1052 1079 c 128,-1,19
 1120 1011 1120 1011 1120 882 c 0,20,21
 1120 852 1120 852 1117 814.5 c 128,-1,22
 1114 777 1114 777 1104 729 c 2,23,-1
 961 0 l 1,0,-1
693 1402 m 2,24,25
 689 1405 689 1405 686 1405 c 1,26,27
 648 1438 648 1438 615 1438 c 0,28,29
 537 1438 537 1438 515 1311 c 1,30,-1
 376 1311 l 1,31,32
 398 1438 398 1438 466 1516 c 256,33,34
 534 1596 534 1596 628 1596 c 0,35,36
 661 1596 661 1596 691.5 1583.5 c 128,-1,37
 722 1571 722 1571 771 1534 c 2,38,-1
 822 1493 l 2,39,40
 838 1480 838 1480 855 1471.5 c 128,-1,41
 872 1463 872 1463 890 1463 c 0,42,43
 971 1463 971 1463 991 1592 c 1,44,-1
 1130 1592 l 1,45,46
 1082 1311 1082 1311 878 1311 c 0,47,48
 842 1311 842 1311 811 1322.5 c 128,-1,49
 780 1334 780 1334 739 1364 c 2,50,-1
 693 1402 l 2,24,25
EndSplineSet
EndChar
StartChar: oacute
Encoding: 243 243 121
Width: 1234
VWidth: 3393
Flags: W
HStem: -30 237<445.45 687.873> 913 237<547.986 795.745>
VStem: 88 295<272.482 697.397> 852 295<428.574 855.947>
Fore
852 686 m 0,0,1
 852 913 852 913 673 913 c 0,2,3
 553 913 553 913 466 777 c 0,4,5
 383 641 383 641 383 434 c 0,6,7
 383 326 383 326 431 266.5 c 128,-1,8
 479 207 479 207 563 207 c 0,9,10
 686 207 686 207 767 343 c 0,11,12
 852 486 852 486 852 686 c 0,0,1
88 428 m 0,13,14
 88 751 88 751 255 949 c 0,15,16
 424 1150 424 1150 689 1150 c 0,17,18
 903 1150 903 1150 1024 1029 c 0,19,20
 1147 913 1147 913 1147 696 c 0,21,22
 1147 376 1147 376 981 169 c 0,23,24
 810 -30 810 -30 547 -30 c 0,25,26
 333 -30 333 -30 210 91 c 256,27,28
 88 214 88 214 88 428 c 0,13,14
1208 1639 m 1,29,-1
 767 1263 l 1,30,-1
 570 1263 l 1,31,-1
 890 1639 l 1,32,-1
 1208 1639 l 1,29,-1
EndSplineSet
EndChar
StartChar: ograve
Encoding: 242 242 122
Width: 1234
VWidth: 3393
Flags: W
HStem: -30 237<445.45 687.873> 913 237<547.986 795.745>
VStem: 88 295<272.482 697.397> 852 295<428.574 855.947>
Fore
852 686 m 0,0,1
 852 913 852 913 673 913 c 0,2,3
 553 913 553 913 466 777 c 0,4,5
 383 641 383 641 383 434 c 0,6,7
 383 326 383 326 431 266.5 c 128,-1,8
 479 207 479 207 563 207 c 0,9,10
 686 207 686 207 767 343 c 0,11,12
 852 486 852 486 852 686 c 0,0,1
88 428 m 0,13,14
 88 751 88 751 255 949 c 0,15,16
 424 1150 424 1150 689 1150 c 0,17,18
 903 1150 903 1150 1024 1029 c 0,19,20
 1147 913 1147 913 1147 696 c 0,21,22
 1147 376 1147 376 981 169 c 0,23,24
 810 -30 810 -30 547 -30 c 0,25,26
 333 -30 333 -30 210 91 c 256,27,28
 88 214 88 214 88 428 c 0,13,14
865 1263 m 1,29,-1
 664 1263 l 1,30,-1
 370 1639 l 1,31,-1
 655 1639 l 1,32,-1
 865 1263 l 1,29,-1
EndSplineSet
EndChar
StartChar: ocircumflex
Encoding: 244 244 123
Width: 1234
VWidth: 3393
Flags: W
HStem: -30 237<445.45 687.873> 913 237<547.986 795.745>
VStem: 88 295<272.482 697.397> 852 295<428.574 855.947>
Fore
852 686 m 0,0,1
 852 913 852 913 673 913 c 0,2,3
 553 913 553 913 466 777 c 0,4,5
 383 641 383 641 383 434 c 0,6,7
 383 326 383 326 431 266.5 c 128,-1,8
 479 207 479 207 563 207 c 0,9,10
 686 207 686 207 767 343 c 0,11,12
 852 486 852 486 852 686 c 0,0,1
88 428 m 0,13,14
 88 751 88 751 255 949 c 0,15,16
 424 1150 424 1150 689 1150 c 0,17,18
 903 1150 903 1150 1024 1029 c 0,19,20
 1147 913 1147 913 1147 696 c 0,21,22
 1147 376 1147 376 981 169 c 0,23,24
 810 -30 810 -30 547 -30 c 0,25,26
 333 -30 333 -30 210 91 c 256,27,28
 88 214 88 214 88 428 c 0,13,14
913 1639 m 1,29,-1
 1097 1263 l 1,30,-1
 920 1263 l 1,31,-1
 767 1490 l 1,32,-1
 525 1263 l 1,33,-1
 336 1263 l 1,34,-1
 668 1639 l 1,35,-1
 913 1639 l 1,29,-1
EndSplineSet
EndChar
StartChar: odieresis
Encoding: 246 246 124
Width: 1234
VWidth: 3393
Flags: W
HStem: -30 237<445.45 687.873> 913 237<547.986 795.745> 1341 246<466 651 858 1049>
VStem: 88 295<272.482 697.397> 852 295<428.574 855.947>
Fore
852 686 m 0,0,1
 852 913 852 913 673 913 c 0,2,3
 553 913 553 913 466 777 c 0,4,5
 383 641 383 641 383 434 c 0,6,7
 383 326 383 326 431 266.5 c 128,-1,8
 479 207 479 207 563 207 c 0,9,10
 686 207 686 207 767 343 c 0,11,12
 852 486 852 486 852 686 c 0,0,1
88 428 m 0,13,14
 88 751 88 751 255 949 c 0,15,16
 424 1150 424 1150 689 1150 c 0,17,18
 903 1150 903 1150 1024 1029 c 0,19,20
 1147 913 1147 913 1147 696 c 0,21,22
 1147 376 1147 376 981 169 c 0,23,24
 810 -30 810 -30 547 -30 c 0,25,26
 333 -30 333 -30 210 91 c 256,27,28
 88 214 88 214 88 428 c 0,13,14
1097 1587 m 1,29,-1
 1049 1341 l 1,30,-1
 810 1341 l 1,31,-1
 858 1587 l 1,32,-1
 1097 1587 l 1,29,-1
703 1587 m 1,33,-1
 651 1341 l 1,34,-1
 418 1341 l 1,35,-1
 466 1587 l 1,36,-1
 703 1587 l 1,33,-1
EndSplineSet
EndChar
StartChar: otilde
Encoding: 245 245 125
Width: 1234
VWidth: 3393
Flags: W
HStem: -30 237<445.45 687.873> 913 237<547.986 795.745> 1311 152<850.749 961.527> 1438 158<542.577 674.08>
VStem: 88 295<272.482 697.397> 852 295<428.574 855.947>
Fore
852 686 m 0,0,1
 852 913 852 913 673 913 c 0,2,3
 553 913 553 913 466 777 c 0,4,5
 383 641 383 641 383 434 c 0,6,7
 383 326 383 326 431 266.5 c 128,-1,8
 479 207 479 207 563 207 c 0,9,10
 686 207 686 207 767 343 c 0,11,12
 852 486 852 486 852 686 c 0,0,1
88 428 m 0,13,14
 88 751 88 751 255 949 c 0,15,16
 424 1150 424 1150 689 1150 c 0,17,18
 903 1150 903 1150 1024 1029 c 0,19,20
 1147 913 1147 913 1147 696 c 0,21,22
 1147 376 1147 376 981 169 c 0,23,24
 810 -30 810 -30 547 -30 c 0,25,26
 333 -30 333 -30 210 91 c 256,27,28
 88 214 88 214 88 428 c 0,13,14
693 1402 m 2,29,30
 689 1405 689 1405 686 1405 c 1,31,32
 648 1438 648 1438 615 1438 c 0,33,34
 537 1438 537 1438 515 1311 c 1,35,-1
 376 1311 l 1,36,37
 398 1438 398 1438 466 1516 c 256,38,39
 534 1596 534 1596 628 1596 c 0,40,41
 661 1596 661 1596 691.5 1583.5 c 128,-1,42
 722 1571 722 1571 771 1534 c 2,43,-1
 822 1493 l 2,44,45
 838 1480 838 1480 855 1471.5 c 128,-1,46
 872 1463 872 1463 890 1463 c 0,47,48
 971 1463 971 1463 991 1592 c 1,49,-1
 1130 1592 l 1,50,51
 1082 1311 1082 1311 878 1311 c 0,52,53
 842 1311 842 1311 811 1322.5 c 128,-1,54
 780 1334 780 1334 739 1364 c 2,55,-1
 693 1402 l 2,29,30
EndSplineSet
EndChar
StartChar: uacute
Encoding: 250 250 126
Width: 1234
VWidth: 3393
Flags: W
HStem: -30 240<308.5 545.588> 1100 20G<261.104 557 871.165 1168>
Fore
265 1120 m 1,0,-1
 557 1120 l 1,1,-1
 428 437 l 2,2,3
 418 383 418 383 418 333 c 0,4,5
 418 210 418 210 529 210 c 0,6,7
 696 210 696 210 754 489 c 2,8,-1
 875 1120 l 1,9,-1
 1168 1120 l 1,10,-1
 949 0 l 1,11,-1
 655 0 l 1,12,-1
 689 166 l 1,13,14
 641 71 641 71 560 23 c 0,15,16
 476 -30 476 -30 373 -30 c 0,17,18
 244 -30 244 -30 174 41.5 c 128,-1,19
 104 113 104 113 104 244 c 0,20,21
 104 272 104 272 110 307.5 c 128,-1,22
 116 343 116 343 123 391 c 2,23,-1
 265 1120 l 1,0,-1
1208 1639 m 1,24,-1
 767 1263 l 1,25,-1
 570 1263 l 1,26,-1
 890 1639 l 1,27,-1
 1208 1639 l 1,24,-1
EndSplineSet
EndChar
StartChar: ugrave
Encoding: 249 249 127
Width: 1234
VWidth: 3393
Flags: W
HStem: -30 240<308.5 545.588> 1100 20G<261.104 557 871.165 1168>
Fore
265 1120 m 1,0,-1
 557 1120 l 1,1,-1
 428 437 l 2,2,3
 418 383 418 383 418 333 c 0,4,5
 418 210 418 210 529 210 c 0,6,7
 696 210 696 210 754 489 c 2,8,-1
 875 1120 l 1,9,-1
 1168 1120 l 1,10,-1
 949 0 l 1,11,-1
 655 0 l 1,12,-1
 689 166 l 1,13,14
 641 71 641 71 560 23 c 0,15,16
 476 -30 476 -30 373 -30 c 0,17,18
 244 -30 244 -30 174 41.5 c 128,-1,19
 104 113 104 113 104 244 c 0,20,21
 104 272 104 272 110 307.5 c 128,-1,22
 116 343 116 343 123 391 c 2,23,-1
 265 1120 l 1,0,-1
865 1263 m 1,24,-1
 664 1263 l 1,25,-1
 370 1639 l 1,26,-1
 655 1639 l 1,27,-1
 865 1263 l 1,24,-1
EndSplineSet
EndChar
StartChar: ucircumflex
Encoding: 251 251 128
Width: 1234
VWidth: 3393
Flags: W
HStem: -30 240<308.5 545.588> 1100 20G<261.104 557 871.165 1168>
Fore
265 1120 m 1,0,-1
 557 1120 l 1,1,-1
 428 437 l 2,2,3
 418 383 418 383 418 333 c 0,4,5
 418 210 418 210 529 210 c 0,6,7
 696 210 696 210 754 489 c 2,8,-1
 875 1120 l 1,9,-1
 1168 1120 l 1,10,-1
 949 0 l 1,11,-1
 655 0 l 1,12,-1
 689 166 l 1,13,14
 641 71 641 71 560 23 c 0,15,16
 476 -30 476 -30 373 -30 c 0,17,18
 244 -30 244 -30 174 41.5 c 128,-1,19
 104 113 104 113 104 244 c 0,20,21
 104 272 104 272 110 307.5 c 128,-1,22
 116 343 116 343 123 391 c 2,23,-1
 265 1120 l 1,0,-1
913 1639 m 1,24,-1
 1097 1263 l 1,25,-1
 920 1263 l 1,26,-1
 767 1490 l 1,27,-1
 525 1263 l 1,28,-1
 336 1263 l 1,29,-1
 668 1639 l 1,30,-1
 913 1639 l 1,24,-1
EndSplineSet
EndChar
StartChar: udieresis
Encoding: 252 252 129
Width: 1234
VWidth: 3393
Flags: W
HStem: -30 240<308.5 545.588> 1100 20G<261.104 557 871.165 1168> 1341 246<466 651 858 1049>
Fore
265 1120 m 1,0,-1
 557 1120 l 1,1,-1
 428 437 l 2,2,3
 418 383 418 383 418 333 c 0,4,5
 418 210 418 210 529 210 c 0,6,7
 696 210 696 210 754 489 c 2,8,-1
 875 1120 l 1,9,-1
 1168 1120 l 1,10,-1
 949 0 l 1,11,-1
 655 0 l 1,12,-1
 689 166 l 1,13,14
 641 71 641 71 560 23 c 0,15,16
 476 -30 476 -30 373 -30 c 0,17,18
 244 -30 244 -30 174 41.5 c 128,-1,19
 104 113 104 113 104 244 c 0,20,21
 104 272 104 272 110 307.5 c 128,-1,22
 116 343 116 343 123 391 c 2,23,-1
 265 1120 l 1,0,-1
1097 1587 m 1,24,-1
 1049 1341 l 1,25,-1
 810 1341 l 1,26,-1
 858 1587 l 1,27,-1
 1097 1587 l 1,24,-1
703 1587 m 1,28,-1
 651 1341 l 1,29,-1
 418 1341 l 1,30,-1
 466 1587 l 1,31,-1
 703 1587 l 1,28,-1
EndSplineSet
EndChar
StartChar: dagger
Encoding: 8224 8224 130
Width: 1234
VWidth: 3393
Flags: W
HStem: 882 225<391 676 979 1262> 1473 20G<801.751 1061>
VStem: 343 967<882 1107>
Fore
1061 1493 m 1,0,-1
 979 1107 l 1,1,-1
 1310 1107 l 1,2,-1
 1262 882 l 1,3,-1
 931 882 l 1,4,-1
 702 -197 l 1,5,-1
 447 -197 l 1,6,-1
 676 882 l 1,7,-1
 343 882 l 1,8,-1
 391 1107 l 1,9,-1
 724 1107 l 1,10,-1
 806 1493 l 1,11,-1
 1061 1493 l 1,0,-1
EndSplineSet
EndChar
StartChar: degree
Encoding: 176 176 131
Width: 1234
VWidth: 3393
Flags: W
HStem: 855 162<495.349 732.793> 1360 161<502.363 730.109>
VStem: 282 162<1069.24 1303.1> 787 162<1071.96 1303.8>
Fore
618 1521 m 0,0,1
 686 1521 686 1521 745 1495.5 c 128,-1,2
 804 1470 804 1470 852 1422 c 0,3,4
 949 1331 949 1331 949 1188 c 0,5,6
 949 1052 949 1052 852 953 c 256,7,8
 754 855 754 855 615 855 c 0,9,10
 472 855 472 855 379 949 c 0,11,12
 282 1049 282 1049 282 1188 c 256,13,14
 282 1327 282 1327 379 1425 c 0,15,16
 476 1521 476 1521 618 1521 c 0,0,1
618 1360 m 0,17,18
 543 1360 543 1360 495 1311 c 0,19,20
 444 1259 444 1259 444 1188 c 0,21,22
 444 1120 444 1120 492 1065 c 0,23,24
 540 1017 540 1017 615 1017 c 256,25,26
 689 1017 689 1017 736 1065 c 0,27,28
 787 1117 787 1117 787 1188 c 256,29,30
 787 1259 787 1259 736 1311 c 256,31,32
 686 1360 686 1360 618 1360 c 0,17,18
EndSplineSet
EndChar
StartChar: cent
Encoding: 162 162 132
Width: 1234
VWidth: 3393
Flags: W
VStem: 104 262<297.26 680.646>
Fore
1049 815 m 1,0,1
 958 896 958 896 832 910 c 1,2,-1
 696 214 l 1,3,4
 828 224 828 224 953 308 c 1,5,-1
 903 45 l 1,6,7
 838 13 838 13 777 -3.5 c 128,-1,8
 716 -20 716 -20 648 -23 c 1,9,-1
 593 -312 l 1,10,-1
 451 -312 l 1,11,-1
 505 -23 l 1,12,13
 312 -3 312 -3 208 113.5 c 128,-1,14
 104 230 104 230 104 434 c 0,15,16
 104 590 104 590 159 727.5 c 128,-1,17
 214 865 214 865 315 971 c 0,18,19
 394 1056 394 1056 502.5 1099.5 c 128,-1,20
 611 1143 611 1143 732 1147 c 1,21,-1
 787 1432 l 1,22,-1
 930 1432 l 1,23,-1
 875 1147 l 1,24,25
 978 1143 978 1143 1104 1079 c 1,26,-1
 1049 815 l 1,0,1
689 910 m 1,27,28
 557 896 557 896 457 761 c 0,29,30
 366 635 366 635 366 457 c 0,31,32
 366 353 366 353 418 285 c 0,33,34
 469 220 469 220 553 214 c 1,35,-1
 689 910 l 1,27,28
EndSplineSet
EndChar
StartChar: sterling
Encoding: 163 163 133
Width: 1234
VWidth: 3393
Flags: W
HStem: 0 262<30 265 553 981> 593 229<172 330 658 953> 1273 248<810.394 1129.95>
Fore
1195 1191 m 1,0,1
 1072 1273 1072 1273 953 1273 c 0,2,3
 848 1273 848 1273 783.5 1206.5 c 128,-1,4
 719 1140 719 1140 693 998 c 2,5,-1
 658 822 l 1,6,-1
 998 822 l 1,7,-1
 953 593 l 1,8,-1
 615 593 l 1,9,-1
 553 262 l 1,10,-1
 1032 262 l 1,11,-1
 981 0 l 1,12,-1
 -23 0 l 1,13,-1
 30 262 l 1,14,-1
 265 262 l 1,15,-1
 330 593 l 1,16,-1
 129 593 l 1,17,-1
 172 822 l 1,18,-1
 373 822 l 1,19,-1
 411 1017 l 2,20,21
 462 1279 462 1279 590 1405 c 0,22,23
 716 1521 716 1521 958 1521 c 0,24,25
 1104 1521 1104 1521 1246 1460 c 1,26,-1
 1195 1191 l 1,0,1
EndSplineSet
EndChar
StartChar: section
Encoding: 167 167 134
Width: 1234
VWidth: 3393
Flags: W
HStem: -197 224<205.696 605.475> 1299 222<615.52 900.898>
VStem: 181 230<606.115 797.713> 315 258<1086.85 1261.51> 638 258<62.0604 241.762> 800 232<525.706 719.146>
Fore
648 797 m 1,0,1
 645 800 645 800 638 804 c 256,2,3
 628 809 l 0,4,5
 618 815 618 815 608 822 c 0,6,7
 587 838 587 838 568.5 850 c 128,-1,8
 550 862 550 862 529 878 c 1,9,10
 472 832 472 832 441.5 789.5 c 128,-1,11
 411 747 411 747 411 709 c 0,12,13
 411 635 411 635 482 583 c 2,14,-1
 560 529 l 2,15,16
 600 502 600 502 683 451 c 1,17,18
 739 489 739 489 769.5 534.5 c 128,-1,19
 800 580 800 580 800 618 c 0,20,21
 800 689 800 689 729 744 c 2,22,-1
 648 797 l 1,0,1
1014 1231 m 1,23,24
 872 1299 872 1299 754 1299 c 0,25,26
 668 1299 668 1299 620.5 1265 c 128,-1,27
 573 1231 573 1231 573 1168 c 0,28,29
 573 1130 573 1130 605 1092 c 0,30,31
 631 1059 631 1059 744 988 c 2,32,-1
 848 920 l 2,33,34
 946 852 946 852 989 792 c 128,-1,35
 1032 732 1032 732 1032 655 c 0,36,37
 1032 489 1032 489 807 353 c 1,38,39
 896 275 896 275 896 146 c 0,40,41
 896 -3 896 -3 777 -101 c 0,42,43
 651 -197 651 -197 462 -197 c 0,44,45
 298 -197 298 -197 104 -136 c 1,46,-1
 149 94 l 1,47,48
 302 27 302 27 457 27 c 0,49,50
 638 27 638 27 638 159 c 0,51,52
 638 227 638 227 486 330 c 2,53,-1
 469 340 l 1,54,-1
 366 408 l 2,55,56
 312 444 312 444 274.5 476.5 c 128,-1,57
 237 509 237 509 217 537 c 0,58,59
 181 593 181 593 181 673 c 0,60,61
 181 764 181 764 239.5 842 c 128,-1,62
 298 920 298 920 414 968 c 1,63,64
 315 1046 315 1046 315 1171 c 0,65,66
 315 1331 315 1331 431 1425 c 0,67,68
 550 1521 550 1521 744 1521 c 0,69,70
 815 1521 815 1521 893 1507 c 128,-1,71
 971 1493 971 1493 1059 1463 c 1,72,-1
 1014 1231 l 1,23,24
EndSplineSet
EndChar
StartChar: bullet
Encoding: 8226 8226 135
Width: 1234
VWidth: 3393
Flags: W
HStem: 1100 20G<783 929>
Fore
410 677 m 0,0,1
 410 879 410 879 579 1017 c 0,2,3
 710 1120 710 1120 856 1120 c 256,4,5
 1002 1120 1002 1120 1088 1017 c 0,6,7
 1149 942 1149 942 1149 843 c 0,8,9
 1149 653 1149 653 979 505 c 0,10,11
 852 401 852 401 704.5 401 c 128,-1,12
 557 401 557 401 467 505 c 0,13,14
 410 578 410 578 410 677 c 0,0,1
EndSplineSet
EndChar
StartChar: paragraph
Encoding: 182 182 136
Width: 1234
VWidth: 3393
Flags: W
HStem: 1347 146<784 974>
Fore
1191 1493 m 1,0,-1
 862 -197 l 1,1,-1
 673 -197 l 1,2,-1
 974 1347 l 1,3,-1
 784 1347 l 1,4,-1
 482 -197 l 1,5,-1
 292 -197 l 1,6,-1
 457 648 l 1,7,8
 285 668 285 668 193 753 c 128,-1,9
 101 838 101 838 101 981 c 0,10,11
 101 1201 101 1201 265 1347 c 0,12,13
 424 1493 424 1493 673 1493 c 2,14,-1
 1191 1493 l 1,0,-1
EndSplineSet
EndChar
StartChar: germandbls
Encoding: 223 223 137
Width: 1234
VWidth: 3393
Flags: W
HStem: -30 237<495.834 810.557> 1327 234<629.884 907.547>
VStem: 587 261<775.056 975.923> 862 281<253.11 454.906> 940 217<1175 1290.73>
Fore
1147 1059 m 1,0,1
 1004 1052 1004 1052 926 1002.5 c 128,-1,2
 848 953 848 953 848 868 c 0,3,4
 848 819 848 819 943 716 c 2,5,-1
 949 709 l 1,6,-1
 1029 635 l 2,7,8
 1143 515 1143 515 1143 379 c 0,9,10
 1143 191 1143 191 1014 81 c 0,11,12
 890 -30 890 -30 664 -30 c 0,13,14
 537 -30 537 -30 408 20 c 1,15,-1
 454 272 l 1,16,17
 577 207 577 207 664 207 c 0,18,19
 757 207 757 207 809.5 246 c 128,-1,20
 862 285 862 285 862 353 c 256,21,22
 862 421 862 421 751 534 c 1,23,-1
 744 537 l 1,24,-1
 676 608 l 2,25,26
 587 696 587 696 587 815 c 0,27,28
 587 953 587 953 679 1045 c 128,-1,29
 771 1137 771 1137 940 1175 c 1,30,-1
 940 1191 l 2,31,32
 940 1327 940 1327 771 1327 c 0,33,34
 583 1327 583 1327 543 1123 c 2,35,-1
 323 0 l 1,36,-1
 30 0 l 1,37,-1
 249 1127 l 2,38,39
 288 1341 288 1341 419 1451 c 128,-1,40
 550 1561 550 1561 764 1561 c 0,41,42
 1157 1561 1157 1561 1157 1208 c 0,43,44
 1157 1168 1157 1168 1147 1065 c 2,45,-1
 1147 1059 l 1,0,1
EndSplineSet
EndChar
StartChar: registered
Encoding: 174 174 138
Width: 1234
VWidth: 3393
Flags: W
HStem: 126 132<416.334 822.158> 673 107<525 625.091> 943 113<525 689.694> 1231 129<416.37 818.216>
VStem: 0 133<541.001 947.758> 360 165<431 673 780 943> 703 165<792.459 929.96> 1104 130<543.642 946.912>
Fore
618 1360 m 256,0,1
 872 1360 872 1360 1052 1181 c 0,2,3
 1234 991 1234 991 1234 744 c 0,4,5
 1234 489 1234 489 1052 308 c 0,6,7
 868 126 868 126 618 126 c 0,8,9
 363 126 363 126 184 308 c 0,10,11
 0 489 0 489 0 744 c 256,12,13
 0 998 0 998 184 1181 c 0,14,15
 363 1360 363 1360 618 1360 c 256,0,1
525 943 m 1,16,-1
 525 780 l 1,17,-1
 587 780 l 2,18,19
 703 780 703 780 703 862 c 256,20,21
 703 943 703 943 587 943 c 2,22,-1
 525 943 l 1,16,-1
608 1056 m 1,23,24
 868 1056 868 1056 868 878 c 0,25,26
 868 744 868 744 719 716 c 1,27,28
 790 689 790 689 838 597 c 2,29,-1
 916 431 l 1,30,-1
 744 431 l 1,31,-1
 683 563 l 2,32,33
 655 621 655 621 626 644.5 c 128,-1,34
 597 668 597 668 557 673 c 2,35,-1
 525 673 l 1,36,-1
 525 431 l 1,37,-1
 360 431 l 1,38,-1
 360 1056 l 1,39,-1
 608 1056 l 1,23,24
618 1231 m 0,40,41
 418 1231 418 1231 275 1085 c 0,42,43
 133 943 133 943 133 744 c 0,44,45
 133 550 133 550 275 401 c 0,46,47
 418 258 418 258 618 258 c 256,48,49
 819 258 819 258 961 401 c 0,50,51
 1104 550 1104 550 1104 744 c 0,52,53
 1104 943 1104 943 961 1085 c 0,54,55
 815 1231 815 1231 618 1231 c 0,40,41
EndSplineSet
EndChar
StartChar: copyright
Encoding: 169 169 139
Width: 1234
VWidth: 3393
Flags: W
HStem: 126 132<416.334 822.158> 401 142<511.577 822.314> 940 142<514.92 823.984> 1231 129<416.37 818.216>
VStem: 0 133<541.001 947.758> 265 189<600.651 879.323> 1104 130<543.642 946.912>
Fore
848 882 m 1,0,1
 754 940 754 940 658 940 c 0,2,3
 560 940 560 940 507 889 c 128,-1,4
 454 838 454 838 454 744 c 0,5,6
 454 543 454 543 658 543 c 0,7,8
 767 543 767 543 848 605 c 1,9,-1
 848 434 l 1,10,11
 747 401 747 401 638 401 c 0,12,13
 469 401 469 401 366 492 c 0,14,15
 265 593 265 593 265 744 c 0,16,17
 265 896 265 896 366 991 c 0,18,19
 469 1082 469 1082 638 1082 c 0,20,21
 751 1082 751 1082 848 1049 c 1,22,-1
 848 882 l 1,0,1
618 1360 m 256,23,24
 872 1360 872 1360 1052 1181 c 0,25,26
 1234 991 1234 991 1234 744 c 0,27,28
 1234 489 1234 489 1052 308 c 0,29,30
 868 126 868 126 618 126 c 0,31,32
 363 126 363 126 184 308 c 0,33,34
 0 489 0 489 0 744 c 256,35,36
 0 998 0 998 184 1181 c 0,37,38
 363 1360 363 1360 618 1360 c 256,23,24
618 1231 m 0,39,40
 418 1231 418 1231 275 1085 c 0,41,42
 133 943 133 943 133 744 c 0,43,44
 133 550 133 550 275 401 c 0,45,46
 418 258 418 258 618 258 c 256,47,48
 819 258 819 258 961 401 c 0,49,50
 1104 550 1104 550 1104 744 c 0,51,52
 1104 943 1104 943 961 1085 c 0,53,54
 815 1231 815 1231 618 1231 c 0,39,40
EndSplineSet
EndChar
StartChar: trademark
Encoding: 8482 8482 140
Width: 1234
VWidth: 3393
Flags: W
HStem: 1360 133<317 432 587 726>
Fore
1101 1266 m 1,0,-1
 1237 1493 l 1,1,-1
 1444 1493 l 1,2,-1
 1322 916 l 1,3,-1
 1169 916 l 1,4,-1
 1262 1354 l 1,5,-1
 1098 1097 l 1,6,-1
 1023 1097 l 1,7,-1
 964 1354 l 1,8,-1
 871 916 l 1,9,-1
 717 916 l 1,10,-1
 839 1493 l 1,11,-1
 1046 1493 l 1,12,-1
 1101 1266 l 1,0,-1
726 1360 m 1,13,-1
 587 1360 l 1,14,-1
 493 916 l 1,15,-1
 338 916 l 1,16,-1
 432 1360 l 1,17,-1
 289 1360 l 1,18,-1
 317 1493 l 1,19,-1
 754 1493 l 1,20,-1
 726 1360 l 1,13,-1
EndSplineSet
EndChar
StartChar: acute
Encoding: 180 180 141
Width: 1234
VWidth: 3393
Flags: W
HStem: 1263 376<767 1208>
VStem: 570 638<1263 1639>
Fore
1208 1639 m 1,0,-1
 767 1263 l 1,1,-1
 570 1263 l 1,2,-1
 890 1639 l 1,3,-1
 1208 1639 l 1,0,-1
EndSplineSet
EndChar
StartChar: dieresis
Encoding: 168 168 142
Width: 1234
VWidth: 3393
Flags: W
HStem: 1341 246<466 651 858 1049>
VStem: 418 679<1341 1587>
Fore
1097 1587 m 1,0,-1
 1049 1341 l 1,1,-1
 810 1341 l 1,2,-1
 858 1587 l 1,3,-1
 1097 1587 l 1,0,-1
703 1587 m 1,4,-1
 651 1341 l 1,5,-1
 418 1341 l 1,6,-1
 466 1587 l 1,7,-1
 703 1587 l 1,4,-1
EndSplineSet
EndChar
StartChar: notequal
Encoding: 8800 8800 143
Width: 1234
VWidth: 3393
Flags: W
HStem: -10 21G<222.93 262.721> 295 239<192 303 778 1220> 754 234<288 737 1204 1317>
Fore
946 988 m 1,0,-1
 1266 1292 l 1,1,-1
 1388 1168 l 1,2,-1
 1204 988 l 1,3,-1
 1367 988 l 1,4,-1
 1317 754 l 1,5,-1
 1002 754 l 1,6,-1
 778 534 l 1,7,-1
 1271 534 l 1,8,-1
 1220 295 l 1,9,-1
 558 295 l 1,10,-1
 242 -10 l 1,11,-1
 119 119 l 1,12,-1
 303 295 l 1,13,-1
 141 295 l 1,14,-1
 192 534 l 1,15,-1
 515 534 l 1,16,-1
 737 754 l 1,17,-1
 238 754 l 1,18,-1
 288 988 l 1,19,-1
 946 988 l 1,0,-1
EndSplineSet
EndChar
StartChar: AE
Encoding: 198 198 144
Width: 1234
VWidth: 3393
Flags: W
HStem: 0 262<780 1039> 363 234<366 547> 661 262<910 1120> 1234 259<638 719 971 1263>
Fore
1263 1234 m 1,0,-1
 971 1234 l 1,1,-1
 910 923 l 1,2,-1
 1171 923 l 1,3,-1
 1120 661 l 1,4,-1
 858 661 l 1,5,-1
 780 262 l 1,6,-1
 1092 262 l 1,7,-1
 1039 0 l 1,8,-1
 476 0 l 1,9,-1
 547 363 l 1,10,-1
 265 363 l 1,11,-1
 109 0 l 1,12,-1
 -149 0 l 1,13,-1
 502 1493 l 1,14,-1
 1314 1493 l 1,15,-1
 1263 1234 l 1,0,-1
366 597 m 1,16,-1
 593 597 l 1,17,-1
 719 1234 l 1,18,-1
 638 1234 l 1,19,-1
 366 597 l 1,16,-1
EndSplineSet
EndChar
StartChar: Oslash
Encoding: 216 216 145
Width: 1234
VWidth: 3393
Flags: W
HStem: -30 264<417.032 648.203> 1263 258<589.565 814.297>
Fore
376 353 m 1,0,1
 414 234 414 234 525 234 c 0,2,3
 655 234 655 234 729 386 c 0,4,5
 807 543 807 543 858 890 c 1,6,-1
 376 353 l 1,0,1
78 295 m 1,7,8
 61 370 61 370 61 441 c 0,9,10
 61 550 61 550 73 655.5 c 128,-1,11
 85 761 85 761 109 865 c 0,12,13
 162 1082 162 1082 244 1228 c 0,14,15
 323 1370 323 1370 448 1445.5 c 128,-1,16
 573 1521 573 1521 732 1521 c 0,17,18
 943 1521 943 1521 1065 1392 c 1,19,-1
 1218 1561 l 1,20,-1
 1357 1445 l 1,21,-1
 1153 1218 l 1,22,23
 1160 1160 1160 1160 1165.5 1112.5 c 128,-1,24
 1171 1065 1171 1065 1171 1021 c 0,25,26
 1171 958 1171 958 1165.5 886.5 c 128,-1,27
 1160 815 1160 815 1143 736 c 0,28,29
 1117 597 1117 597 1081.5 480 c 128,-1,30
 1046 363 1046 363 991 265 c 0,31,32
 913 123 913 123 787 46.5 c 128,-1,33
 661 -30 661 -30 505 -30 c 0,34,35
 278 -30 278 -30 159 119 c 1,36,-1
 0 -65 l 1,37,-1
 -143 51 l 1,38,-1
 78 295 l 1,7,8
852 1153 m 1,39,40
 815 1263 815 1263 709 1263 c 0,41,42
 587 1263 587 1263 509 1114 c 0,43,44
 431 968 431 968 379 631 c 1,45,-1
 852 1153 l 1,39,40
EndSplineSet
EndChar
StartChar: infinity
Encoding: 8734 8734 146
Width: 1234
VWidth: 3393
Flags: W
HStem: 224 197<335.405 507.861 918.966 1087.48> 842 200<411.399 583.88 984.686 1166.66>
VStem: 132 189<432.238 594.461> 1184 187<594.73 808.044>
Fore
860 631 m 1,0,1
 899 421 899 421 992 421 c 0,2,3
 1050 421 1050 421 1102 480.5 c 128,-1,4
 1154 540 1154 540 1174 635 c 256,5,6
 1184 680 1184 680 1184 718 c 128,-1,7
 1184 756 1184 756 1167 799 c 128,-1,8
 1150 842 1150 842 1092 842 c 0,9,10
 973 842 973 842 860 631 c 1,0,1
321 546 m 0,11,12
 321 421 321 421 409 421 c 0,13,14
 513 421 513 421 640 635 c 1,15,16
 616 761 616 761 584 800 c 0,17,18
 558 842 558 842 504.5 842 c 128,-1,19
 451 842 451 842 397 784 c 0,20,21
 351 726 351 726 331 631 c 256,22,23
 321 584 321 584 321 546 c 0,11,12
795 832 m 1,24,25
 924 1042 924 1042 1124 1042 c 0,26,27
 1267 1042 1267 1042 1335 930 c 0,28,29
 1371 865 1371 865 1371 786.5 c 0,30,31
 1371 507.465 1371 507.465 1204 339 c 0,32,33
 1090 224 1090 224 951 224 c 0,34,35
 863 224 863 224 807 272 c 128,-1,36
 751 320 751 320 709 428 c 1,37,38
 553 224 553 224 381 224 c 0,39,40
 242 224 242 224 173 340 c 0,41,42
 132 407 132 407 132 484.5 c 128,-1,43
 132 562 132 562 147 631 c 0,44,45
 188 822 188 822 298 932 c 128,-1,46
 408 1042 408 1042 551 1042 c 0,47,48
 736 1042 736 1042 795 832 c 1,24,25
EndSplineSet
EndChar
StartChar: plusminus
Encoding: 177 177 147
Width: 1234
VWidth: 3393
Flags: W
HStem: 0 237<88 1147> 696 234<88 499 736 1147>
VStem: 499 237<340 696 930 1286>
Fore
736 930 m 1,0,-1
 1147 930 l 1,1,-1
 1147 696 l 1,2,-1
 736 696 l 1,3,-1
 736 340 l 1,4,-1
 499 340 l 1,5,-1
 499 696 l 1,6,-1
 88 696 l 1,7,-1
 88 930 l 1,8,-1
 499 930 l 1,9,-1
 499 1286 l 1,10,-1
 736 1286 l 1,11,-1
 736 930 l 1,0,-1
1147 237 m 1,12,-1
 1147 0 l 1,13,-1
 88 0 l 1,14,-1
 88 237 l 1,15,-1
 1147 237 l 1,12,-1
EndSplineSet
EndChar
StartChar: lessequal
Encoding: 8804 8804 148
Width: 1234
VWidth: 3393
Flags: W
HStem: 0 237<138 1147>
Fore
565 739 m 1,0,-1
 1259 529 l 1,1,-1
 1208 288 l 1,2,-1
 221 625 l 1,3,-1
 270 858 l 1,4,-1
 1401 1195 l 1,5,-1
 1349 949 l 1,6,-1
 565 739 l 1,0,-1
1147 0 m 1,7,-1
 88 0 l 1,8,-1
 138 237 l 1,9,-1
 1197 237 l 1,10,-1
 1147 0 l 1,7,-1
EndSplineSet
EndChar
StartChar: greaterequal
Encoding: 8805 8805 149
Width: 1234
VWidth: 3393
Flags: W
HStem: 0 237<138 1147>
Fore
342 1195 m 1,0,-1
 1329 858 l 1,1,-1
 1280 625 l 1,2,-1
 149 288 l 1,3,-1
 200 529 l 1,4,-1
 985 739 l 1,5,-1
 290 949 l 1,6,-1
 342 1195 l 1,0,-1
1197 237 m 1,7,-1
 1147 0 l 1,8,-1
 88 0 l 1,9,-1
 138 237 l 1,10,-1
 1197 237 l 1,7,-1
EndSplineSet
EndChar
StartChar: yen
Encoding: 165 165 150
Width: 1234
VWidth: 3393
Flags: W
HStem: 0 21G<298 596.936> 437 191<7 383 719 1092> 780 188<75 298 971 1157> 1473 20G<126 449.8 1015.3 1344>
Fore
444 1493 m 1,0,-1
 618 893 l 1,1,-1
 1029 1493 l 1,2,-1
 1344 1493 l 1,3,-1
 971 968 l 1,4,-1
 1195 968 l 1,5,-1
 1157 780 l 1,6,-1
 835 780 l 1,7,-1
 719 628 l 1,8,-1
 1127 628 l 1,9,-1
 1092 437 l 1,10,-1
 679 437 l 1,11,-1
 593 0 l 1,12,-1
 298 0 l 1,13,-1
 383 437 l 1,14,-1
 -30 437 l 1,15,-1
 7 628 l 1,16,-1
 418 628 l 1,17,-1
 360 780 l 1,18,-1
 38 780 l 1,19,-1
 75 968 l 1,20,-1
 298 968 l 1,21,-1
 126 1493 l 1,22,-1
 444 1493 l 1,0,-1
EndSplineSet
EndChar
StartChar: mu
Encoding: 181 181 151
Width: 1234
VWidth: 3393
Flags: W
HStem: -428 21G<-55 237.895> -30 244<423.359 617.695> 1100 20G<245.072 537 854.112 1147>
Fore
249 1120 m 1,0,-1
 537 1120 l 1,1,-1
 404 441 l 2,2,3
 398 414 398 414 394.5 388.5 c 128,-1,4
 391 363 391 363 391 346 c 0,5,6
 391 282 391 282 426.5 248 c 128,-1,7
 462 214 462 214 519 214 c 0,8,9
 683 214 683 214 726 441 c 2,10,-1
 858 1120 l 1,11,-1
 1147 1120 l 1,12,-1
 998 343 l 2,13,14
 988 278 988 278 988 268 c 0,15,16
 988 214 988 214 1029 214 c 0,17,18
 1049 214 1049 214 1092 237 c 1,19,-1
 1049 17 l 1,20,21
 953 -30 953 -30 886 -30 c 0,22,23
 751 -30 751 -30 726 129 c 1,24,25
 618 -30 618 -30 479 -30 c 0,26,27
 360 -30 360 -30 330 65 c 1,28,-1
 234 -428 l 1,29,-1
 -55 -428 l 1,30,-1
 249 1120 l 1,0,-1
EndSplineSet
EndChar
StartChar: partialdiff
Encoding: 8706 8706 152
Width: 1234
VWidth: 3393
Flags: W
HStem: -23 68<456.246 658.974> 761 81<671.622 874.323> 1221 129<920.023 1089.3>
VStem: 216 218<113.051 329.204> 1099 178<882.465 1185.38>
Fore
1099 1115 m 0,0,1
 1099 1221 1099 1221 1034 1221 c 0,2,3
 989 1221 989 1221 872 1150 c 0,4,5
 757 1075 757 1075 706.5 1075 c 128,-1,6
 656 1075 656 1075 637 1101.5 c 128,-1,7
 618 1128 618 1128 618 1148 c 0,8,9
 618 1237 618 1237 722.5 1293.5 c 128,-1,10
 827 1350 827 1350 951 1350 c 0,11,12
 1149 1350 1149 1350 1231 1188 c 0,13,14
 1277 1098 1277 1098 1277 985.5 c 128,-1,15
 1277 873 1277 873 1253 757 c 0,16,17
 1180 414 1180 414 977.5 195.5 c 128,-1,18
 775 -23 775 -23 535 -23 c 0,19,20
 361 -23 361 -23 277 88 c 0,21,22
 216 171 216 171 216 281 c 0,23,24
 216 328 216 328 227 379 c 0,25,26
 270 583 270 583 413 709 c 0,27,28
 558 842 558 842 729 842 c 0,29,30
 830 842 830 842 887.5 799.5 c 128,-1,31
 945 757 945 757 972 661 c 1,32,33
 1099 964 1099 964 1099 1115 c 0,0,1
881 519 m 0,34,35
 894 581 894 581 894 628 c 0,36,37
 894 761 894 761 783 761 c 0,38,39
 684 761 684 761 587 625 c 256,40,41
 490 489 490 489 446 282 c 0,42,43
 434 223 434 223 434 179 c 0,44,45
 434 45 434 45 547 45 c 0,46,47
 648 45 648 45 741 181 c 0,48,49
 836 305 836 305 881 519 c 0,34,35
EndSplineSet
EndChar
StartChar: summation
Encoding: 8721 8721 153
Width: 1234
VWidth: 3393
Flags: W
HStem: -437 213<389 1014> 1306 215<719 1367>
Fore
420 1382 m 1,0,-1
 449 1521 l 1,1,-1
 1412 1521 l 1,2,-1
 1367 1306 l 1,3,-1
 719 1306 l 1,4,-1
 1011 570 l 1,5,-1
 389 -224 l 1,6,-1
 1059 -224 l 1,7,-1
 1014 -437 l 1,8,-1
 33 -437 l 1,9,-1
 62 -302 l 1,10,-1
 742 570 l 1,11,-1
 420 1382 l 1,0,-1
EndSplineSet
EndChar
StartChar: product
Encoding: 8719 8719 154
Width: 1234
VWidth: 3393
Flags: W
HStem: 1314 207<687 1104>
Fore
989 -437 m 1,0,-1
 732 -437 l 1,1,-1
 1104 1314 l 1,2,-1
 687 1314 l 1,3,-1
 315 -437 l 1,4,-1
 59 -437 l 1,5,-1
 475 1521 l 1,6,-1
 1405 1521 l 1,7,-1
 989 -437 l 1,0,-1
EndSplineSet
EndChar
StartChar: pi
Encoding: 960 960 155
Width: 1234
VWidth: 3393
Flags: W
HStem: -41 210<1046.82 1212.12> 893 211<13 176 462 736 1021 1185>
VStem: 176 286<0 893> 736 285<200.87 234 268 893>
Fore
1185 893 m 1,0,-1
 1021 893 l 1,1,-1
 1021 363 l 2,2,3
 1021 227 1021 227 1046 200 c 0,4,5
 1072 169 1072 169 1140 169 c 0,6,7
 1168 169 1168 169 1183 169 c 128,-1,8
 1198 169 1198 169 1215 172 c 1,9,-1
 1215 -13 l 1,10,11
 1123 -41 1123 -41 1017 -41 c 0,12,13
 855 -41 855 -41 794 27 c 0,14,15
 761 61 761 61 751 101 c 0,16,17
 736 143 736 143 736 234 c 2,18,-1
 736 268 l 1,19,-1
 736 893 l 1,20,-1
 462 893 l 1,21,-1
 462 0 l 1,22,-1
 176 0 l 1,23,-1
 176 893 l 1,24,-1
 13 893 l 1,25,-1
 13 1104 l 1,26,-1
 1185 1104 l 1,27,-1
 1185 893 l 1,0,-1
EndSplineSet
EndChar
StartChar: integral
Encoding: 8747 8747 156
Width: 1234
VWidth: 3393
Flags: W
HStem: -373 121<163.5 368.089> 1438 116<1115.79 1326>
Fore
304 -145 m 1,0,-1
 292 -228 l 1,1,2
 292 -233 292 -233 293 -237 c 1,3,4
 292 -252 292 -252 312 -252 c 0,5,6
 418 -252 418 -252 568 386 c 0,7,8
 599 504 599 504 620 600 c 0,9,10
 744 1107 744 1107 898 1330.5 c 128,-1,11
 1052 1554 1052 1554 1273 1554 c 0,12,13
 1379 1554 1379 1554 1420 1506 c 0,14,15
 1457 1469 1457 1469 1457 1416 c 0,16,17
 1457 1330 1457 1330 1402 1288 c 128,-1,18
 1347 1246 1347 1246 1286 1246 c 0,19,20
 1195 1246 1195 1246 1187 1337 c 1,21,22
 1192 1362 1192 1362 1192 1392 c 1,23,24
 1202 1438 1202 1438 1171 1438 c 0,25,26
 1073 1438 1073 1438 918 804 c 0,27,28
 906 747 906 747 895 702.5 c 2,29,-1
 818 411 l 2,30,31
 727.885 76.2856 727.885 76.2856 636 -71 c 0,32,33
 458 -373 458 -373 209 -373 c 0,34,35
 118 -373 118 -373 64 -326 c 0,36,37
 25 -287 25 -287 25 -218.5 c 128,-1,38
 25 -150 25 -150 79 -105.5 c 128,-1,39
 133 -61 133 -61 194 -61 c 128,-1,40
 255 -61 255 -61 283 -91 c 256,41,42
 304 -116 304 -116 304 -145 c 1,0,-1
EndSplineSet
EndChar
StartChar: ordfeminine
Encoding: 170 170 157
Width: 1234
VWidth: 3393
Flags: W
HStem: 428 169<249 900> 699 139<456.5 682.139> 1089 145<541.277 810> 1370 151<500.359 835.654>
VStem: 275 217<860.978 1039.27>
Fore
943 719 m 1,0,-1
 736 719 l 1,1,-1
 757 804 l 1,2,3
 664 699 664 699 509 699 c 0,4,5
 404 699 404 699 336 761 c 0,6,7
 275 822 275 822 275 926 c 0,8,9
 275 1075 275 1075 385 1154.5 c 128,-1,10
 495 1234 495 1234 706 1234 c 2,11,-1
 842 1234 l 1,12,-1
 848 1269 l 1,13,-1
 848 1286 l 2,14,15
 848 1370 848 1370 706 1370 c 0,16,17
 590 1370 590 1370 418 1292 c 1,18,-1
 451 1466 l 1,19,20
 611 1521 611 1521 739 1521 c 0,21,22
 890 1521 890 1521 971 1469.5 c 128,-1,23
 1052 1418 1052 1418 1052 1324 c 0,24,25
 1052 1289 1052 1289 1049 1255 c 128,-1,26
 1046 1221 1046 1221 1032 1168 c 2,27,-1
 943 719 l 1,0,-1
732 1089 m 1,28,29
 492 1089 492 1089 492 940 c 0,30,31
 492 896 492 896 521 867 c 128,-1,32
 550 838 550 838 593 838 c 0,33,34
 771 838 771 838 810 1089 c 1,35,-1
 732 1089 l 1,28,29
936 597 m 1,36,-1
 900 428 l 1,37,-1
 210 428 l 1,38,-1
 249 597 l 1,39,-1
 936 597 l 1,36,-1
EndSplineSet
EndChar
StartChar: ordmasculine
Encoding: 186 186 158
Width: 1234
VWidth: 3393
Flags: W
HStem: 428 169<255 910> 699 163<555.661 752.896> 1357 164<622.439 823.695>
VStem: 308 211<901.264 1232.59> 858 211<988.024 1319.91>
Fore
308 1017 m 0,0,1
 308 1249 308 1249 428 1382 c 0,2,3
 543 1521 543 1521 739 1521 c 0,4,5
 896 1521 896 1521 982.5 1439 c 128,-1,6
 1069 1357 1069 1357 1069 1205 c 0,7,8
 1069 978 1069 978 949 838 c 256,9,10
 832 699 832 699 638 699 c 0,11,12
 482 699 482 699 395 782 c 128,-1,13
 308 865 308 865 308 1017 c 0,0,1
858 1198 m 0,14,15
 858 1276 858 1276 822.5 1316.5 c 128,-1,16
 787 1357 787 1357 726 1357 c 0,17,18
 641 1357 641 1357 580 1263 c 256,19,20
 519 1168 519 1168 519 1021 c 0,21,22
 519 946 519 946 554.5 904 c 128,-1,23
 590 862 590 862 648 862 c 0,24,25
 736 862 736 862 797 961 c 0,26,27
 858 1052 858 1052 858 1198 c 0,14,15
943 597 m 1,28,-1
 910 428 l 1,29,-1
 220 428 l 1,30,-1
 255 597 l 1,31,-1
 943 597 l 1,28,-1
EndSplineSet
EndChar
StartChar: Omega
Encoding: 937 937 159
Width: 1234
VWidth: 3393
Flags: W
HStem: 0 210<91 330 906 1143> 1195 268<509.627 722.722>
VStem: 101 300<472.209 1049.62> 832 301<478.668 1049.62>
Fore
330 210 m 1,0,1
 210 320 210 320 152 454 c 0,2,3
 101 593 101 593 101 784 c 0,4,5
 101 1100 101 1100 240 1279 c 0,6,7
 379 1463 379 1463 615 1463 c 0,8,9
 852 1463 852 1463 994 1279 c 0,10,11
 1133 1092 1133 1092 1133 784 c 0,12,13
 1133 587 1133 587 1079 454 c 0,14,15
 1029 323 1029 323 906 210 c 1,16,-1
 1143 210 l 1,17,-1
 1143 0 l 1,18,-1
 673 0 l 1,19,-1
 673 268 l 1,20,21
 754 346 754 346 793 463 c 128,-1,22
 832 580 832 580 832 751 c 0,23,24
 832 964 832 964 775.5 1079.5 c 128,-1,25
 719 1195 719 1195 618 1195 c 256,26,27
 515 1195 515 1195 458 1079.5 c 128,-1,28
 401 964 401 964 401 751 c 0,29,30
 401 421 401 421 563 268 c 1,31,-1
 563 0 l 1,32,-1
 91 0 l 1,33,-1
 91 210 l 1,34,-1
 330 210 l 1,0,1
EndSplineSet
EndChar
StartChar: ae
Encoding: 230 230 160
Width: 1234
VWidth: 3393
Flags: W
HStem: -30 211<213.039 395.81 757.981 1001.8> 479 214<258.34 479 767 991> 933 214<252.93 518.998 833.361 1001.71>
VStem: -30 217<206.514 409.184> 1011 220<741.416 924.774>
Fore
479 479 m 1,0,-1
 404 479 l 2,1,2
 305 479 305 479 249 428 c 0,3,4
 187 376 187 376 187 292 c 0,5,6
 187 240 187 240 218 210.5 c 128,-1,7
 249 181 249 181 295 181 c 0,8,9
 363 181 363 181 402 231.5 c 128,-1,10
 441 282 441 282 466 401 c 2,11,-1
 479 479 l 1,0,-1
1004 757 m 2,12,13
 1007 774 1007 774 1009 790.5 c 128,-1,14
 1011 807 1011 807 1011 835 c 0,15,16
 1011 933 1011 933 926 933 c 0,17,18
 815 933 815 933 780 761 c 2,19,-1
 767 689 l 1,20,-1
 991 689 l 1,21,-1
 1004 757 l 2,12,13
726 479 m 1,22,23
 719 431 719 431 716 402 c 128,-1,24
 713 373 713 373 713 356 c 0,25,26
 713 275 713 275 755 228 c 128,-1,27
 797 181 797 181 865 181 c 0,28,29
 923 181 923 181 991 209 c 128,-1,30
 1059 237 1059 237 1127 288 c 1,31,-1
 1079 51 l 1,32,33
 964 -30 964 -30 804 -30 c 0,34,35
 709 -30 709 -30 643 14 c 128,-1,36
 577 58 577 58 543 136 c 1,37,38
 421 -30 421 -30 249 -30 c 0,39,40
 123 -30 123 -30 45 51 c 0,41,42
 -30 126 -30 126 -30 262 c 0,43,44
 -30 457 -30 457 91 573 c 0,45,46
 210 693 210 693 418 693 c 2,47,-1
 525 693 l 1,48,-1
 537 751 l 2,49,50
 540 767 540 767 541.5 778.5 c 128,-1,51
 543 790 543 790 543 807 c 0,52,53
 543 933 543 933 408 933 c 0,54,55
 305 933 305 933 133 832 c 1,56,-1
 181 1069 l 1,57,58
 326 1147 326 1147 472 1147 c 0,59,60
 641 1147 641 1147 696 1014 c 1,61,62
 797 1147 797 1147 971 1147 c 0,63,64
 1097 1147 1097 1147 1164 1077 c 128,-1,65
 1231 1007 1231 1007 1231 878 c 0,66,67
 1231 774 1231 774 1198 608 c 2,68,-1
 1178 479 l 1,69,-1
 726 479 l 1,22,23
EndSplineSet
EndChar
StartChar: oslash
Encoding: 248 248 161
Width: 1234
VWidth: 3393
Flags: W
HStem: -30 237<447.356 692.762> 913 237<544.326 787.802>
Fore
434 265 m 1,0,1
 482 207 482 207 560 207 c 0,2,3
 683 207 683 207 759 327 c 128,-1,4
 835 447 835 447 852 673 c 1,5,-1
 434 265 l 1,0,1
129 210 m 1,6,7
 88 302 88 302 88 421 c 0,8,9
 88 754 88 754 255 949 c 0,10,11
 418 1150 418 1150 689 1150 c 0,12,13
 868 1150 868 1150 1001 1049 c 1,14,-1
 1195 1234 l 1,15,-1
 1314 1117 l 1,16,-1
 1107 913 l 1,17,18
 1147 819 1147 819 1147 696 c 0,19,20
 1147 366 1147 366 981 169 c 0,21,22
 810 -30 810 -30 543 -30 c 0,23,24
 356 -30 356 -30 234 71 c 1,25,-1
 33 -119 l 1,26,-1
 -81 3 l 1,27,-1
 129 210 l 1,6,7
800 858 m 1,28,29
 754 913 754 913 676 913 c 0,30,31
 553 913 553 913 477 796 c 128,-1,32
 401 679 401 679 383 454 c 1,33,-1
 800 858 l 1,28,29
EndSplineSet
EndChar
StartChar: questiondown
Encoding: 191 191 162
Width: 1234
VWidth: 3393
Flags: W
HStem: -27 237<393.151 690.925> 1211 282<673 886>
Fore
862 1092 m 1,0,-1
 832 940 l 2,1,2
 819 845 819 845 771 774 c 0,3,4
 747 736 747 736 713 698.5 c 128,-1,5
 679 661 679 661 631 621 c 2,6,-1
 525 529 l 1,7,-1
 512 515 l 2,8,9
 370 394 370 394 370 330 c 0,10,11
 370 210 370 210 515 210 c 0,12,13
 693 210 693 210 926 353 c 1,14,-1
 872 85 l 1,15,16
 771 30 771 30 665.5 1.5 c 128,-1,17
 560 -27 560 -27 454 -27 c 0,18,19
 288 -27 288 -27 191 55 c 0,20,21
 91 133 91 133 91 272 c 0,22,23
 91 376 91 376 139 451 c 0,24,25
 194 540 194 540 305 631 c 2,26,-1
 411 719 l 1,27,-1
 418 726 l 2,28,29
 547 828 547 828 570 971 c 2,30,-1
 593 1092 l 1,31,-1
 862 1092 l 1,0,-1
618 1211 m 1,32,-1
 673 1493 l 1,33,-1
 940 1493 l 1,34,-1
 886 1211 l 1,35,-1
 618 1211 l 1,32,-1
EndSplineSet
EndChar
StartChar: exclamdown
Encoding: 161 161 163
Width: 1234
VWidth: 3393
Flags: W
HStem: 0 21G<340 608.878> 1211 282<631 842>
VStem: 340 556<0 1493>
Fore
573 1211 m 1,0,-1
 631 1493 l 1,1,-1
 896 1493 l 1,2,-1
 842 1211 l 1,3,-1
 573 1211 l 1,0,-1
340 0 m 1,4,-1
 466 655 l 1,5,-1
 567 1014 l 1,6,-1
 767 1014 l 1,7,-1
 732 655 l 1,8,-1
 605 0 l 1,9,-1
 340 0 l 1,4,-1
EndSplineSet
EndChar
StartChar: logicalnot
Encoding: 172 172 164
Width: 1234
VWidth: 3393
Flags: W
HStem: 661 239<88 910>
VStem: 910 237<363 661>
Fore
1147 900 m 1,0,-1
 1147 363 l 1,1,-1
 910 363 l 1,2,-1
 910 661 l 1,3,-1
 88 661 l 1,4,-1
 88 900 l 1,5,-1
 1147 900 l 1,0,-1
EndSplineSet
EndChar
StartChar: radical
Encoding: 8730 8730 165
Width: 1234
VWidth: 3393
Flags: W
Fore
232 868 m 1,0,-1
 612 991 l 1,1,-1
 657 411 l 1,2,-1
 1328 1727 l 1,3,-1
 1542 1727 l 1,4,-1
 1498 1521 l 1,5,-1
 1446 1521 l 1,6,-1
 652 -41 l 1,7,-1
 467 -41 l 1,8,-1
 411 722 l 1,9,-1
 256 673 l 1,10,-1
 232 868 l 1,0,-1
EndSplineSet
EndChar
StartChar: florin
Encoding: 402 402 166
Width: 1234
VWidth: 3393
Flags: W
HStem: -428 231<29.8026 300.561> 664 222<220 472 754 1014> 1327 231<870.363 1137.24>
Fore
1153 1276 m 1,0,1
 1072 1327 1072 1327 994 1327 c 0,2,3
 815 1327 815 1327 780 1075 c 2,4,-1
 754 886 l 1,5,-1
 1014 886 l 1,6,-1
 1014 664 l 1,7,-1
 726 664 l 1,8,-1
 631 -48 l 2,9,10
 605 -230 605 -230 506.5 -329 c 128,-1,11
 408 -428 408 -428 244 -428 c 0,12,13
 123 -428 123 -428 13 -376 c 1,14,-1
 13 -143 l 1,15,16
 101 -197 101 -197 172 -197 c 0,17,18
 360 -197 360 -197 391 55 c 2,19,-1
 472 664 l 1,20,-1
 220 664 l 1,21,-1
 220 886 l 1,22,-1
 502 886 l 1,23,-1
 540 1181 l 2,24,25
 563 1360 563 1360 663.5 1459 c 128,-1,26
 764 1558 764 1558 926 1558 c 0,27,28
 1049 1558 1049 1558 1153 1506 c 1,29,-1
 1153 1276 l 1,0,1
EndSplineSet
EndChar
StartChar: approxequal
Encoding: 8776 8776 167
Width: 1234
VWidth: 3393
Flags: W
HStem: 255 224<790.339 1099.06> 376 224<319.05 634.095> 673 223<869.291 1186.96> 797 220<407.965 734.036>
Fore
1226 370 m 1,0,1
 1055 255 1055 255 902 255 c 0,2,3
 811 255 811 255 710 305 c 1,4,5
 701 312 701 312 694.5 313.5 c 128,-1,6
 688 315 688 315 683 320 c 1,7,-1
 615 348 l 2,8,9
 547.333 376 547.333 376 459 376 c 0,10,11
 310 376 310 376 143 258 c 1,12,-1
 191 486 l 1,13,14
 361.066 600 361.066 600 526 600 c 0,15,16
 618.769 600 618.769 600 737 547 c 1,17,18
 746.273 540.818 746.273 540.818 769 534 c 2,19,20
 866 479 866 479 967 479 c 0,21,22
 1103 479 1103 479 1276 605 c 1,23,-1
 1226 370 l 1,0,1
771 736 m 1,24,25
 642 797 642 797 548 797 c 0,26,27
 399 797 399 797 232 676 c 1,28,-1
 280 903 l 1,29,30
 450 1017 450 1017 614 1017 c 0,31,32
 712 1017 712 1017 826 964 c 0,33,34
 845 958 845 958 853 949 c 1,35,36
 954 896 954 896 1040 896 c 128,-1,37
 1126 896 1126 896 1200.5 924.5 c 128,-1,38
 1275 953 1275 953 1364 1021 c 1,39,-1
 1314 787 l 1,40,41
 1141 673 1141 673 991 673 c 0,42,43
 900 673 900 673 798 722 c 0,44,45
 774 736 774 736 771 736 c 1,24,25
EndSplineSet
EndChar
StartChar: Delta
Encoding: 8710 8710 168
Width: 1234
VWidth: 3393
Flags: W
HStem: 0 220<390 940>
Fore
839 1042 m 1,0,-1
 390 220 l 1,1,-1
 940 220 l 1,2,-1
 839 1042 l 1,0,-1
1050 1425 m 1,3,-1
 1243 0 l 1,4,-1
 -7 0 l 1,5,-1
 792 1425 l 1,6,-1
 1050 1425 l 1,3,-1
EndSplineSet
EndChar
StartChar: guillemotleft
Encoding: 171 171 169
Width: 1234
VWidth: 3393
Flags: W
HStem: 143 916<926 1104>
Fore
1059 822 m 1,0,-1
 736 600 l 1,1,-1
 971 379 l 1,2,-1
 926 143 l 1,3,-1
 534 537 l 1,4,-1
 557 664 l 1,5,-1
 1104 1059 l 1,6,-1
 1059 822 l 1,0,-1
605 822 m 1,7,-1
 282 600 l 1,8,-1
 515 379 l 1,9,-1
 472 143 l 1,10,-1
 78 537 l 1,11,-1
 101 664 l 1,12,-1
 648 1059 l 1,13,-1
 605 822 l 1,7,-1
EndSplineSet
EndChar
StartChar: guillemotright
Encoding: 187 187 170
Width: 1234
VWidth: 3393
Flags: W
HStem: 143 916<81 262>
Fore
655 664 m 1,0,-1
 628 537 l 1,1,-1
 81 143 l 1,2,-1
 126 379 l 1,3,-1
 447 600 l 1,4,-1
 214 822 l 1,5,-1
 262 1059 l 1,6,-1
 655 664 l 1,0,-1
1110 664 m 1,7,-1
 1082 537 l 1,8,-1
 537 143 l 1,9,-1
 583 379 l 1,10,-1
 903 600 l 1,11,-1
 673 822 l 1,12,-1
 716 1059 l 1,13,-1
 1110 664 l 1,7,-1
EndSplineSet
EndChar
StartChar: ellipsis
Encoding: 8230 8230 171
Width: 1234
VWidth: 3393
Flags: W
HStem: 0 366<136 353 547 764 960 1178>
Fore
1256 366 m 1,0,-1
 1178 0 l 1,1,-1
 882 0 l 1,2,-1
 960 366 l 1,3,-1
 1256 366 l 1,0,-1
842 366 m 1,4,-1
 764 0 l 1,5,-1
 469 0 l 1,6,-1
 547 366 l 1,7,-1
 842 366 l 1,4,-1
431 366 m 1,8,-1
 353 0 l 1,9,-1
 58 0 l 1,10,-1
 136 366 l 1,11,-1
 431 366 l 1,8,-1
EndSplineSet
EndChar
StartChar: Agrave
Encoding: 192 192 173
Width: 1234
VWidth: 3393
Flags: W
HStem: 0 21G<-113 195.811 763.297 1056> 370 245<454 736> 1473 20G<573.677 944.514>
Fore
454 615 m 1,0,-1
 736 615 l 1,1,-1
 719 1221 l 1,2,-1
 454 615 l 1,0,-1
943 1493 m 1,3,-1
 1056 0 l 1,4,-1
 764 0 l 1,5,-1
 751 370 l 1,6,-1
 350 370 l 1,7,-1
 187 0 l 1,8,-1
 -113 0 l 1,9,-1
 583 1493 l 1,10,-1
 943 1493 l 1,3,-1
910 1635 m 1,11,-1
 729 1635 l 1,12,-1
 502 1901 l 1,13,-1
 764 1901 l 1,14,-1
 910 1635 l 1,11,-1
EndSplineSet
EndChar
StartChar: Atilde
Encoding: 195 195 174
Width: 1234
VWidth: 3393
Flags: W
HStem: 0 21G<-113 195.811 763.297 1056> 370 245<454 736> 1473 20G<573.677 944.514> 1635 150<873.992 1008.57> 1758 146<592.185 718.331>
Fore
454 615 m 1,0,-1
 736 615 l 1,1,-1
 719 1221 l 1,2,-1
 454 615 l 1,0,-1
943 1493 m 1,3,-1
 1056 0 l 1,4,-1
 764 0 l 1,5,-1
 751 370 l 1,6,-1
 350 370 l 1,7,-1
 187 0 l 1,8,-1
 -113 0 l 1,9,-1
 583 1493 l 1,10,-1
 943 1493 l 1,3,-1
732 1723 m 2,11,12
 709 1745 709 1745 692.5 1751.5 c 128,-1,13
 676 1758 676 1758 658 1758 c 0,14,15
 621 1758 621 1758 595.5 1725.5 c 128,-1,16
 570 1693 570 1693 560 1635 c 1,17,-1
 421 1635 l 1,18,19
 447 1765 447 1765 512 1834.5 c 128,-1,20
 577 1904 577 1904 676 1904 c 0,21,22
 739 1904 739 1904 810 1853 c 2,23,-1
 865 1813 l 2,24,25
 900 1785 900 1785 933 1785 c 0,26,27
 1014 1785 1014 1785 1036 1904 c 1,28,-1
 1171 1904 l 1,29,30
 1120 1635 1120 1635 923 1635 c 0,31,32
 886 1635 886 1635 854 1647 c 128,-1,33
 822 1659 822 1659 784 1687 c 2,34,-1
 732 1723 l 2,11,12
EndSplineSet
EndChar
StartChar: Otilde
Encoding: 213 213 175
Width: 1234
VWidth: 3393
Flags: W
HStem: -30 264<419.612 645.526> 1263 258<586.568 813.851> 1635 150<873.992 1008.57> 1758 146<592.185 718.331>
VStem: 61 305<286.195 802.429> 868 303<783.969 1208.03>
Fore
868 1021 m 0,0,1
 868 1263 868 1263 709 1263 c 0,2,3
 583 1263 583 1263 512 1120 c 0,4,5
 489 1082 489 1082 468 1017.5 c 128,-1,6
 447 953 447 953 424 862 c 0,7,8
 366 625 366 625 366 472 c 0,9,10
 366 234 366 234 525 234 c 0,11,12
 645 234 645 234 722 373 c 0,13,14
 771 462 771 462 810 631 c 0,15,16
 868 868 868 868 868 1021 c 0,0,1
61 466 m 0,17,18
 61 664 61 664 113 872 c 0,19,20
 136 974 136 974 170 1063.5 c 128,-1,21
 204 1153 204 1153 249 1231 c 0,22,23
 326 1374 326 1374 449.5 1447.5 c 128,-1,24
 573 1521 573 1521 729 1521 c 0,25,26
 946 1521 946 1521 1058.5 1395 c 128,-1,27
 1171 1269 1171 1269 1171 1032 c 0,28,29
 1171 930 1171 930 1160.5 828 c 128,-1,30
 1150 726 1150 726 1123 621 c 0,31,32
 1072 418 1072 418 991 265 c 0,33,34
 913 123 913 123 787 46.5 c 128,-1,35
 661 -30 661 -30 505 -30 c 0,36,37
 285 -30 285 -30 173 95 c 128,-1,38
 61 220 61 220 61 466 c 0,17,18
732 1723 m 2,39,40
 709 1745 709 1745 692.5 1751.5 c 128,-1,41
 676 1758 676 1758 658 1758 c 0,42,43
 621 1758 621 1758 595.5 1725.5 c 128,-1,44
 570 1693 570 1693 560 1635 c 1,45,-1
 421 1635 l 1,46,47
 447 1765 447 1765 512 1834.5 c 128,-1,48
 577 1904 577 1904 676 1904 c 0,49,50
 739 1904 739 1904 810 1853 c 2,51,-1
 865 1813 l 2,52,53
 900 1785 900 1785 933 1785 c 0,54,55
 1014 1785 1014 1785 1036 1904 c 1,56,-1
 1171 1904 l 1,57,58
 1120 1635 1120 1635 923 1635 c 0,59,60
 886 1635 886 1635 854 1647 c 128,-1,61
 822 1659 822 1659 784 1687 c 2,62,-1
 732 1723 l 2,39,40
EndSplineSet
EndChar
StartChar: OE
Encoding: 338 338 176
Width: 1234
VWidth: 3393
Flags: W
HStem: 0 262<358.572 525 780 1072> 661 262<910 1160> 1234 259<528.634 716 971 1302>
VStem: 30 285<301.293 615.938>
Fore
1072 0 m 1,0,-1
 495 0 l 2,1,2
 244 0 244 0 136 91 c 0,3,4
 30 184 30 184 30 391 c 0,5,6
 30 469 30 469 39 552 c 128,-1,7
 48 635 48 635 65 726 c 256,8,9
 81 819 81 819 105 906.5 c 128,-1,10
 129 994 129 994 159 1082 c 0,11,12
 230 1296 230 1296 353 1394.5 c 128,-1,13
 476 1493 476 1493 664 1493 c 2,14,-1
 1354 1493 l 1,15,-1
 1302 1234 l 1,16,-1
 971 1234 l 1,17,-1
 910 923 l 1,18,-1
 1211 923 l 1,19,-1
 1160 661 l 1,20,-1
 858 661 l 1,21,-1
 780 262 l 1,22,-1
 1123 262 l 1,23,-1
 1072 0 l 1,0,-1
664 1234 m 1,24,25
 495 1234 495 1234 431 1039 c 0,26,27
 404 961 404 961 383.5 882.5 c 128,-1,28
 363 804 363 804 346 716 c 0,29,30
 315 550 315 550 315 434 c 0,31,32
 315 262 315 262 476 262 c 2,33,-1
 525 262 l 1,34,-1
 716 1234 l 1,35,-1
 664 1234 l 1,24,25
EndSplineSet
EndChar
StartChar: oe
Encoding: 339 339 177
Width: 1234
VWidth: 3393
Flags: W
HStem: -30 214<231.648 413.665 788.665 1045.76> 479 214<797 1021> 936 211<358.786 535.26 868.12 1029.32>
VStem: -20 230<203.527 408.889> 1042 221<776.245 927.042>
Fore
1032 757 m 2,0,1
 1042 797 1042 797 1042 835 c 0,2,3
 1042 936 1042 936 958 936 c 0,4,5
 852 936 852 936 810 761 c 2,6,-1
 797 693 l 1,7,-1
 1021 693 l 1,8,-1
 1032 757 l 2,0,1
757 479 m 1,9,10
 747 424 747 424 745.5 398.5 c 128,-1,11
 744 373 744 373 744 356 c 0,12,13
 744 278 744 278 786 231 c 128,-1,14
 828 184 828 184 900 184 c 0,15,16
 1024 184 1024 184 1157 288 c 1,17,-1
 1110 51 l 1,18,19
 994 -30 994 -30 832 -30 c 0,20,21
 736 -30 736 -30 670.5 12.5 c 128,-1,22
 605 55 605 55 583 123 c 1,23,24
 489 -30 489 -30 298 -30 c 0,25,26
 -20 -30 -20 -30 -20 298 c 0,27,28
 -20 366 -20 366 -11.5 442.5 c 128,-1,29
 -3 519 -3 519 13 597 c 0,30,31
 45 764 45 764 98 882 c 0,32,33
 214 1147 214 1147 486 1147 c 0,34,35
 648 1147 648 1147 726 1029 c 1,36,37
 825 1147 825 1147 994 1147 c 0,38,39
 1263 1147 1263 1147 1263 878 c 0,40,41
 1263 780 1263 780 1231 608 c 2,42,-1
 1208 479 l 1,43,-1
 757 479 l 1,9,10
320 184 m 0,44,45
 418 184 418 184 466 323 c 0,46,47
 482 363 482 363 519 560 c 0,48,49
 557 747 557 747 557 797 c 0,50,51
 557 936 557 936 447 936 c 0,52,53
 398 936 398 936 364 904 c 128,-1,54
 330 872 330 872 302 797 c 0,55,56
 288 757 288 757 275 694 c 128,-1,57
 262 631 262 631 244 560 c 0,58,59
 227 479 227 479 218.5 417.5 c 128,-1,60
 210 356 210 356 210 323 c 0,61,62
 210 184 210 184 320 184 c 0,44,45
EndSplineSet
EndChar
StartChar: endash
Encoding: 8211 8211 178
Width: 1234
VWidth: 3393
Flags: W
HStem: 444 249<147 1328>
Fore
1381 693 m 1,0,-1
 1328 444 l 1,1,-1
 94 444 l 1,2,-1
 147 693 l 1,3,-1
 1381 693 l 1,0,-1
EndSplineSet
EndChar
StartChar: emdash
Encoding: 8212 8212 179
Width: 1234
VWidth: 3393
Flags: W
HStem: 444 249<147 1328>
Fore
1381 693 m 1,0,-1
 1328 444 l 1,1,-1
 94 444 l 1,2,-1
 147 693 l 1,3,-1
 1381 693 l 1,0,-1
EndSplineSet
EndChar
StartChar: quotedblleft
Encoding: 8220 8220 180
Width: 1234
VWidth: 3393
Flags: W
HStem: 903 655<344 681>
Fore
344 903 m 1,0,-1
 402 1175 l 1,1,-1
 681 1558 l 1,2,-1
 894 1558 l 1,3,-1
 716 1175 l 1,4,-1
 658 903 l 1,5,-1
 344 903 l 1,0,-1
865 903 m 1,6,-1
 923 1175 l 1,7,-1
 1199 1558 l 1,8,-1
 1413 1558 l 1,9,-1
 1238 1175 l 1,10,-1
 1180 903 l 1,11,-1
 865 903 l 1,6,-1
EndSplineSet
EndChar
StartChar: quotedblright
Encoding: 8221 8221 181
Width: 1234
VWidth: 3393
Flags: W
HStem: 903 655<1078 1413>
Fore
1413 1558 m 1,0,-1
 1355 1286 l 1,1,-1
 1078 903 l 1,2,-1
 865 903 l 1,3,-1
 1044 1286 l 1,4,-1
 1102 1558 l 1,5,-1
 1413 1558 l 1,0,-1
891 1558 m 1,6,-1
 833 1286 l 1,7,-1
 558 903 l 1,8,-1
 341 903 l 1,9,-1
 522 1286 l 1,10,-1
 580 1558 l 1,11,-1
 891 1558 l 1,6,-1
EndSplineSet
EndChar
StartChar: quoteleft
Encoding: 8216 8216 182
Width: 1234
VWidth: 3393
Flags: W
HStem: 903 655<623 962>
VStem: 623 553<903 1558>
Fore
623 903 m 1,0,-1
 681 1175 l 1,1,-1
 962 1558 l 1,2,-1
 1176 1558 l 1,3,-1
 997 1175 l 1,4,-1
 939 903 l 1,5,-1
 623 903 l 1,0,-1
EndSplineSet
EndChar
StartChar: quoteright
Encoding: 8217 8217 183
Width: 1234
VWidth: 3393
Flags: W
HStem: 903 655<840 1176>
VStem: 623 553<903 1558>
Fore
1176 1558 m 1,0,-1
 1118 1286 l 1,1,-1
 840 903 l 1,2,-1
 623 903 l 1,3,-1
 802 1286 l 1,4,-1
 860 1558 l 1,5,-1
 1176 1558 l 1,0,-1
EndSplineSet
EndChar
StartChar: divide
Encoding: 247 247 184
Width: 1234
VWidth: 3393
Flags: W
HStem: 85 313<462 771> 525 239<65 1168> 890 308<462 771>
VStem: 462 309<85 398 890 1198>
Fore
771 1198 m 1,0,-1
 771 890 l 1,1,-1
 462 890 l 1,2,-1
 462 1198 l 1,3,-1
 771 1198 l 1,0,-1
771 398 m 1,4,-1
 771 85 l 1,5,-1
 462 85 l 1,6,-1
 462 398 l 1,7,-1
 771 398 l 1,4,-1
1168 764 m 1,8,-1
 1168 525 l 1,9,-1
 65 525 l 1,10,-1
 65 764 l 1,11,-1
 1168 764 l 1,8,-1
EndSplineSet
EndChar
StartChar: lozenge
Encoding: 9674 9674 185
Width: 1234
VWidth: 3393
Flags: W
VStem: 245 998<593 593>
Fore
356 593 m 1,0,-1
 568 -234 l 1,1,-1
 1127 593 l 1,2,-1
 918 1412 l 1,3,-1
 356 593 l 1,0,-1
1243 593 m 1,4,-1
 516 -479 l 1,5,-1
 245 593 l 1,6,-1
 970 1655 l 1,7,-1
 1243 593 l 1,4,-1
EndSplineSet
EndChar
StartChar: ydieresis
Encoding: 255 255 186
Width: 1234
VWidth: 3393
Flags: W
HStem: -424 224<-45 208.397> 1100 20G<143 440.72 938.07 1259> 1341 246<466 651 858 1049>
Fore
553 -123 m 1,0,1
 495 -220 495 -220 448 -281.5 c 128,-1,2
 401 -343 401 -343 356 -370 c 0,3,4
 278 -424 278 -424 149 -424 c 2,5,-1
 -91 -424 l 1,6,-1
 -45 -200 l 1,7,-1
 71 -200 l 2,8,9
 159 -200 159 -200 210 -169 c 0,10,11
 258 -143 258 -143 320 -30 c 2,12,-1
 360 45 l 1,13,-1
 143 1120 l 1,14,-1
 437 1120 l 1,15,-1
 567 421 l 1,16,-1
 949 1120 l 1,17,-1
 1259 1120 l 1,18,-1
 553 -123 l 1,0,1
1097 1587 m 1,19,-1
 1049 1341 l 1,20,-1
 810 1341 l 1,21,-1
 858 1587 l 1,22,-1
 1097 1587 l 1,19,-1
703 1587 m 1,23,-1
 651 1341 l 1,24,-1
 418 1341 l 1,25,-1
 466 1587 l 1,26,-1
 703 1587 l 1,23,-1
EndSplineSet
EndChar
StartChar: Ydieresis
Encoding: 376 376 187
Width: 1234
VWidth: 3393
Flags: W
HStem: 0 21G<320 614.918> 1473 20G<146 442.802 1026.22 1360> 1655 246<502 686 896 1082>
Fore
437 1493 m 1,0,-1
 625 845 l 1,1,-1
 1039 1493 l 1,2,-1
 1360 1493 l 1,3,-1
 726 587 l 1,4,-1
 611 0 l 1,5,-1
 320 0 l 1,6,-1
 431 587 l 1,7,-1
 146 1493 l 1,8,-1
 437 1493 l 1,0,-1
1130 1901 m 1,9,-1
 1082 1655 l 1,10,-1
 848 1655 l 1,11,-1
 896 1901 l 1,12,-1
 1130 1901 l 1,9,-1
736 1901 m 1,13,-1
 686 1655 l 1,14,-1
 451 1655 l 1,15,-1
 502 1901 l 1,16,-1
 736 1901 l 1,13,-1
EndSplineSet
EndChar
StartChar: fraction
Encoding: 8725 8725 188
Width: 1234
VWidth: 3393
Flags: W
HStem: 1473 20G<1193.39 1447>
Fore
1447 1493 m 1,0,-1
 303 -187 l 1,1,-1
 64 -187 l 1,2,-1
 1207 1493 l 1,3,-1
 1447 1493 l 1,0,-1
EndSplineSet
EndChar
StartChar: currency
Encoding: 164 164 189
Width: 1234
VWidth: 3393
Flags: W
HStem: 302 167<535.814 770.954> 815 169<533.046 772.977>
VStem: 312 167<525.54 760.414> 828 166<525.947 760.292>
Fore
828 645 m 0,0,1
 828 716 828 716 777 767 c 0,2,3
 722 815 722 815 655 815 c 0,4,5
 583 815 583 815 529 767 c 0,6,7
 479 716 479 716 479 645 c 0,8,9
 479 570 479 570 529 519 c 256,10,11
 580 469 580 469 655 469 c 0,12,13
 726 469 726 469 777 519 c 256,14,15
 828 570 828 570 828 645 c 0,0,1
991 1110 m 1,16,-1
 1120 981 l 1,17,-1
 949 810 l 1,18,19
 994 726 994 726 994 641 c 0,20,21
 994 547 994 547 946 479 c 1,22,-1
 1120 308 l 1,23,-1
 988 176 l 1,24,-1
 819 350 l 1,25,26
 751 302 751 302 655 302 c 0,27,28
 577 302 577 302 486 343 c 1,29,-1
 315 176 l 1,30,-1
 187 305 l 1,31,-1
 356 476 l 1,32,33
 312 560 312 560 312 641 c 0,34,35
 312 736 312 736 360 807 c 1,36,-1
 187 978 l 1,37,-1
 320 1110 l 1,38,-1
 482 936 l 1,39,40
 563 984 563 984 655 984 c 0,41,42
 732 984 732 984 822 940 c 1,43,-1
 991 1110 l 1,16,-1
EndSplineSet
EndChar
StartChar: guilsinglleft
Encoding: 8249 8249 190
Width: 1234
VWidth: 3393
Flags: W
HStem: 143 916<845 1040>
VStem: 460 580<537 1059>
Fore
990 822 m 1,0,-1
 668 600 l 1,1,-1
 896 379 l 1,2,-1
 845 143 l 1,3,-1
 460 537 l 1,4,-1
 487 664 l 1,5,-1
 1040 1059 l 1,6,-1
 990 822 l 1,0,-1
EndSplineSet
EndChar
StartChar: guilsinglright
Encoding: 8250 8250 191
Width: 1234
VWidth: 3393
Flags: W
HStem: 143 916<451 646>
VStem: 451 580<143 664>
Fore
1031 664 m 1,0,-1
 1004 537 l 1,1,-1
 451 143 l 1,2,-1
 502 379 l 1,3,-1
 827 600 l 1,4,-1
 596 822 l 1,5,-1
 646 1059 l 1,6,-1
 1031 664 l 1,0,-1
EndSplineSet
EndChar
StartChar: fi
Encoding: 64257 64257 192
Width: 1234
VWidth: 3393
Flags: W
HStem: 0 21G<200 499.241 804 1104.25> 896 224<251 390 733 994> 1266 292<1135 1369> 1334 224<799.13 960>
Fore
1431 1558 m 1,0,-1
 1369 1266 l 1,1,-1
 1073 1266 l 1,2,-1
 1135 1558 l 1,3,-1
 1431 1558 l 1,0,-1
733 1120 m 1,4,-1
 1338 1120 l 1,5,-1
 1100 0 l 1,6,-1
 804 0 l 1,7,-1
 994 896 l 1,8,-1
 685 896 l 1,9,-1
 495 0 l 1,10,-1
 200 0 l 1,11,-1
 390 896 l 1,12,-1
 203 896 l 1,13,-1
 251 1120 l 1,14,-1
 438 1120 l 1,15,-1
 455 1198 l 2,16,17
 498 1402 498 1402 600 1480 c 256,18,19
 701 1558 701 1558 928 1558 c 2,20,-1
 1007 1558 l 1,21,-1
 960 1334 l 1,22,-1
 892 1334 l 2,23,24
 834 1334 834 1334 798 1311 c 0,25,26
 768 1286 768 1286 755 1221 c 2,27,-1
 733 1120 l 1,4,-1
EndSplineSet
Ligature2: "'liga' Standard Ligatures in Latin lookup 19 subtable" f i
EndChar
StartChar: fl
Encoding: 64258 64258 193
Width: 1234
VWidth: 3393
Flags: W
HStem: 0 21G<200 499.241 804 1104.25> 896 224<251 390 733 873> 1334 224<799.13 1088>
Fore
733 1120 m 1,0,-1
 921 1120 l 1,1,-1
 873 896 l 1,2,-1
 685 896 l 1,3,-1
 495 0 l 1,4,-1
 200 0 l 1,5,-1
 390 896 l 1,6,-1
 203 896 l 1,7,-1
 251 1120 l 1,8,-1
 438 1120 l 1,9,-1
 455 1198 l 2,10,11
 498 1402 498 1402 600 1480 c 256,12,13
 701 1558 701 1558 928 1558 c 2,14,-1
 1431 1558 l 1,15,-1
 1100 0 l 1,16,-1
 804 0 l 1,17,-1
 1088 1334 l 1,18,-1
 892 1334 l 2,19,20
 834 1334 834 1334 798 1311 c 0,21,22
 768 1286 768 1286 755 1221 c 2,23,-1
 733 1120 l 1,0,-1
EndSplineSet
Ligature2: "'liga' Standard Ligatures in Latin lookup 19 subtable" f l
EndChar
StartChar: daggerdbl
Encoding: 8225 8225 194
Width: 1234
VWidth: 3393
Flags: W
HStem: 191 223<244 530 832 1116> 882 225<391 676 979 1262> 1473 20G<801.751 1061>
Fore
1061 1493 m 1,0,-1
 979 1107 l 1,1,-1
 1310 1107 l 1,2,-1
 1262 882 l 1,3,-1
 931 882 l 1,4,-1
 832 414 l 1,5,-1
 1163 414 l 1,6,-1
 1116 191 l 1,7,-1
 785 191 l 1,8,-1
 702 -197 l 1,9,-1
 447 -197 l 1,10,-1
 530 191 l 1,11,-1
 197 191 l 1,12,-1
 244 414 l 1,13,-1
 577 414 l 1,14,-1
 676 882 l 1,15,-1
 343 882 l 1,16,-1
 391 1107 l 1,17,-1
 724 1107 l 1,18,-1
 806 1493 l 1,19,-1
 1061 1493 l 1,0,-1
EndSplineSet
EndChar
StartChar: periodcentered
Encoding: 183 183 195
Width: 1234
VWidth: 3393
Flags: W
HStem: 529 367<479 744>
VStem: 408 407<529 896>
Fore
815 896 m 1,0,-1
 744 529 l 1,1,-1
 408 529 l 1,2,-1
 479 896 l 1,3,-1
 815 896 l 1,0,-1
EndSplineSet
EndChar
StartChar: quotesinglbase
Encoding: 8218 8218 196
Width: 1234
VWidth: 3393
Flags: W
HStem: -288 654<519 852>
VStem: 302 550<-288 366>
Fore
852 366 m 1,0,-1
 794 94 l 1,1,-1
 519 -288 l 1,2,-1
 302 -288 l 1,3,-1
 482 94 l 1,4,-1
 540 366 l 1,5,-1
 852 366 l 1,0,-1
EndSplineSet
EndChar
StartChar: quotedblbase
Encoding: 8222 8222 197
Width: 1234
VWidth: 3393
Flags: W
HStem: -288 654<825 1160>
Fore
1160 366 m 1,0,-1
 1102 94 l 1,1,-1
 825 -288 l 1,2,-1
 612 -288 l 1,3,-1
 791 94 l 1,4,-1
 849 366 l 1,5,-1
 1160 366 l 1,0,-1
638 366 m 1,6,-1
 580 94 l 1,7,-1
 305 -288 l 1,8,-1
 88 -288 l 1,9,-1
 269 94 l 1,10,-1
 327 366 l 1,11,-1
 638 366 l 1,6,-1
EndSplineSet
EndChar
StartChar: perthousand
Encoding: 8240 8240 198
Width: 1234
VWidth: 3393
Flags: W
HStem: 0 162<285.756 463.819 899.389 1084.51> 414 163<317.317 498.677 936.124 1117.41> 858 159<422.559 599.119> 1273 159<453.638 636.187>
VStem: 99 167<189.101 323.39> 237 165<1047.45 1223.64> 519 167<214.308 376.76> 657 164<1074.27 1233.23> 722 161<222.03 364.412> 1136 166<211.265 375.616>
Fore
722 288 m 1,0,1
 748 411 748 411 853 494 c 128,-1,2
 958 577 958 577 1069 577 c 256,3,4
 1182 577 1182 577 1255 492 c 0,5,6
 1302 432 1302 432 1302 353 c 0,7,8
 1302 204 1302 204 1168 85 c 0,9,10
 1065 0 1065 0 946 0 c 256,11,12
 828 0 828 0 764 81 c 0,13,14
 716 148 716 148 716 226 c 0,15,16
 716 255 716 255 722 285 c 1,17,-1
 722 288 l 1,0,1
1116 376 m 256,18,19
 1086 414 1086 414 1038.5 414 c 128,-1,20
 991 414 991 414 938 376 c 0,21,22
 883 330 883 330 883 258 c 0,23,24
 883 224 883 224 901 200 c 0,25,26
 927 162 927 162 980 162 c 256,27,28
 1035 162 1035 162 1085.5 205.5 c 128,-1,29
 1136 249 1136 249 1136 316 c 0,30,31
 1136 350 1136 350 1116 376 c 256,18,19
237 1081 m 0,32,33
 237 1239 237 1239 368 1350 c 0,34,35
 473 1432 473 1432 592 1432 c 256,36,37
 712 1432 712 1432 776 1350 c 0,38,39
 821 1290 821 1290 821 1212 c 0,40,41
 821 1058 821 1058 689 940 c 0,42,43
 590 858 590 858 469 858 c 128,-1,44
 348 858 348 858 285 940 c 0,45,46
 237 1001 237 1001 237 1081 c 0,32,33
635 1234 m 0,47,48
 601 1273 601 1273 553 1273 c 128,-1,49
 505 1273 505 1273 453.5 1231 c 128,-1,50
 402 1189 402 1189 402 1116 c 0,51,52
 402 1082 402 1082 422 1059 c 0,53,54
 450 1017 450 1017 503 1017 c 128,-1,55
 556 1017 556 1017 598 1059 c 0,56,57
 657 1108 657 1108 657 1168 c 0,58,59
 657 1201 657 1201 635 1234 c 0,47,48
106 288 m 0,60,61
 132 411 132 411 231 492 c 0,62,63
 340 577 340 577 455 577 c 128,-1,64
 570 577 570 577 639 492 c 256,65,66
 686 432 686 432 686 353 c 0,67,68
 686 204 686 204 552 85 c 0,69,70
 447 0 447 0 330 0 c 256,71,72
 210 0 210 0 147 85 c 0,73,74
 99 146 99 146 99 225 c 0,75,76
 99 255 99 255 106 288 c 0,60,61
461 200 m 256,77,78
 519 250 519 250 519 327 c 0,79,80
 519 349 519 349 495 381.5 c 128,-1,81
 471 414 471 414 418.5 414 c 128,-1,82
 366 414 366 414 316 369.5 c 128,-1,83
 266 325 266 325 266 275.5 c 128,-1,84
 266 226 266 226 287 200 c 256,85,86
 316 162 316 162 364.5 162 c 128,-1,87
 413 162 413 162 461 200 c 256,77,78
1308 1079 m 1,88,-1
 1330 988 l 1,89,-1
 192 567 l 1,90,-1
 174 664 l 1,91,-1
 1308 1079 l 1,88,-1
EndSplineSet
EndChar
StartChar: Acircumflex
Encoding: 194 194 199
Width: 1234
VWidth: 3393
Flags: W
HStem: 0 21G<-113 195.811 763.297 1056> 370 245<454 736> 1473 20G<573.677 944.514>
Fore
454 615 m 1,0,-1
 736 615 l 1,1,-1
 719 1221 l 1,2,-1
 454 615 l 1,0,-1
943 1493 m 1,3,-1
 1056 0 l 1,4,-1
 764 0 l 1,5,-1
 751 370 l 1,6,-1
 350 370 l 1,7,-1
 187 0 l 1,8,-1
 -113 0 l 1,9,-1
 583 1493 l 1,10,-1
 943 1493 l 1,3,-1
988 1901 m 1,11,-1
 1140 1635 l 1,12,-1
 971 1635 l 1,13,-1
 804 1798 l 1,14,-1
 577 1635 l 1,15,-1
 398 1635 l 1,16,-1
 641 1901 l 1,17,-1
 988 1901 l 1,11,-1
EndSplineSet
EndChar
StartChar: Ecircumflex
Encoding: 202 202 200
Width: 1234
VWidth: 3393
Flags: W
HStem: 0 262<376 961> 651 262<502 1029> 1234 259<563 1198>
Fore
30 0 m 1,0,-1
 320 1493 l 1,1,-1
 1249 1493 l 1,2,-1
 1198 1234 l 1,3,-1
 563 1234 l 1,4,-1
 502 913 l 1,5,-1
 1075 913 l 1,6,-1
 1029 651 l 1,7,-1
 451 651 l 1,8,-1
 376 262 l 1,9,-1
 1011 262 l 1,10,-1
 961 0 l 1,11,-1
 30 0 l 1,0,-1
1024 1901 m 1,12,-1
 1178 1635 l 1,13,-1
 1007 1635 l 1,14,-1
 842 1798 l 1,15,-1
 615 1635 l 1,16,-1
 431 1635 l 1,17,-1
 676 1901 l 1,18,-1
 1024 1901 l 1,12,-1
EndSplineSet
EndChar
StartChar: Aacute
Encoding: 193 193 201
Width: 1234
VWidth: 3393
Flags: W
HStem: 0 21G<-113 195.811 763.297 1056> 370 245<454 736> 1473 20G<573.677 944.514>
Fore
454 615 m 1,0,-1
 736 615 l 1,1,-1
 719 1221 l 1,2,-1
 454 615 l 1,0,-1
943 1493 m 1,3,-1
 1056 0 l 1,4,-1
 764 0 l 1,5,-1
 751 370 l 1,6,-1
 350 370 l 1,7,-1
 187 0 l 1,8,-1
 -113 0 l 1,9,-1
 583 1493 l 1,10,-1
 943 1493 l 1,3,-1
1143 1901 m 1,11,-1
 825 1635 l 1,12,-1
 618 1635 l 1,13,-1
 862 1901 l 1,14,-1
 1143 1901 l 1,11,-1
EndSplineSet
EndChar
StartChar: Edieresis
Encoding: 203 203 202
Width: 1234
VWidth: 3393
Flags: W
HStem: 0 262<376 961> 651 262<502 1029> 1234 259<563 1198> 1655 246<543 726 936 1127>
Fore
30 0 m 1,0,-1
 320 1493 l 1,1,-1
 1249 1493 l 1,2,-1
 1198 1234 l 1,3,-1
 563 1234 l 1,4,-1
 502 913 l 1,5,-1
 1075 913 l 1,6,-1
 1029 651 l 1,7,-1
 451 651 l 1,8,-1
 376 262 l 1,9,-1
 1011 262 l 1,10,-1
 961 0 l 1,11,-1
 30 0 l 1,0,-1
1171 1901 m 1,12,-1
 1127 1655 l 1,13,-1
 890 1655 l 1,14,-1
 936 1901 l 1,15,-1
 1171 1901 l 1,12,-1
777 1901 m 1,16,-1
 726 1655 l 1,17,-1
 492 1655 l 1,18,-1
 543 1901 l 1,19,-1
 777 1901 l 1,16,-1
EndSplineSet
EndChar
StartChar: Egrave
Encoding: 200 200 203
Width: 1234
VWidth: 3393
Flags: W
HStem: 0 262<376 961> 651 262<502 1029> 1234 259<563 1198>
Fore
30 0 m 1,0,-1
 320 1493 l 1,1,-1
 1249 1493 l 1,2,-1
 1198 1234 l 1,3,-1
 563 1234 l 1,4,-1
 502 913 l 1,5,-1
 1075 913 l 1,6,-1
 1029 651 l 1,7,-1
 451 651 l 1,8,-1
 376 262 l 1,9,-1
 1011 262 l 1,10,-1
 961 0 l 1,11,-1
 30 0 l 1,0,-1
943 1635 m 1,12,-1
 767 1635 l 1,13,-1
 537 1901 l 1,14,-1
 800 1901 l 1,15,-1
 943 1635 l 1,12,-1
EndSplineSet
EndChar
StartChar: Iacute
Encoding: 205 205 204
Width: 1234
VWidth: 3393
Flags: W
HStem: 0 262<78 376 673 916> 1234 259<320 563 858 1157>
Fore
320 1493 m 1,0,-1
 1208 1493 l 1,1,-1
 1157 1234 l 1,2,-1
 858 1234 l 1,3,-1
 673 262 l 1,4,-1
 968 262 l 1,5,-1
 916 0 l 1,6,-1
 27 0 l 1,7,-1
 78 262 l 1,8,-1
 376 262 l 1,9,-1
 563 1234 l 1,10,-1
 265 1234 l 1,11,-1
 320 1493 l 1,0,-1
1140 1901 m 1,12,-1
 822 1635 l 1,13,-1
 615 1635 l 1,14,-1
 858 1901 l 1,15,-1
 1140 1901 l 1,12,-1
EndSplineSet
EndChar
StartChar: Icircumflex
Encoding: 206 206 205
Width: 1234
VWidth: 3393
Flags: W
HStem: 0 262<78 376 673 916> 1234 259<320 563 858 1157>
Fore
320 1493 m 1,0,-1
 1208 1493 l 1,1,-1
 1157 1234 l 1,2,-1
 858 1234 l 1,3,-1
 673 262 l 1,4,-1
 968 262 l 1,5,-1
 916 0 l 1,6,-1
 27 0 l 1,7,-1
 78 262 l 1,8,-1
 376 262 l 1,9,-1
 563 1234 l 1,10,-1
 265 1234 l 1,11,-1
 320 1493 l 1,0,-1
984 1901 m 1,12,-1
 1137 1635 l 1,13,-1
 968 1635 l 1,14,-1
 800 1798 l 1,15,-1
 570 1635 l 1,16,-1
 391 1635 l 1,17,-1
 635 1901 l 1,18,-1
 984 1901 l 1,12,-1
EndSplineSet
EndChar
StartChar: Idieresis
Encoding: 207 207 206
Width: 1234
VWidth: 3393
Flags: W
HStem: 0 262<78 376 673 916> 1234 259<320 563 858 1157> 1655 246<502 686 896 1082>
Fore
320 1493 m 1,0,-1
 1208 1493 l 1,1,-1
 1157 1234 l 1,2,-1
 858 1234 l 1,3,-1
 673 262 l 1,4,-1
 968 262 l 1,5,-1
 916 0 l 1,6,-1
 27 0 l 1,7,-1
 78 262 l 1,8,-1
 376 262 l 1,9,-1
 563 1234 l 1,10,-1
 265 1234 l 1,11,-1
 320 1493 l 1,0,-1
1130 1901 m 1,12,-1
 1082 1655 l 1,13,-1
 848 1655 l 1,14,-1
 896 1901 l 1,15,-1
 1130 1901 l 1,12,-1
736 1901 m 1,16,-1
 686 1655 l 1,17,-1
 451 1655 l 1,18,-1
 502 1901 l 1,19,-1
 736 1901 l 1,16,-1
EndSplineSet
EndChar
StartChar: Igrave
Encoding: 204 204 207
Width: 1234
VWidth: 3393
Flags: W
HStem: 0 262<78 376 673 916> 1234 259<320 563 858 1157>
Fore
320 1493 m 1,0,-1
 1208 1493 l 1,1,-1
 1157 1234 l 1,2,-1
 858 1234 l 1,3,-1
 673 262 l 1,4,-1
 968 262 l 1,5,-1
 916 0 l 1,6,-1
 27 0 l 1,7,-1
 78 262 l 1,8,-1
 376 262 l 1,9,-1
 563 1234 l 1,10,-1
 265 1234 l 1,11,-1
 320 1493 l 1,0,-1
903 1635 m 1,12,-1
 726 1635 l 1,13,-1
 495 1901 l 1,14,-1
 761 1901 l 1,15,-1
 903 1635 l 1,12,-1
EndSplineSet
EndChar
StartChar: Oacute
Encoding: 211 211 208
Width: 1234
VWidth: 3393
Flags: W
HStem: -30 264<419.612 645.526> 1263 258<586.568 813.851>
VStem: 61 305<286.195 802.429> 868 303<783.969 1208.03>
Fore
868 1021 m 0,0,1
 868 1263 868 1263 709 1263 c 0,2,3
 583 1263 583 1263 512 1120 c 0,4,5
 489 1082 489 1082 468 1017.5 c 128,-1,6
 447 953 447 953 424 862 c 0,7,8
 366 625 366 625 366 472 c 0,9,10
 366 234 366 234 525 234 c 0,11,12
 645 234 645 234 722 373 c 0,13,14
 771 462 771 462 810 631 c 0,15,16
 868 868 868 868 868 1021 c 0,0,1
61 466 m 0,17,18
 61 664 61 664 113 872 c 0,19,20
 136 974 136 974 170 1063.5 c 128,-1,21
 204 1153 204 1153 249 1231 c 0,22,23
 326 1374 326 1374 449.5 1447.5 c 128,-1,24
 573 1521 573 1521 729 1521 c 0,25,26
 946 1521 946 1521 1058.5 1395 c 128,-1,27
 1171 1269 1171 1269 1171 1032 c 0,28,29
 1171 930 1171 930 1160.5 828 c 128,-1,30
 1150 726 1150 726 1123 621 c 0,31,32
 1072 418 1072 418 991 265 c 0,33,34
 913 123 913 123 787 46.5 c 128,-1,35
 661 -30 661 -30 505 -30 c 0,36,37
 285 -30 285 -30 173 95 c 128,-1,38
 61 220 61 220 61 466 c 0,17,18
1143 1901 m 1,39,-1
 825 1635 l 1,40,-1
 618 1635 l 1,41,-1
 862 1901 l 1,42,-1
 1143 1901 l 1,39,-1
EndSplineSet
EndChar
StartChar: Ocircumflex
Encoding: 212 212 209
Width: 1234
VWidth: 3393
Flags: W
HStem: -30 264<419.612 645.526> 1263 258<586.568 813.851>
VStem: 61 305<286.195 802.429> 868 303<783.969 1208.03>
Fore
868 1021 m 0,0,1
 868 1263 868 1263 709 1263 c 0,2,3
 583 1263 583 1263 512 1120 c 0,4,5
 489 1082 489 1082 468 1017.5 c 128,-1,6
 447 953 447 953 424 862 c 0,7,8
 366 625 366 625 366 472 c 0,9,10
 366 234 366 234 525 234 c 0,11,12
 645 234 645 234 722 373 c 0,13,14
 771 462 771 462 810 631 c 0,15,16
 868 868 868 868 868 1021 c 0,0,1
61 466 m 0,17,18
 61 664 61 664 113 872 c 0,19,20
 136 974 136 974 170 1063.5 c 128,-1,21
 204 1153 204 1153 249 1231 c 0,22,23
 326 1374 326 1374 449.5 1447.5 c 128,-1,24
 573 1521 573 1521 729 1521 c 0,25,26
 946 1521 946 1521 1058.5 1395 c 128,-1,27
 1171 1269 1171 1269 1171 1032 c 0,28,29
 1171 930 1171 930 1160.5 828 c 128,-1,30
 1150 726 1150 726 1123 621 c 0,31,32
 1072 418 1072 418 991 265 c 0,33,34
 913 123 913 123 787 46.5 c 128,-1,35
 661 -30 661 -30 505 -30 c 0,36,37
 285 -30 285 -30 173 95 c 128,-1,38
 61 220 61 220 61 466 c 0,17,18
988 1901 m 1,39,-1
 1140 1635 l 1,40,-1
 971 1635 l 1,41,-1
 804 1798 l 1,42,-1
 577 1635 l 1,43,-1
 398 1635 l 1,44,-1
 641 1901 l 1,45,-1
 988 1901 l 1,39,-1
EndSplineSet
EndChar
StartChar: Lslash
Encoding: 321 321 210
Width: 1234
VWidth: 3393
Flags: W
HStem: 0 262<428 1007> 1473 20G<366.122 664>
Fore
176 502 m 1,0,-1
 45 404 l 1,1,-1
 -71 557 l 1,2,-1
 230 771 l 1,3,-1
 370 1493 l 1,4,-1
 664 1493 l 1,5,-1
 570 1014 l 1,6,-1
 822 1188 l 1,7,-1
 936 1032 l 1,8,-1
 519 736 l 1,9,-1
 428 262 l 1,10,-1
 1059 262 l 1,11,-1
 1007 0 l 1,12,-1
 81 0 l 1,13,-1
 176 502 l 1,0,-1
EndSplineSet
EndChar
StartChar: lslash
Encoding: 322 322 211
Width: 1234
VWidth: 3393
Flags: W
HStem: 0 224<662.98 709 709 1004> 1334 224<292 553>
Fore
641 363 m 1,0,1
 635 346 635 346 633 330.5 c 128,-1,2
 631 315 631 315 631 308 c 0,3,4
 631 262 631 262 662 243 c 128,-1,5
 693 224 693 224 771 224 c 2,6,-1
 1049 224 l 1,7,-1
 1004 0 l 1,8,-1
 709 0 l 2,9,10
 505 0 505 0 418 58 c 0,11,12
 333 109 333 109 333 240 c 0,13,14
 333 268 333 268 338 300.5 c 128,-1,15
 343 333 343 333 350 379 c 2,16,-1
 404 641 l 1,17,-1
 126 444 l 1,18,-1
 38 590 l 1,19,-1
 454 875 l 1,20,-1
 553 1334 l 1,21,-1
 249 1334 l 1,22,-1
 292 1558 l 1,23,-1
 890 1558 l 1,24,-1
 797 1104 l 1,25,-1
 1085 1306 l 1,26,-1
 1188 1168 l 1,27,-1
 747 865 l 1,28,-1
 641 363 l 1,0,1
EndSplineSet
EndChar
StartChar: Scaron
Encoding: 352 352 212
Width: 1234
VWidth: 3393
Flags: W
HStem: -30 244<266.769 666.737> 1279 242<569.43 978.399>
VStem: 191 285<998.195 1190.75> 764 301<304.713 551.736>
Fore
505 664 m 1,0,1
 308 751 308 751 252 822 c 0,2,3
 191 893 191 893 191 1021 c 0,4,5
 191 1246 191 1246 353 1382 c 0,6,7
 431 1453 431 1453 536 1487 c 128,-1,8
 641 1521 641 1521 771 1521 c 0,9,10
 978 1521 978 1521 1160 1438 c 1,11,-1
 1104 1153 l 1,12,13
 968 1279 968 1279 744 1279 c 0,14,15
 625 1279 625 1279 550 1221 c 256,16,17
 476 1163 476 1163 476 1079 c 0,18,19
 476 998 476 998 658 910 c 1,20,-1
 664 910 l 1,21,-1
 784 858 l 2,22,23
 930 790 930 790 997.5 699 c 128,-1,24
 1065 608 1065 608 1065 476 c 0,25,26
 1065 249 1065 249 903 109 c 0,27,28
 744 -30 744 -30 469 -30 c 0,29,30
 249 -30 249 -30 3 75 c 1,31,-1
 65 379 l 1,32,33
 162 302 162 302 266 258 c 128,-1,34
 370 214 370 214 479 214 c 0,35,36
 615 214 615 214 689.5 273.5 c 128,-1,37
 764 333 764 333 764 431 c 0,38,39
 764 560 764 560 625 615 c 2,40,-1
 505 664 l 1,0,1
593 1635 m 1,41,-1
 457 1901 l 1,42,-1
 628 1901 l 1,43,-1
 777 1738 l 1,44,-1
 1004 1901 l 1,45,-1
 1188 1901 l 1,46,-1
 943 1635 l 1,47,-1
 593 1635 l 1,41,-1
EndSplineSet
EndChar
StartChar: scaron
Encoding: 353 353 213
Width: 1234
VWidth: 3393
Flags: W
HStem: -30 214<302.433 684.853> 940 207<549.083 928.599>
Fore
597 1263 m 1,0,-1
 414 1639 l 1,1,-1
 587 1639 l 1,2,-1
 744 1412 l 1,3,-1
 981 1639 l 1,4,-1
 1171 1639 l 1,5,-1
 838 1263 l 1,6,-1
 597 1263 l 1,0,-1
1046 832 m 1,7,8
 890 940 890 940 703 940 c 0,9,10
 608 940 608 940 553.5 904 c 128,-1,11
 499 868 499 868 499 810 c 0,12,13
 499 764 499 764 537 736 c 0,14,15
 570 713 570 713 703 673 c 2,16,-1
 774 651 l 2,17,18
 903 615 903 615 962 545.5 c 128,-1,19
 1021 476 1021 476 1021 360 c 0,20,21
 1021 176 1021 176 882 75 c 0,22,23
 747 -30 747 -30 502 -30 c 0,24,25
 285 -30 285 -30 91 41 c 1,26,-1
 143 298 l 1,27,28
 230 240 230 240 324 212 c 128,-1,29
 418 184 418 184 509 184 c 0,30,31
 621 184 621 184 682.5 221 c 128,-1,32
 744 258 744 258 744 326 c 0,33,34
 744 373 744 373 713 398 c 0,35,36
 686 421 686 421 550 462 c 2,37,-1
 462 486 l 2,38,39
 224 553 224 553 224 774 c 0,40,41
 224 936 224 936 360 1046 c 0,42,43
 499 1147 499 1147 722 1147 c 0,44,45
 910 1147 910 1147 1097 1085 c 1,46,-1
 1046 832 l 1,7,8
EndSplineSet
EndChar
StartChar: Zcaron
Encoding: 381 381 214
Width: 1234
VWidth: 3393
Flags: W
HStem: 0 262<366 1014> 1234 259<282 872>
Fore
1292 1493 m 1,0,-1
 1243 1249 l 1,1,-1
 366 262 l 1,2,-1
 1065 262 l 1,3,-1
 1014 0 l 1,4,-1
 -33 0 l 1,5,-1
 13 244 l 1,6,-1
 872 1234 l 1,7,-1
 230 1234 l 1,8,-1
 282 1493 l 1,9,-1
 1292 1493 l 1,0,-1
593 1635 m 1,10,-1
 457 1901 l 1,11,-1
 628 1901 l 1,12,-1
 777 1738 l 1,13,-1
 1004 1901 l 1,14,-1
 1188 1901 l 1,15,-1
 943 1635 l 1,16,-1
 593 1635 l 1,10,-1
EndSplineSet
EndChar
StartChar: zcaron
Encoding: 382 382 215
Width: 1234
VWidth: 3393
Flags: W
HStem: 0 220<437 971> 903 217<292 800>
Fore
597 1263 m 1,0,-1
 414 1639 l 1,1,-1
 587 1639 l 1,2,-1
 744 1412 l 1,3,-1
 981 1639 l 1,4,-1
 1171 1639 l 1,5,-1
 838 1263 l 1,6,-1
 597 1263 l 1,0,-1
1188 1120 m 1,7,-1
 1143 893 l 1,8,-1
 437 220 l 1,9,-1
 1014 220 l 1,10,-1
 971 0 l 1,11,-1
 48 0 l 1,12,-1
 94 230 l 1,13,-1
 800 903 l 1,14,-1
 252 903 l 1,15,-1
 292 1120 l 1,16,-1
 1188 1120 l 1,7,-1
EndSplineSet
EndChar
StartChar: brokenbar
Encoding: 166 166 216
Width: 1234
VWidth: 3393
Flags: W
VStem: 502 227<-350 408 676 1432>
Fore
729 -350 m 1,0,-1
 502 -350 l 1,1,-1
 502 408 l 1,2,-1
 729 408 l 1,3,-1
 729 -350 l 1,0,-1
729 676 m 1,4,-1
 502 676 l 1,5,-1
 502 1432 l 1,6,-1
 729 1432 l 1,7,-1
 729 676 l 1,4,-1
EndSplineSet
EndChar
StartChar: Eth
Encoding: 208 208 217
Width: 1234
VWidth: 3393
Flags: W
HStem: 0 265<340 622> 664 239<30 123 462 628> 1228 265<525 761.497>
VStem: 862 306<872.25 1132.99>
Fore
597 1493 m 2,0,1
 1168 1493 1168 1493 1168 1001 c 0,2,3
 1168 913 1168 913 1152.5 814.5 c 128,-1,4
 1137 716 1137 716 1110 605 c 0,5,6
 1072 451 1072 451 1021.5 345.5 c 128,-1,7
 971 240 971 240 900 172 c 0,8,9
 800 81 800 81 673 41 c 0,10,11
 547 0 547 0 323 0 c 2,12,-1
 -7 0 l 1,13,-1
 123 664 l 1,14,-1
 -17 664 l 1,15,-1
 30 903 l 1,16,-1
 166 903 l 1,17,-1
 282 1493 l 1,18,-1
 597 1493 l 2,0,1
462 903 m 1,19,-1
 673 903 l 1,20,-1
 628 664 l 1,21,-1
 418 664 l 1,22,-1
 340 265 l 1,23,-1
 434 265 l 2,24,25
 655 265 655 265 744 441 c 0,26,27
 797 543 797 543 828 696 c 0,28,29
 845 771 845 771 853.5 837 c 128,-1,30
 862 903 862 903 862 968 c 0,31,32
 862 1228 862 1228 608 1228 c 2,33,-1
 525 1228 l 1,34,-1
 462 903 l 1,19,-1
EndSplineSet
EndChar
StartChar: eth
Encoding: 240 240 218
Width: 1234
VWidth: 3393
Flags: W
HStem: -30 237<442.628 691.916> 822 234<533.016 754.408> 1120 21G<342.632 402.222> 1538 20G<489 782.833>
VStem: 81 295<274.459 640.147> 848 295<407.012 774.262>
Fore
838 780 m 1,0,1
 764 822 764 822 676 822 c 0,2,3
 550 822 550 822 462 709 c 0,4,5
 376 600 376 600 376 428 c 0,6,7
 376 326 376 326 426 266.5 c 128,-1,8
 476 207 476 207 560 207 c 0,9,10
 686 207 686 207 767 333 c 0,11,12
 848 462 848 462 848 655 c 0,13,14
 848 719 848 719 838 780 c 1,0,1
903 1331 m 1,15,16
 1143 971 1143 971 1143 655 c 0,17,18
 1143 346 1143 346 978 159 c 0,19,20
 807 -30 807 -30 540 -30 c 0,21,22
 326 -30 326 -30 200 85 c 0,23,24
 81 204 81 204 81 414 c 0,25,26
 81 689 81 689 240 875 c 0,27,28
 404 1056 404 1056 651 1056 c 0,29,30
 696 1056 696 1056 728.5 1049 c 128,-1,31
 761 1042 761 1042 787 1029 c 1,32,33
 761 1092 761 1092 733.5 1145 c 128,-1,34
 706 1198 706 1198 679 1246 c 1,35,-1
 350 1120 l 1,36,-1
 308 1234 l 1,37,-1
 615 1350 l 1,38,-1
 489 1558 l 1,39,-1
 771 1558 l 1,40,-1
 842 1438 l 1,41,-1
 1168 1554 l 1,42,-1
 1208 1442 l 1,43,-1
 903 1331 l 1,15,16
EndSplineSet
EndChar
StartChar: Thorn
Encoding: 222 222 221
Width: 1234
VWidth: 3393
Flags: W
HStem: 0 21G<17 315.844> 333 247<424 753.979> 1017 249<557 805.903> 1473 20G<304.102 605>
VStem: 858 310<683.829 972.591>
Fore
312 0 m 1,0,-1
 17 0 l 1,1,-1
 308 1493 l 1,2,-1
 605 1493 l 1,3,-1
 557 1266 l 1,4,-1
 683 1266 l 2,5,6
 920 1266 920 1266 1044 1174 c 128,-1,7
 1168 1082 1168 1082 1168 910 c 0,8,9
 1168 800 1168 800 1130 683 c 0,10,11
 1092 567 1092 567 1036 505 c 0,12,13
 961 414 961 414 842 373 c 0,14,15
 726 333 726 333 540 333 c 2,16,-1
 376 333 l 1,17,-1
 312 0 l 1,0,-1
424 580 m 1,18,-1
 570 580 l 2,19,20
 858 580 858 580 858 852 c 0,21,22
 858 940 858 940 807.5 978.5 c 128,-1,23
 757 1017 757 1017 631 1017 c 2,24,-1
 509 1017 l 1,25,-1
 424 580 l 1,18,-1
EndSplineSet
EndChar
StartChar: thorn
Encoding: 254 254 222
Width: 1234
VWidth: 3393
Flags: W
HStem: -428 21G<-38 261.811> -30 240<494.638 714.74> 910 237<686.679 925> 1538 20G<346.093 641>
VStem: 875 296<459.316 853.619>
Fore
605 210 m 0,0,1
 713 210 713 210 794 353 c 256,2,3
 875 495 875 495 875 696 c 0,4,5
 875 797 875 797 834.5 853.5 c 128,-1,6
 794 910 794 910 719 910 c 0,7,8
 608 910 608 910 519 771 c 0,9,10
 437 628 437 628 437 431 c 0,11,12
 437 326 437 326 481 268 c 128,-1,13
 525 210 525 210 605 210 c 0,0,1
258 -428 m 1,14,-1
 -38 -428 l 1,15,-1
 350 1558 l 1,16,-1
 641 1558 l 1,17,-1
 525 953 l 1,18,19
 668 1147 668 1147 852 1147 c 0,20,21
 998 1147 998 1147 1085 1039 c 0,22,23
 1171 930 1171 930 1171 739 c 0,24,25
 1171 611 1171 611 1140.5 482 c 128,-1,26
 1110 353 1110 353 1052 244 c 0,27,28
 981 116 981 116 878 45 c 0,29,30
 767 -30 767 -30 655 -30 c 256,31,32
 543 -30 543 -30 472 32 c 128,-1,33
 401 94 401 94 379 207 c 1,34,-1
 258 -428 l 1,14,-1
EndSplineSet
EndChar
StartChar: minus
Encoding: 8722 8722 223
Width: 1234
VWidth: 3393
Flags: W
HStem: 525 239<227 1280>
Fore
1330 764 m 1,0,-1
 1280 525 l 1,1,-1
 177 525 l 1,2,-1
 227 764 l 1,3,-1
 1330 764 l 1,0,-1
EndSplineSet
EndChar
StartChar: multiply
Encoding: 215 215 224
Width: 1234
VWidth: 3393
Flags: W
HStem: 146 994<288 943>
VStem: 119 995<312 312>
Fore
784 645 m 1,0,-1
 1114 312 l 1,1,-1
 943 146 l 1,2,-1
 615 476 l 1,3,-1
 288 146 l 1,4,-1
 119 312 l 1,5,-1
 447 645 l 1,6,-1
 119 971 l 1,7,-1
 288 1140 l 1,8,-1
 615 810 l 1,9,-1
 943 1140 l 1,10,-1
 1114 971 l 1,11,-1
 784 645 l 1,0,-1
EndSplineSet
EndChar
StartChar: onesuperior
Encoding: 185 185 225
Width: 1234
VWidth: 3393
Flags: W
HStem: 668 147<315 553 751 946> 1314 21G<431.893 534.977> 1483 20G<571.5 882>
VStem: 288 690<668 815>
Fore
553 815 m 1,0,-1
 658 1357 l 1,1,-1
 428 1314 l 1,2,-1
 457 1463 l 1,3,-1
 686 1503 l 1,4,-1
 882 1503 l 1,5,-1
 751 815 l 1,6,-1
 978 815 l 1,7,-1
 946 668 l 1,8,-1
 288 668 l 1,9,-1
 315 815 l 1,10,-1
 553 815 l 1,0,-1
EndSplineSet
EndChar
StartChar: twosuperior
Encoding: 178 178 226
Width: 1234
VWidth: 3393
Flags: W
HStem: 668 147<515 926> 1314 21G<407.704 480.5> 1385 136<468.049 816.23>
VStem: 832 197<1207.51 1364.57>
Fore
953 815 m 1,0,-1
 926 668 l 1,1,-1
 262 668 l 1,2,-1
 288 810 l 1,3,4
 340 848 340 848 431 913 c 0,5,6
 832 1198 832 1198 832 1289 c 0,7,8
 832 1385 832 1385 693 1385 c 0,9,10
 557 1385 557 1385 404 1314 c 1,11,-1
 434 1476 l 1,12,13
 580 1521 580 1521 729 1521 c 0,14,15
 1029 1521 1029 1521 1029 1314 c 0,16,17
 1029 1175 1029 1175 618 886 c 0,18,19
 553 842 553 842 515 815 c 1,20,-1
 953 815 l 1,0,-1
EndSplineSet
EndChar
StartChar: threesuperior
Encoding: 179 179 227
Width: 1234
VWidth: 3393
Flags: W
HStem: 655 139<332.883 746.158> 1042 146<557 756.679> 1334 21G<435.079 515.5> 1382 139<547.291 818.262>
VStem: 800 191<842.633 1016.82> 848 194<1216.72 1358.55>
Fore
529 1042 m 1,0,-1
 557 1188 l 1,1,-1
 664 1188 l 2,2,3
 848 1188 848 1188 848 1296 c 0,4,5
 848 1334 848 1334 807.5 1358 c 128,-1,6
 767 1382 767 1382 699 1382 c 0,7,8
 600 1382 600 1382 431 1334 c 1,9,-1
 462 1486 l 1,10,11
 537 1503 537 1503 606.5 1512 c 128,-1,12
 676 1521 676 1521 744 1521 c 0,13,14
 886 1521 886 1521 964 1469.5 c 128,-1,15
 1042 1418 1042 1418 1042 1331 c 256,16,17
 1042 1243 1042 1243 981 1186.5 c 128,-1,18
 920 1130 920 1130 807 1117 c 1,19,20
 893 1110 893 1110 942 1060.5 c 128,-1,21
 991 1011 991 1011 991 936 c 0,22,23
 991 800 991 800 881 727.5 c 128,-1,24
 771 655 771 655 567 655 c 0,25,26
 418 655 418 655 275 696 c 1,27,-1
 308 848 l 1,28,29
 437 794 437 794 593 794 c 0,30,31
 693 794 693 794 746.5 834.5 c 128,-1,32
 800 875 800 875 800 943 c 0,33,34
 800 991 800 991 758 1016.5 c 128,-1,35
 716 1042 716 1042 641 1042 c 2,36,-1
 529 1042 l 1,0,-1
EndSplineSet
EndChar
StartChar: onequarter
Encoding: 188 188 228
Width: 1234
VWidth: 3393
Flags: W
HStem: -91 146<573 797 1011 1092> 825 146<58 292 492 689>
Fore
292 971 m 1,0,-1
 401 1513 l 1,1,-1
 169 1470 l 1,2,-1
 200 1619 l 1,3,-1
 428 1659 l 1,4,-1
 625 1659 l 1,5,-1
 492 971 l 1,6,-1
 719 971 l 1,7,-1
 689 825 l 1,8,-1
 30 825 l 1,9,-1
 58 971 l 1,10,-1
 292 971 l 1,0,-1
48 618 m 1,11,-1
 1107 878 l 1,12,-1
 1143 764 l 1,13,-1
 85 502 l 1,14,-1
 48 618 l 1,11,-1
573 55 m 1,15,-1
 825 55 l 1,16,-1
 890 383 l 1,17,-1
 573 55 l 1,15,-1
1110 567 m 1,18,-1
 1011 55 l 1,19,-1
 1120 55 l 1,20,-1
 1092 -91 l 1,21,-1
 984 -91 l 1,22,-1
 949 -272 l 1,23,-1
 761 -272 l 1,24,-1
 797 -91 l 1,25,-1
 408 -91 l 1,26,-1
 437 71 l 1,27,-1
 906 567 l 1,28,-1
 1110 567 l 1,18,-1
EndSplineSet
Ligature2: "'frac' Diagonal Fractions in Latin lookup 0 subtable" one fraction four
Ligature2: "'frac' Diagonal Fractions in Latin lookup 0 subtable" one slash four
EndChar
StartChar: threequarters
Encoding: 190 190 230
Width: 1234
VWidth: 3393
Flags: W
HStem: -91 146<573 797 1011 1092> 810 139<107.942 518.846> 1198 146<330 529.679> 1538 139<319.291 592.459>
VStem: 573 191<999.243 1172.22> 621 194<1371.95 1514.21>
Fore
302 1198 m 1,0,-1
 330 1344 l 1,1,-1
 441 1344 l 2,2,3
 621 1344 621 1344 621 1453 c 0,4,5
 621 1490 621 1490 580.5 1514 c 128,-1,6
 540 1538 540 1538 472 1538 c 0,7,8
 373 1538 373 1538 204 1490 c 1,9,-1
 234 1642 l 1,10,11
 308 1659 308 1659 377.5 1668 c 128,-1,12
 447 1677 447 1677 515 1677 c 0,13,14
 658 1677 658 1677 736.5 1625.5 c 128,-1,15
 815 1574 815 1574 815 1486 c 256,16,17
 815 1399 815 1399 754 1342.5 c 128,-1,18
 693 1286 693 1286 580 1273 c 1,19,20
 664 1266 664 1266 714 1217 c 128,-1,21
 764 1168 764 1168 764 1092 c 0,22,23
 764 958 764 958 653.5 884 c 128,-1,24
 543 810 543 810 340 810 c 0,25,26
 191 810 191 810 48 852 c 1,27,-1
 81 1004 l 1,28,29
 210 949 210 949 366 949 c 0,30,31
 466 949 466 949 519.5 990.5 c 128,-1,32
 573 1032 573 1032 573 1104 c 0,33,34
 573 1147 573 1147 531 1172.5 c 128,-1,35
 489 1198 489 1198 414 1198 c 2,36,-1
 302 1198 l 1,0,-1
48 618 m 1,37,-1
 1107 878 l 1,38,-1
 1143 764 l 1,39,-1
 85 502 l 1,40,-1
 48 618 l 1,37,-1
573 55 m 1,41,-1
 825 55 l 1,42,-1
 890 383 l 1,43,-1
 573 55 l 1,41,-1
1110 567 m 1,44,-1
 1011 55 l 1,45,-1
 1120 55 l 1,46,-1
 1092 -91 l 1,47,-1
 984 -91 l 1,48,-1
 949 -272 l 1,49,-1
 761 -272 l 1,50,-1
 797 -91 l 1,51,-1
 408 -91 l 1,52,-1
 437 71 l 1,53,-1
 906 567 l 1,54,-1
 1110 567 l 1,44,-1
EndSplineSet
Ligature2: "'frac' Diagonal Fractions in Latin lookup 0 subtable" three fraction four
Ligature2: "'frac' Diagonal Fractions in Latin lookup 0 subtable" three slash four
EndChar
StartChar: Gbreve
Encoding: 286 286 231
Width: 1234
VWidth: 3393
Flags: W
HStem: -30 260<503.078 769.287> 557 247<673 828> 1120 21G<1075.5 1131.15> 1259 262<695.339 1023.85> 1635 150<660.615 941.284>
VStem: 101 303<336.448 729.638>
Fore
991 94 m 1,0,1
 848 -30 848 -30 611 -30 c 256,2,3
 373 -30 373 -30 234 116 c 0,4,5
 101 265 101 265 101 525 c 0,6,7
 101 744 101 744 172 949 c 0,8,9
 252 1160 252 1160 366 1296 c 0,10,11
 570 1521 570 1521 878 1521 c 0,12,13
 1039 1521 1039 1521 1195 1448 c 1,14,-1
 1127 1120 l 1,15,16
 1024 1259 1024 1259 858 1259 c 0,17,18
 713 1259 713 1259 605 1143 c 0,19,20
 519 1042 519 1042 469 893 c 0,21,22
 437 794 437 794 420.5 702.5 c 128,-1,23
 404 611 404 611 404 534 c 0,24,25
 404 386 404 386 466.5 308 c 128,-1,26
 529 230 529 230 648 230 c 0,27,28
 719 230 719 230 771 265 c 1,29,-1
 828 557 l 1,30,-1
 621 557 l 1,31,-1
 673 804 l 1,32,-1
 1130 804 l 1,33,-1
 991 94 l 1,0,1
625 1901 m 1,34,35
 645 1785 645 1785 797 1785 c 0,36,37
 943 1785 943 1785 998 1901 c 1,38,-1
 1150 1901 l 1,39,40
 1110 1771 1110 1771 1011.5 1703 c 128,-1,41
 913 1635 913 1635 764 1635 c 0,42,43
 628 1635 628 1635 555 1703 c 128,-1,44
 482 1771 482 1771 482 1897 c 2,45,-1
 482 1901 l 1,46,-1
 625 1901 l 1,34,35
EndSplineSet
EndChar
StartChar: gbreve
Encoding: 287 287 232
Width: 1234
VWidth: 3393
Flags: W
HStem: -424 233<215.528 571.991> 17 232<331.5 590.079> 910 243<530.193 753.72> 1311 152<632.086 905.106>
VStem: 68 298<302.148 687.119> 447 143<1499.62 1609>
Fore
519 249 m 0,0,1
 638 249 638 249 719 379 c 0,2,3
 804 509 804 509 804 699 c 0,4,5
 804 797 804 797 763 853.5 c 128,-1,6
 722 910 722 910 648 910 c 0,7,8
 540 910 540 910 451 777 c 0,9,10
 366 638 366 638 366 457 c 0,11,12
 366 356 366 356 406.5 302.5 c 128,-1,13
 447 249 447 249 519 249 c 0,0,1
988 85 m 1,14,15
 936 -191 936 -191 797 -308 c 0,16,17
 661 -424 661 -424 386 -424 c 0,18,19
 288 -424 288 -424 196 -409 c 128,-1,20
 104 -394 104 -394 17 -366 c 1,21,-1
 71 -101 l 1,22,23
 227 -191 227 -191 401 -191 c 0,24,25
 645 -191 645 -191 689 51 c 2,26,-1
 716 184 l 1,27,28
 608 17 608 17 411 17 c 0,29,30
 252 17 252 17 159 119 c 0,31,32
 68 227 68 227 68 404 c 0,33,34
 68 547 68 547 109 683 c 0,35,36
 156 832 156 832 224 933 c 0,37,38
 298 1039 298 1039 398 1092 c 0,39,40
 495 1153 495 1153 605 1153 c 0,41,42
 709 1153 709 1153 775.5 1097.5 c 128,-1,43
 842 1042 842 1042 862 940 c 1,44,-1
 900 1120 l 1,45,-1
 1191 1120 l 1,46,-1
 988 85 l 1,14,15
590 1609 m 1,47,-1
 590 1596 l 2,48,49
 590 1534 590 1534 634.5 1498.5 c 128,-1,50
 679 1463 679 1463 754 1463 c 0,51,52
 923 1463 923 1463 978 1609 c 1,53,-1
 1120 1609 l 1,54,55
 1092 1466 1092 1466 994 1388.5 c 128,-1,56
 896 1311 896 1311 744 1311 c 0,57,58
 447 1311 447 1311 447 1574 c 2,59,-1
 447 1609 l 1,60,-1
 590 1609 l 1,47,-1
EndSplineSet
EndChar
StartChar: Idotaccent
Encoding: 304 304 233
Width: 1234
VWidth: 3393
Flags: W
HStem: 0 262<78 376 673 916> 1234 259<320 563 858 1157> 1655 246<679 906>
Fore
320 1493 m 1,0,-1
 1208 1493 l 1,1,-1
 1157 1234 l 1,2,-1
 858 1234 l 1,3,-1
 673 262 l 1,4,-1
 968 262 l 1,5,-1
 916 0 l 1,6,-1
 27 0 l 1,7,-1
 78 262 l 1,8,-1
 376 262 l 1,9,-1
 563 1234 l 1,10,-1
 265 1234 l 1,11,-1
 320 1493 l 1,0,-1
953 1901 m 1,12,-1
 906 1655 l 1,13,-1
 631 1655 l 1,14,-1
 679 1901 l 1,15,-1
 953 1901 l 1,12,-1
EndSplineSet
EndChar
StartChar: Scedilla
Encoding: 350 350 234
Width: 1234
VWidth: 3393
Flags: W
HStem: -401 146<221.263 460.241> -30 30<427.521 563> 1279 242<569.43 978.399>
VStem: 191 285<998.195 1190.75> 479 156<-234.081 -76.2393> 764 301<304.713 551.736>
Fore
505 664 m 1,0,1
 308 751 308 751 252 822 c 0,2,3
 191 893 191 893 191 1021 c 0,4,5
 191 1246 191 1246 353 1382 c 0,6,7
 431 1453 431 1453 536 1487 c 128,-1,8
 641 1521 641 1521 771 1521 c 0,9,10
 978 1521 978 1521 1160 1438 c 1,11,-1
 1104 1153 l 1,12,13
 968 1279 968 1279 744 1279 c 0,14,15
 625 1279 625 1279 550 1221 c 256,16,17
 476 1163 476 1163 476 1079 c 0,18,19
 476 998 476 998 658 910 c 1,20,-1
 664 910 l 1,21,-1
 784 858 l 2,22,23
 930 790 930 790 997.5 699 c 128,-1,24
 1065 608 1065 608 1065 476 c 0,25,26
 1065 249 1065 249 903 109 c 0,27,28
 744 -30 744 -30 469 -30 c 0,29,30
 249 -30 249 -30 3 75 c 1,31,-1
 65 379 l 1,32,33
 162 302 162 302 266 258 c 128,-1,34
 370 214 370 214 479 214 c 0,35,36
 615 214 615 214 689.5 273.5 c 128,-1,37
 764 333 764 333 764 431 c 0,38,39
 764 560 764 560 625 615 c 2,40,-1
 505 664 l 1,0,1
563 0 m 1,41,42
 635 -98 635 -98 635 -184 c 0,43,44
 635 -282 635 -282 560 -343 c 0,45,46
 482 -401 482 -401 353 -401 c 0,47,48
 240 -401 240 -401 149 -376 c 1,49,-1
 181 -220 l 1,50,51
 220 -237 220 -237 261 -246 c 128,-1,52
 302 -255 302 -255 340 -255 c 0,53,54
 479 -255 479 -255 479 -149 c 0,55,56
 479 -123 479 -123 466.5 -90.5 c 128,-1,57
 454 -58 454 -58 421 0 c 1,58,-1
 563 0 l 1,41,42
EndSplineSet
EndChar
StartChar: scedilla
Encoding: 351 351 235
Width: 1234
VWidth: 3393
Flags: W
HStem: -401 146<221.263 460.241> -30 30<421 563> 940 207<549.083 928.599>
VStem: 479 156<-234.081 -76.2393>
Fore
1046 832 m 1,0,1
 890 940 890 940 703 940 c 0,2,3
 608 940 608 940 553.5 904 c 128,-1,4
 499 868 499 868 499 810 c 0,5,6
 499 764 499 764 537 736 c 0,7,8
 570 713 570 713 703 673 c 2,9,-1
 774 651 l 2,10,11
 903 615 903 615 962 545.5 c 128,-1,12
 1021 476 1021 476 1021 360 c 0,13,14
 1021 176 1021 176 882 75 c 0,15,16
 747 -30 747 -30 502 -30 c 0,17,18
 285 -30 285 -30 91 41 c 1,19,-1
 143 298 l 1,20,21
 230 240 230 240 324 212 c 128,-1,22
 418 184 418 184 509 184 c 0,23,24
 621 184 621 184 682.5 221 c 128,-1,25
 744 258 744 258 744 326 c 0,26,27
 744 373 744 373 713 398 c 0,28,29
 686 421 686 421 550 462 c 2,30,-1
 462 486 l 2,31,32
 224 553 224 553 224 774 c 0,33,34
 224 936 224 936 360 1046 c 0,35,36
 499 1147 499 1147 722 1147 c 0,37,38
 910 1147 910 1147 1097 1085 c 1,39,-1
 1046 832 l 1,0,1
563 0 m 1,40,41
 635 -98 635 -98 635 -184 c 0,42,43
 635 -282 635 -282 560 -343 c 0,44,45
 482 -401 482 -401 353 -401 c 0,46,47
 240 -401 240 -401 149 -376 c 1,48,-1
 181 -220 l 1,49,50
 220 -237 220 -237 261 -246 c 128,-1,51
 302 -255 302 -255 340 -255 c 0,52,53
 479 -255 479 -255 479 -149 c 0,54,55
 479 -123 479 -123 466.5 -90.5 c 128,-1,56
 454 -58 454 -58 421 0 c 1,57,-1
 563 0 l 1,40,41
EndSplineSet
EndChar
StartChar: Cacute
Encoding: 262 262 236
Width: 1234
VWidth: 3393
Flags: W
HStem: -30 260<529.061 845.17> 1120 21G<1106.5 1160.9> 1259 262<725.39 1053.15>
VStem: 133 298<332.823 732.904>
Fore
946 45 m 1,0,1
 787 -30 787 -30 625 -30 c 0,2,3
 383 -30 383 -30 258 107 c 128,-1,4
 133 244 133 244 133 505 c 0,5,6
 133 621 133 621 147.5 731.5 c 128,-1,7
 162 842 162 842 200 946 c 0,8,9
 272 1157 272 1157 394 1296 c 0,10,11
 492 1408 492 1408 621.5 1464.5 c 128,-1,12
 751 1521 751 1521 903 1521 c 0,13,14
 1065 1521 1065 1521 1221 1448 c 1,15,-1
 1157 1120 l 1,16,17
 1056 1259 1056 1259 872 1259 c 0,18,19
 794 1259 794 1259 717.5 1209.5 c 128,-1,20
 641 1160 641 1160 583 1075 c 0,21,22
 515 968 515 968 472 819 c 0,23,24
 431 673 431 673 431 534 c 0,25,26
 431 383 431 383 494 306.5 c 128,-1,27
 557 230 557 230 676 230 c 0,28,29
 757 230 757 230 836.5 264 c 128,-1,30
 916 298 916 298 1011 370 c 1,31,-1
 946 45 l 1,0,1
1286 1901 m 1,32,-1
 968 1635 l 1,33,-1
 761 1635 l 1,34,-1
 1004 1901 l 1,35,-1
 1286 1901 l 1,32,-1
EndSplineSet
EndChar
StartChar: cacute
Encoding: 263 263 237
Width: 1234
VWidth: 3393
Flags: W
HStem: -30 240<534.362 893.74> 910 237<650.046 1009.91>
VStem: 149 298<297.32 688.8>
Fore
958 38 m 1,0,1
 800 -30 800 -30 635 -30 c 0,2,3
 411 -30 411 -30 278 94 c 0,4,5
 149 224 149 224 149 434 c 0,6,7
 149 754 149 754 333 949 c 0,8,9
 519 1147 519 1147 815 1147 c 0,10,11
 1011 1147 1011 1147 1157 1065 c 1,12,-1
 1107 797 l 1,13,14
 984 910 984 910 832 910 c 0,15,16
 661 910 661 910 553 787 c 0,17,18
 447 661 447 661 447 466 c 0,19,20
 447 210 447 210 693 210 c 0,21,22
 832 210 832 210 1014 312 c 1,23,-1
 958 38 l 1,0,1
1296 1639 m 1,24,-1
 852 1263 l 1,25,-1
 655 1263 l 1,26,-1
 974 1639 l 1,27,-1
 1296 1639 l 1,24,-1
EndSplineSet
EndChar
StartChar: Ccaron
Encoding: 268 268 238
Width: 1234
VWidth: 3393
Flags: W
HStem: -30 260<529.061 845.17> 1120 21G<1106.5 1160.9> 1259 262<725.39 1053.15>
VStem: 133 298<332.823 732.904>
Fore
946 45 m 1,0,1
 787 -30 787 -30 625 -30 c 0,2,3
 383 -30 383 -30 258 107 c 128,-1,4
 133 244 133 244 133 505 c 0,5,6
 133 621 133 621 147.5 731.5 c 128,-1,7
 162 842 162 842 200 946 c 0,8,9
 272 1157 272 1157 394 1296 c 0,10,11
 492 1408 492 1408 621.5 1464.5 c 128,-1,12
 751 1521 751 1521 903 1521 c 0,13,14
 1065 1521 1065 1521 1221 1448 c 1,15,-1
 1157 1120 l 1,16,17
 1056 1259 1056 1259 872 1259 c 0,18,19
 794 1259 794 1259 717.5 1209.5 c 128,-1,20
 641 1160 641 1160 583 1075 c 0,21,22
 515 968 515 968 472 819 c 0,23,24
 431 673 431 673 431 534 c 0,25,26
 431 383 431 383 494 306.5 c 128,-1,27
 557 230 557 230 676 230 c 0,28,29
 757 230 757 230 836.5 264 c 128,-1,30
 916 298 916 298 1011 370 c 1,31,-1
 946 45 l 1,0,1
739 1635 m 1,32,-1
 605 1901 l 1,33,-1
 774 1901 l 1,34,-1
 923 1738 l 1,35,-1
 1153 1901 l 1,36,-1
 1334 1901 l 1,37,-1
 1089 1635 l 1,38,-1
 739 1635 l 1,32,-1
EndSplineSet
EndChar
StartChar: ccaron
Encoding: 269 269 239
Width: 1234
VWidth: 3393
Flags: W
HStem: -30 240<534.362 893.74> 910 237<650.046 1009.91>
VStem: 149 298<297.32 688.8>
Fore
958 38 m 1,0,1
 800 -30 800 -30 635 -30 c 0,2,3
 411 -30 411 -30 278 94 c 0,4,5
 149 224 149 224 149 434 c 0,6,7
 149 754 149 754 333 949 c 0,8,9
 519 1147 519 1147 815 1147 c 0,10,11
 1011 1147 1011 1147 1157 1065 c 1,12,-1
 1107 797 l 1,13,14
 984 910 984 910 832 910 c 0,15,16
 661 910 661 910 553 787 c 0,17,18
 447 661 447 661 447 466 c 0,19,20
 447 210 447 210 693 210 c 0,21,22
 832 210 832 210 1014 312 c 1,23,-1
 958 38 l 1,0,1
683 1263 m 1,24,-1
 502 1639 l 1,25,-1
 676 1639 l 1,26,-1
 828 1412 l 1,27,-1
 1065 1639 l 1,28,-1
 1256 1639 l 1,29,-1
 926 1263 l 1,30,-1
 683 1263 l 1,24,-1
EndSplineSet
EndChar
StartChar: dcroat
Encoding: 273 273 240
Width: 1234
VWidth: 3393
Flags: W
HStem: -30 240<308.5 550.096> 910 240<520.551 739.955> 1253 189<655 920 1249 1360> 1538 20G<977.034 1273>
VStem: 65 298<266.15 661.269>
Fore
920 1253 m 1,0,-1
 618 1253 l 1,1,-1
 655 1442 l 1,2,-1
 958 1442 l 1,3,-1
 981 1558 l 1,4,-1
 1273 1558 l 1,5,-1
 1249 1442 l 1,6,-1
 1399 1442 l 1,7,-1
 1360 1253 l 1,8,-1
 1215 1253 l 1,9,-1
 971 0 l 1,10,-1
 679 0 l 1,11,-1
 709 166 l 1,12,13
 573 -30 573 -30 383 -30 c 0,14,15
 234 -30 234 -30 152 81 c 0,16,17
 65 191 65 191 65 379 c 0,18,19
 65 509 65 509 95.5 638 c 128,-1,20
 126 767 126 767 184 875 c 0,21,22
 258 1007 258 1007 360 1075 c 0,23,24
 457 1150 457 1150 580 1150 c 0,25,26
 693 1150 693 1150 765.5 1085.5 c 128,-1,27
 838 1021 838 1021 855 913 c 1,28,-1
 920 1253 l 1,0,-1
635 910 m 0,29,30
 522 910 522 910 441 767 c 0,31,32
 363 628 363 628 363 424 c 0,33,34
 363 323 363 323 403.5 266.5 c 128,-1,35
 444 210 444 210 519 210 c 0,36,37
 635 210 635 210 716 350 c 0,38,39
 800 492 800 492 800 686 c 0,40,41
 800 790 800 790 756.5 850 c 128,-1,42
 713 910 713 910 635 910 c 0,29,30
EndSplineSet
EndChar
StartChar: sfthyphen
Encoding: 173 173 241
Width: 1234
VWidth: 3393
Flags: W
HStem: 444 292<298 872>
VStem: 244 686<444 736>
Fore
930 736 m 1,0,-1
 872 444 l 1,1,-1
 244 444 l 1,2,-1
 298 736 l 1,3,-1
 930 736 l 1,0,-1
EndSplineSet
EndChar
StartChar: periodcentered
Encoding: 8729 8729 242
Width: 1234
VWidth: 3393
Flags: W
HStem: 522 381<633 901>
VStem: 552 430<522 903>
Fore
982 903 m 1,0,-1
 901 522 l 1,1,-1
 552 522 l 1,2,-1
 633 903 l 1,3,-1
 982 903 l 1,0,-1
EndSplineSet
EndChar
StartChar: Euro
Encoding: 8364 8364 243
Width: 1234
VWidth: 3393
Flags: W
HStem: -30 250<690.136 1002.03> 482 191<234 312 625 818> 822 189<306 362 724 1040> 1120 21G<1262 1321.27> 1273 248<897.914 1205.38>
Fore
425 1011 m 1,0,1
 523 1263 523 1263 696.5 1392 c 128,-1,2
 870 1521 870 1521 1103 1521 c 0,3,4
 1266 1521 1266 1521 1387 1448 c 1,5,-1
 1317 1120 l 1,6,7
 1207 1273 1207 1273 1058 1273 c 0,8,9
 841 1273 841 1273 724 1011 c 1,10,-1
 1164 1011 l 1,11,-1
 1040 822 l 1,12,-1
 661 822 l 1,13,14
 653 804 653 804 651.5 796 c 2,15,-1
 625 673 l 1,16,-1
 943 673 l 1,17,-1
 818 482 l 1,18,-1
 611 482 l 1,19,20
 610 356 610 356 666.5 288 c 128,-1,21
 723 220 723 220 831 220 c 0,22,23
 980 220 980 220 1158 370 c 1,24,-1
 1089 45 l 1,25,26
 934 -30 934 -30 774 -30 c 0,27,28
 541 -30 541 -30 426 96 c 128,-1,29
 311 222 311 222 311 451 c 0,30,31
 311 466 311 466 312 482 c 1,32,-1
 109 482 l 1,33,-1
 234 673 l 1,34,-1
 330 673 l 1,35,36
 333 686 333 686 334.5 701 c 0,37,38
 338.2 738 338.2 738 348.1 771 c 128,-1,39
 358 804 358 804 362 822 c 1,40,-1
 182 822 l 1,41,-1
 306 1011 l 1,42,-1
 425 1011 l 1,0,1
EndSplineSet
EndChar
StartChar: c6459
Encoding: 65539 -1 244
Width: 1234
VWidth: 3393
Flags: W
HStem: 1283 245<454 641 848 1039>
VStem: 404 678<1283 1528>
Fore
1082 1528 m 1,0,-1
 1039 1283 l 1,1,-1
 800 1283 l 1,2,-1
 848 1528 l 1,3,-1
 1082 1528 l 1,0,-1
689 1528 m 1,4,-1
 641 1283 l 1,5,-1
 404 1283 l 1,6,-1
 454 1528 l 1,7,-1
 689 1528 l 1,4,-1
EndSplineSet
EndChar
StartChar: c6460
Encoding: 65540 -1 245
Width: 1234
VWidth: 3393
Flags: W
HStem: 1263 265<774 1092>
VStem: 567 525<1263 1528>
Fore
1092 1528 m 1,0,-1
 774 1263 l 1,1,-1
 567 1263 l 1,2,-1
 810 1528 l 1,3,-1
 1092 1528 l 1,0,-1
EndSplineSet
EndChar
StartChar: c6461
Encoding: 65541 -1 246
Width: 1234
VWidth: 3393
Flags: W
HStem: 1263 149<822.397 957.619> 1385 146<540.994 665.976>
VStem: 370 750<1480 1531 1263 1531>
Fore
683 1350 m 2,0,1
 655 1370 655 1370 640 1377.5 c 128,-1,2
 625 1385 625 1385 608 1385 c 0,3,4
 570 1385 570 1385 544.5 1353 c 128,-1,5
 519 1321 519 1321 509 1263 c 1,6,-1
 370 1263 l 1,7,8
 398 1392 398 1392 461.5 1461.5 c 128,-1,9
 525 1531 525 1531 625 1531 c 0,10,11
 689 1531 689 1531 761 1480 c 2,12,-1
 815 1438 l 2,13,14
 848 1412 848 1412 882 1412 c 0,15,16
 964 1412 964 1412 984 1531 c 1,17,-1
 1120 1531 l 1,18,19
 1069 1263 1069 1263 872 1263 c 0,20,21
 835 1263 835 1263 803 1274.5 c 128,-1,22
 771 1286 771 1286 732 1314 c 2,23,-1
 683 1350 l 2,0,1
EndSplineSet
EndChar
StartChar: c6468
Encoding: 65542 -1 247
Width: 1234
VWidth: 3393
Flags: W
HStem: -30 237<445.45 687.873> 913 237<547.986 795.745>
VStem: 88 295<272.482 697.397> 852 295<428.574 855.947>
Fore
852 686 m 0,0,1
 852 913 852 913 673 913 c 0,2,3
 553 913 553 913 466 777 c 0,4,5
 383 641 383 641 383 434 c 0,6,7
 383 326 383 326 431 266.5 c 128,-1,8
 479 207 479 207 563 207 c 0,9,10
 686 207 686 207 767 343 c 0,11,12
 852 486 852 486 852 686 c 0,0,1
88 428 m 0,13,14
 88 751 88 751 255 949 c 0,15,16
 424 1150 424 1150 689 1150 c 0,17,18
 903 1150 903 1150 1024 1029 c 0,19,20
 1147 913 1147 913 1147 696 c 0,21,22
 1147 376 1147 376 981 169 c 0,23,24
 810 -30 810 -30 547 -30 c 0,25,26
 333 -30 333 -30 210 91 c 256,27,28
 88 214 88 214 88 428 c 0,13,14
EndSplineSet
EndChar
StartChar: c6470
Encoding: 65543 -1 248
Width: 1234
VWidth: 3393
Flags: W
VStem: 447 411<1263 1528>
Fore
858 1263 m 1,0,-1
 679 1263 l 1,1,-1
 447 1528 l 1,2,-1
 713 1528 l 1,3,-1
 858 1263 l 1,0,-1
EndSplineSet
EndChar
StartChar: c6472
Encoding: 65544 -1 249
Width: 1234
VWidth: 3393
Flags: W
VStem: 343 746<1263 1263>
Fore
936 1528 m 1,0,-1
 1089 1263 l 1,1,-1
 920 1263 l 1,2,-1
 754 1425 l 1,3,-1
 525 1263 l 1,4,-1
 343 1263 l 1,5,-1
 587 1528 l 1,6,-1
 936 1528 l 1,0,-1
EndSplineSet
EndChar
StartChar: c6477
Encoding: 65545 -1 250
Width: 1234
VWidth: 3393
Flags: W
VStem: 411 729<1528 1528>
Fore
547 1263 m 1,0,-1
 411 1528 l 1,1,-1
 580 1528 l 1,2,-1
 729 1364 l 1,3,-1
 961 1528 l 1,4,-1
 1140 1528 l 1,5,-1
 896 1263 l 1,6,-1
 547 1263 l 1,0,-1
EndSplineSet
EndChar
StartChar: c6478
Encoding: 65546 -1 251
Width: 1234
VWidth: 3393
Flags: W
HStem: 502 376<85 1107>
Fore
48 618 m 1,0,-1
 1107 878 l 1,1,-1
 1143 764 l 1,2,-1
 85 502 l 1,3,-1
 48 618 l 1,0,-1
EndSplineSet
EndChar
StartChar: c6475
Encoding: 65547 -1 252
Width: 1234
VWidth: 3393
Flags: W
HStem: 848 143<437 658 872 953> 1304 20G<732.141 747.096> 1483 20G<751.935 974>
VStem: 272 709<848 991>
Fore
437 991 m 1,0,-1
 686 991 l 1,1,-1
 751 1324 l 1,2,-1
 437 991 l 1,0,-1
974 1503 m 1,3,-1
 872 991 l 1,4,-1
 981 991 l 1,5,-1
 953 848 l 1,6,-1
 848 848 l 1,7,-1
 810 668 l 1,8,-1
 625 668 l 1,9,-1
 658 848 l 1,10,-1
 272 848 l 1,11,-1
 302 1011 l 1,12,-1
 771 1503 l 1,13,-1
 974 1503 l 1,3,-1
EndSplineSet
EndChar
StartChar: c6476
Encoding: 65548 -1 253
Width: 1234
VWidth: 3393
Flags: W
HStem: 1263 149<613.269 883.058>
VStem: 434 670<1399 1412 1524 1528>
Fore
577 1528 m 1,0,1
 597 1412 597 1412 751 1412 c 0,2,3
 822 1412 822 1412 874 1442.5 c 128,-1,4
 926 1473 926 1473 949 1528 c 1,5,-1
 1104 1528 l 1,6,7
 1062 1399 1062 1399 963.5 1331 c 128,-1,8
 865 1263 865 1263 719 1263 c 0,9,10
 580 1263 580 1263 507 1331 c 128,-1,11
 434 1399 434 1399 434 1524 c 2,12,-1
 434 1528 l 1,13,-1
 577 1528 l 1,0,1
EndSplineSet
EndChar
StartChar: uni0E01
Encoding: 3585 3585 255
Width: 1234
VWidth: 3393
Flags: W
HStem: 0 21G<200 415.24 923 1137.24> 1156 178<679.755 1063.6>
VStem: 1122 219<931.895 1096.99>
Fore
1067.5 1108 m 128,-1,1
 1013 1156 1013 1156 857.5 1156 c 128,-1,2
 702 1156 702 1156 522 1007 c 1,3,-1
 733 1007 l 1,4,-1
 701 858 l 1,5,6
 640 838 640 838 603.5 787 c 128,-1,7
 567 736 567 736 556 684 c 2,8,-1
 411 0 l 1,9,-1
 200 0 l 1,10,-1
 340 658 l 2,11,12
 356.927 736.481 356.927 736.481 501 851 c 1,13,-1
 285 851 l 1,14,-1
 331 1069 l 1,15,16
 476 1186 476 1186 607 1260 c 128,-1,17
 738 1334 738 1334 909 1334 c 0,18,19
 1116.6 1334 1116.6 1334 1236.5 1240 c 0,20,21
 1341 1158.07 1341 1158.07 1341 1024 c 0,22,23
 1341 982 1341 982 1331 933 c 2,24,-1
 1133 0 l 1,25,-1
 923 0 l 1,26,-1
 1110 878 l 2,27,28
 1122 933 1122 933 1122 977 c 0,29,0
 1122 1060 1122 1060 1067.5 1108 c 128,-1,1
EndSplineSet
EndChar
StartChar: uni0E02
Encoding: 3586 3586 256
Width: 1234
VWidth: 3393
Flags: W
HStem: 0 181<683 920> 741 129<513.882 637.377> 1158 171<689.158 851.561>
VStem: 344 167<871.323 1001.1> 660 145<923.117 1019.89> 884 184<893.949 1124.42>
Fore
674 1142 m 1,0,1
 805 1136 805 1136 805 1003 c 0,2,3
 805 977 805 977 799 948 c 0,4,5
 777 847 777 847 705.5 794 c 128,-1,6
 634 741 634 741 540 741 c 128,-1,7
 446 741 446 741 395 781.5 c 128,-1,8
 344 822 344 822 344 896 c 128,-1,9
 344 970 344 970 395 1062.5 c 128,-1,10
 446 1155 446 1155 534.5 1242 c 128,-1,11
 623 1329 623 1329 783 1329 c 128,-1,12
 943 1329 943 1329 1005.5 1251 c 128,-1,13
 1068 1173 1068 1173 1068 1061.5 c 128,-1,14
 1068 950 1068 950 1007.5 859.5 c 128,-1,15
 947 769 947 769 895 699.5 c 128,-1,16
 843 630 843 630 796 560.5 c 128,-1,17
 749 491 749 491 734 419 c 2,18,-1
 683 181 l 1,19,-1
 920 181 l 1,20,-1
 1161 1314 l 1,21,-1
 1371 1314 l 1,22,-1
 1092 0 l 1,23,-1
 434 0 l 1,24,-1
 529 449 l 1,25,-1
 527 436 l 1,26,27
 543 514 543 514 595.5 583.5 c 128,-1,28
 648 653 648 653 704 719.5 c 128,-1,29
 760 786 760 786 822 868 c 128,-1,30
 884 950 884 950 884 1036 c 0,31,32
 884 1080 884 1080 851.5 1119 c 128,-1,33
 819 1158 819 1158 761 1158 c 128,-1,34
 703 1158 703 1158 674 1142 c 1,0,1
600 1022 m 256,35,36
 570 1022 570 1022 540.5 996.5 c 128,-1,37
 511 971 511 971 511 940 c 0,38,39
 511 870 511 870 568 870 c 256,40,41
 599 870 599 870 629.5 896.5 c 128,-1,42
 660 923 660 923 660 954 c 0,43,44
 660 1022 660 1022 600 1022 c 256,35,36
EndSplineSet
EndChar
StartChar: uni0E03
Encoding: 3587 3587 257
Width: 1234
VWidth: 3393
Flags: W
HStem: 0 181<666 931> 693 117<513.36 629.711> 953 116<550.504 643.589> 1140 181<850.18 1012.5>
VStem: 346 165<811.027 934.431> 651 138<869.385 942.854> 908 188<1022.19 1230.49>
Fore
929 1321 m 0,0,1
 1096 1321 1096 1321 1096 1138 c 0,2,3
 1096 1022 1096 1022 1062 970.5 c 2,4,-1
 879 700.5 l 2,5,6
 730 482 730 482 715 408 c 2,7,-1
 666 181 l 1,8,-1
 931 181 l 1,9,-1
 1172 1314 l 1,10,-1
 1383 1314 l 1,11,-1
 1104 0 l 1,12,-1
 418 0 l 1,13,-1
 501 391 l 2,14,15
 518 478 518 478 608.5 605 c 128,-1,16
 699 732 699 732 724 757 c 1,17,18
 640 693 640 693 524.5 693 c 128,-1,19
 409 693 409 693 377.5 770 c 128,-1,20
 346 847 346 847 346 903 c 128,-1,21
 346 959 346 959 356.5 1007.5 c 128,-1,22
 367 1056 367 1056 388 1108 c 128,-1,23
 409 1160 409 1160 462 1237 c 128,-1,24
 515 1314 515 1314 622 1314 c 0,25,26
 657 1314 657 1314 691 1286.5 c 128,-1,27
 725 1259 725 1259 741 1245 c 128,-1,28
 757 1231 757 1231 774 1231 c 128,-1,29
 791 1231 791 1231 798.5 1238 c 2,30,-1
 848.5 1283 l 2,31,32
 891 1321 891 1321 929 1321 c 0,0,1
730 1042 m 1,33,34
 789 985 789 985 789 934 c 0,35,36
 789 919 789 919 785 903 c 2,37,-1
 773 848 l 1,38,-1
 747 784 l 1,39,40
 794 842 794 842 838 906.5 c 128,-1,41
 882 971 882 971 907 1072 c 0,42,43
 908 1080 908 1080 908 1090 c 0,44,45
 908 1140 908 1140 890 1140 c 0,46,47
 867 1140 867 1140 850 1125 c 128,-1,48
 833 1110 833 1110 815.5 1092.5 c 128,-1,49
 798 1075 798 1075 778 1058.5 c 128,-1,50
 758 1042 758 1042 730 1042 c 1,33,34
536 1056 m 1,51,52
 575 1069 575 1069 614.5 1069 c 128,-1,53
 654 1069 654 1069 687 1059 c 1,54,55
 670 1077 670 1077 656 1104 c 1,56,57
 647 1110 647 1110 636 1123.5 c 128,-1,58
 625 1137 625 1137 608 1137 c 256,59,60
 592 1137 592 1137 566 1104.5 c 128,-1,61
 540 1072 540 1072 536 1056 c 1,51,52
511 876 m 0,62,63
 511 810 511 810 564 810 c 0,64,65
 593 810 593 810 622 834.5 c 128,-1,66
 651 859 651 859 651 905 c 0,67,68
 651 919 651 919 637.5 936 c 128,-1,69
 624 953 624 953 595 953 c 128,-1,70
 566 953 566 953 538.5 929 c 128,-1,71
 511 905 511 905 511 876 c 0,62,63
EndSplineSet
EndChar
StartChar: uni0E04
Encoding: 3588 3588 258
Width: 1234
VWidth: 3393
Flags: W
HStem: 0 21G<227 449.182 903 1118.24> 476 169<714.186 832.905> 797 156<732.193 855.722> 1160 174<665.995 1037.66>
VStem: 230.302 222.698<22.11 167.177> 235 201<486 820.986> 858 158<663.752 795.002> 1104 218<937.995 1099.73>
Fore
238 178 m 2,0,-1
 235 412 l 1,1,-1
 235 427 l 2,2,3
 235 679 235 679 268 832 c 0,4,5
 327 1108 327 1108 493.5 1221 c 128,-1,6
 660 1334 660 1334 881 1334 c 128,-1,7
 1102 1334 1102 1334 1212 1249 c 128,-1,8
 1322 1164 1322 1164 1322 1027 c 0,9,10
 1322 981 1322 981 1311 929 c 2,11,-1
 1114 0 l 1,12,-1
 903 0 l 1,13,-1
 1095 905 l 2,14,15
 1104 945 1104 945 1104 979 c 0,16,17
 1104 1160 1104 1160 858 1160 c 0,18,19
 716 1160 716 1160 608.5 1082 c 128,-1,20
 501 1004 501 1004 463 825 c 0,21,22
 436 697 436 697 436 512 c 0,23,-1
 436 486 l 1,24,25
 472 560 472 560 502.5 643 c 128,-1,26
 533 726 533 726 572 794 c 128,-1,27
 611 862 611 862 668 907.5 c 128,-1,28
 725 953 725 953 823.5 953 c 128,-1,29
 922 953 922 953 969 901 c 128,-1,30
 1016 849 1016 849 1016 784 c 0,31,32
 1016 652 1016 652 923 564 c 128,-1,33
 830 476 830 476 729 476 c 0,34,35
 664 476 664 476 619 502 c 1,36,-1
 569 394 l 2,37,38
 464 163 464 163 453 55 c 2,39,-1
 447 0 l 1,40,-1
 227 0 l 1,41,42
 238 91 238 91 238 178 c 2,0,-1
740 771.5 m 128,-1,44
 711 746 711 746 711 714 c 0,45,46
 711 645 711 645 768 645 c 256,47,48
 798 645 798 645 823.5 667 c 0,49,50
 858 696.765 858 696.765 858 728.382 c 0,51,52
 858 797 858 797 800 797 c 256,53,43
 769 797 769 797 740 771.5 c 128,-1,44
EndSplineSet
EndChar
StartChar: uni0E05
Encoding: 3589 3589 259
Width: 1234
VWidth: 3393
Flags: W
HStem: 0 21G<252 465 943 1158.23> 469 169<745.764 866.665> 787 156<776.625 887.619> 1120 201<608.152 762.852>
VStem: 248 204<484.923 754.12> 890 159<660.299 784.745>
Fore
885 1042 m 1,0,1
 829 1042 829 1042 798 1069.5 c 128,-1,2
 767 1097 767 1097 747 1108.5 c 128,-1,3
 727 1120 727 1120 689.5 1120 c 128,-1,4
 652 1120 652 1120 615.5 1091 c 128,-1,5
 579 1062 579 1062 549.5 1020 c 0,6,7
 489.959 935.23 489.959 935.23 471.48 846.115 c 0,8,9
 452 752.178 452 752.178 452 659.089 c 128,-1,10
 452 566 452 566 458 482 c 1,11,-1
 510 629.5 l 2,12,13
 572.92 814.765 572.92 814.765 680 895.5 c 0,14,15
 743 943 743 943 841 943 c 128,-1,16
 939 943 939 943 994 893 c 128,-1,17
 1049 843 1049 843 1049 773 c 0,18,19
 1049 645.429 1049 645.429 938 545 c 0,20,21
 854 469 854 469 748 469 c 0,22,23
 700 469 700 469 665 492 c 1,24,-1
 546.5 249.5 l 2,25,26
 489 126 489 126 441 0 c 1,27,-1
 252 0 l 1,28,29
 270 93 270 93 270 146 c 128,-1,30
 270 199 270 199 266.5 261 c 128,-1,31
 263 323 263 323 256.5 422.5 c 0,32,33
 248 552.615 248 552.615 248 645.308 c 128,-1,34
 248 738 248 738 268 832 c 128,-1,35
 288 926 288 926 329.5 1009 c 128,-1,36
 371 1092 371 1092 431.5 1161.5 c 0,37,38
 570.345 1321 570.345 1321 747 1321 c 0,39,40
 780 1321 780 1321 800 1303.5 c 128,-1,41
 820 1286 820 1286 837.5 1267.5 c 128,-1,42
 855 1249 855 1249 874 1232 c 128,-1,43
 893 1215 893 1215 922 1215 c 256,44,45
 954 1215 954 1215 981.5 1232 c 128,-1,46
 1009 1249 1009 1249 1036.5 1269 c 128,-1,47
 1064 1289 1064 1289 1091.5 1306.5 c 128,-1,48
 1119 1324 1119 1324 1166.5 1324 c 128,-1,49
 1214 1324 1214 1324 1260.5 1291.5 c 128,-1,50
 1307 1259 1307 1259 1334 1211 c 0,51,52
 1371 1145.22 1371 1145.22 1371 1085.11 c 128,-1,53
 1371 1025 1371 1025 1363 988 c 2,54,-1
 1154 0 l 1,55,-1
 943 0 l 1,56,-1
 1133 893 l 2,57,58
 1150 969.5 1150 969.5 1150 996.75 c 128,-1,59
 1150 1024 1150 1024 1149.5 1044.5 c 128,-1,60
 1149 1065 1149 1065 1136.5 1092.5 c 128,-1,61
 1124 1120 1124 1120 1093 1120 c 1,62,-1
 885 1042 l 1,0,1
831 787 m 256,63,64
 802 787 802 787 771 762.5 c 128,-1,65
 740 738 740 738 740 707.5 c 128,-1,66
 740 677 740 677 755.5 657.5 c 128,-1,67
 771 638 771 638 800 638 c 256,68,69
 829 638 829 638 859.5 664 c 128,-1,70
 890 690 890 690 890 720 c 0,71,72
 890 787 890 787 831 787 c 256,63,64
EndSplineSet
EndChar
StartChar: uni0E06
Encoding: 3590 3590 260
Width: 1234
VWidth: 3393
Flags: W
HStem: -30 173<354.5 451.258> 703 122<446.927 571.03> 971 118<509.995 574> 1133 194<840.27 953>
VStem: 197 197<160.197 348.065> 287 159<826.271 951.777> 584 150<866.56 968.821> 877 200<1075.59 1177.5>
Fore
638 761 m 1,0,1
 548 703 548 703 473 703 c 128,-1,2
 398 703 398 703 342.5 743 c 128,-1,3
 287 783 287 783 287 909 c 0,4,5
 287 1048.81 287 1048.81 399.5 1232 c 0,6,7
 456 1324 456 1324 536 1324 c 0,8,9
 581.222 1324 581.222 1324 635 1280 c 2,10,-1
 676 1244.5 l 2,11,12
 706 1218 706 1218 732 1218 c 128,-1,13
 758 1218 758 1218 779 1235.5 c 128,-1,14
 800 1253 800 1253 821 1272.5 c 128,-1,15
 842 1292 842 1292 864.5 1309.5 c 128,-1,16
 887 1327 887 1327 931 1327 c 128,-1,17
 975 1327 975 1327 1008.5 1301.5 c 128,-1,18
 1042 1276 1042 1276 1059.5 1238.5 c 128,-1,19
 1077 1201 1077 1201 1077 1154 c 128,-1,20
 1077 1107 1077 1107 1065 1049 c 0,21,22
 1047.15 962.721 1047.15 962.721 932 836.5 c 2,23,-1
 834 726.5 l 2,24,25
 744.752 625.477 744.752 625.477 749.5 578 c 0,26,27
 750 573 750 573 749 568 c 128,-1,28
 748 563 748 563 767.5 542.5 c 128,-1,29
 787 522 787 522 790 522 c 1,30,-1
 1000 282 l 1,31,-1
 1219 1314 l 1,32,-1
 1429 1314 l 1,33,-1
 1150 0 l 1,34,-1
 961 0 l 1,35,-1
 696 353 l 1,36,-1
 649 133 l 2,37,38
 624 11 624 11 526 -9.5 c 128,-1,39
 428 -30 428 -30 379 -30 c 128,-1,40
 330 -30 330 -30 263.5 15 c 128,-1,41
 197 60 197 60 197 183.5 c 128,-1,42
 197 307 197 307 242 379 c 128,-1,43
 287 451 287 451 362 522.5 c 128,-1,44
 437 594 437 594 552 600 c 1,45,46
 568 674 568 674 638 761 c 1,0,1
693 1052 m 1,47,48
 734 995 734 995 734 967.5 c 0,49,50
 734 879.677 734 879.677 683 804 c 1,51,52
 757 860 757 860 736 842 c 1,53,54
 789 890 789 890 822 932 c 128,-1,55
 855 974 855 974 875 1069 c 0,56,57
 877 1075 877 1075 877 1082 c 0,58,59
 877 1133 877 1133 849 1133 c 0,60,61
 834 1133 834 1133 820 1121.5 c 128,-1,62
 806 1110 806 1110 798 1104 c 2,63,-1
 765 1076 l 2,64,65
 739 1056 739 1056 719 1056 c 2,66,-1
 706 1056 l 2,67,68
 700 1056 700 1056 693 1052 c 1,47,48
448 143 m 0,69,70
 454 143 454 143 463 168.5 c 128,-1,71
 472 194 472 194 474 204 c 2,72,-1
 520 418 l 1,73,74
 463 394 463 394 428.5 342.5 c 128,-1,75
 394 291 394 291 394 228 c 0,76,77
 394 209 394 209 398.5 176 c 128,-1,78
 403 143 403 143 448 143 c 0,69,70
483 1075 m 1,79,80
 519 1089 519 1089 574 1089 c 2,81,-1
 594 1089 l 2,82,83
 614 1089 614 1089 629 1085 c 1,84,85
 626 1092 626 1092 612.5 1101 c 128,-1,86
 599 1110 599 1110 577.5 1126.5 c 128,-1,87
 556 1143 556 1143 547 1143 c 128,-1,88
 538 1143 538 1143 513.5 1116 c 128,-1,89
 489 1089 489 1089 483 1075 c 1,79,80
582 900 m 0,90,91
 584 910 584 910 584 923.5 c 128,-1,92
 584 937 584 937 571.5 954 c 128,-1,93
 559 971 559 971 530 971 c 128,-1,94
 501 971 501 971 473.5 946 c 128,-1,95
 446 921 446 921 446 873 c 128,-1,96
 446 825 446 825 506 825 c 128,-1,97
 566 825 566 825 582 900 c 0,90,91
EndSplineSet
EndChar
StartChar: uni0E07
Encoding: 3591 3591 261
Width: 1234
VWidth: 3393
Flags: W
HStem: 0 21G<748.685 1063.25> 1157 177<975.308 1100.94>
VStem: 1104 192<1059.05 1155.29>
Fore
884 169 m 1,0,-1
 1026 839 l 1,1,2
 1009 835 1009 835 974 835 c 0,3,4
 870 835 870 835 809 893 c 128,-1,5
 748 951 748 951 748 1027 c 0,6,7
 748 1051 748 1051 754 1079 c 0,8,9
 779 1195 779 1195 876 1264.5 c 128,-1,10
 973 1334 973 1334 1083.5 1334 c 128,-1,11
 1194 1334 1194 1334 1245 1276 c 128,-1,12
 1296 1218 1296 1218 1296 1146 c 0,13,14
 1296 1116 1296 1116 1289 1082 c 2,15,-1
 1059 0 l 1,16,-1
 761 0 l 1,17,-1
 354 661 l 1,18,-1
 564 661 l 1,19,-1
 884 169 l 1,0,-1
1043 1157 m 256,20,21
 1013 1157 1013 1157 983 1131.5 c 128,-1,22
 953 1106 953 1106 953 1074 c 0,23,24
 953 1004 953 1004 1010 1004 c 256,25,26
 1041 1004 1041 1004 1072.5 1030 c 128,-1,27
 1104 1056 1104 1056 1104 1088 c 0,28,29
 1104 1157 1104 1157 1043 1157 c 256,20,21
EndSplineSet
EndChar
StartChar: uni0E08
Encoding: 3592 3592 262
Width: 1234
VWidth: 3393
Flags: W
HStem: 0 21G<661 1070.29> 428 169<574.947 684.058> 747 169<588.073 705.483> 1130 197<742.875 1044.93>
VStem: 383 182<602.907 725.832> 1087 220<831.493 1078.47>
Fore
688 447 m 1,0,1
 650 428 650 428 586 428 c 0,2,3
 474 428 474 428 428.5 492.5 c 128,-1,4
 383 557 383 557 383 606 c 0,5,6
 383 781 383 781 493 848.5 c 128,-1,7
 603 916 603 916 690.5 916 c 128,-1,8
 778 916 778 916 838.5 877 c 128,-1,9
 899 838 899 838 901 761 c 128,-1,10
 903 684 903 684 903 655.5 c 2,11,-1
 903 605 l 1,12,-1
 873 181 l 1,13,-1
 916 181 l 1,14,-1
 1001.5 525 l 2,15,16
 1087 869 1087 869 1087 940 c 128,-1,17
 1087 1011 1087 1011 1055.5 1070.5 c 128,-1,18
 1024 1130 1024 1130 883 1130 c 128,-1,19
 742 1130 742 1130 592.5 1057 c 128,-1,20
 443 984 443 984 308 855 c 1,21,-1
 363 1117 l 1,22,23
 511 1279 511 1279 683 1303 c 128,-1,24
 855 1327 855 1327 920 1327 c 0,25,26
 1168 1327 1168 1327 1237.5 1226 c 128,-1,27
 1307 1125 1307 1125 1307 1026.5 c 128,-1,28
 1307 928 1307 928 1288 838 c 0,29,30
 1264 754 1264 754 1254 714 c 2,31,-1
 1065 0 l 1,32,-1
 661 0 l 1,33,-1
 688 447 l 1,0,1
596.5 722 m 128,-1,35
 565 697 565 697 565 666 c 128,-1,36
 565 635 565 635 580.5 616 c 128,-1,37
 596 597 596 597 624 597 c 128,-1,38
 652 597 652 597 683.5 622.5 c 128,-1,39
 715 648 715 648 715 695 c 0,40,41
 715 709 715 709 699.5 728 c 128,-1,42
 684 747 684 747 656 747 c 128,-1,34
 628 747 628 747 596.5 722 c 128,-1,35
EndSplineSet
EndChar
StartChar: uni0E09
Encoding: 3593 3593 263
Width: 1234
VWidth: 3393
Flags: W
HStem: -30 149<965.252 1052.36> 689 159<412.996 534.957> 1147 187<630.906 1006.05>
VStem: 209 181<539.19 633.851> 540 173<573.761 676.422> 1076 177<145.906 286.585> 1084 224<910.857 1068.65>
Fore
462 391 m 1,0,1
 435 383 435 383 396 383 c 0,2,3
 301 383 301 383 255 431 c 128,-1,4
 209 479 209 479 209 542 c 0,5,6
 209 567 209 567 215 597 c 0,7,8
 239 709 239 709 323 778.5 c 128,-1,9
 407 848 407 848 533 848 c 128,-1,10
 659 848 659 848 686 783 c 128,-1,11
 713 718 713 718 713 665.5 c 128,-1,12
 713 613 713 613 702 560 c 2,13,-1
 645 292 l 1,14,-1
 858 428 l 2,15,16
 908 462 908 462 958 501 c 128,-1,17
 1008 540 1008 540 1017 583 c 2,18,-1
 1075 858 l 2,19,20
 1084 899 1084 899 1084 936 c 0,21,22
 1084 1015 1084 1015 1030 1081 c 128,-1,23
 976 1147 976 1147 838.5 1147 c 128,-1,24
 701 1147 701 1147 522 1053 c 128,-1,25
 343 959 343 959 209 858 c 1,26,-1
 267 1127 l 1,27,28
 435 1259 435 1259 620.5 1296.5 c 128,-1,29
 806 1334 806 1334 884.5 1334 c 128,-1,30
 963 1334 963 1334 1099.5 1296.5 c 128,-1,31
 1236 1259 1236 1259 1272 1160 c 128,-1,32
 1308 1061 1308 1061 1308 1011.5 c 128,-1,33
 1308 962 1308 962 1297 910 c 2,34,-1
 1218 537 l 2,35,36
 1204 472 1204 472 1160 428 c 1,37,38
 1253 385 1253 385 1253 263 c 128,-1,39
 1253 141 1253 141 1161 55.5 c 128,-1,40
 1069 -30 1069 -30 967.5 -30 c 128,-1,41
 866 -30 866 -30 824.5 24.5 c 128,-1,42
 783 79 783 79 783 123 c 128,-1,43
 783 167 783 167 789 197 c 2,44,-1
 795 227 l 1,45,46
 694 158 694 158 573 0 c 1,47,-1
 379 0 l 1,48,-1
 462 391 l 1,0,1
1043 288 m 0,49,50
 983 288 983 288 967 207 c 0,51,52
 961 181 961 181 966 150 c 128,-1,53
 971 119 971 119 999 119 c 256,54,55
 1026 119 1026 119 1051 156.5 c 128,-1,56
 1076 194 1076 194 1076 241 c 128,-1,57
 1076 288 1076 288 1043 288 c 0,49,50
504 558.5 m 0,58,59
 540 587.167 540 587.167 540 636 c 0,60,61
 540 650 540 650 524.5 669.5 c 128,-1,62
 509 689 509 689 480 689 c 128,-1,63
 451 689 451 689 420.5 663.5 c 128,-1,64
 390 638 390 638 390 605 c 0,65,66
 390 537 390 537 450 537 c 0,67,68
 477 537 477 537 504 558.5 c 0,58,59
EndSplineSet
EndChar
